spectral-bold.ufo
<glyph name="exclam" format="2">
  <advance width="268.82142857142856"/>
  <unicode hex="0021"/>
  <outline>
    <contour>
      <point x="118.03571428571429" y="218.21428571428572" type="line"/>
      <point x="150.17857142857142" y="218.21428571428572" type="line"/>
      <point x="212.78571428571428" y="660.0" type="line"/>
      <point x="56.03571428571429" y="660.0" type="line"/>
    </contour>
    <contour>
      <point x="134.10714285714286" y="-5.0" type="curve" smooth="yes"/>
      <point x="174.0" y="-5.0"/>
      <point x="208.46428571428572" y="29.464285714285715"/>
      <point x="208.46428571428572" y="69.35714285714286" type="curve" smooth="yes"/>
      <point x="208.46428571428572" y="109.64285714285714"/>
      <point x="174.0" y="143.71428571428572"/>
      <point x="134.10714285714286" y="143.71428571428572" type="curve" smooth="yes"/>
      <point x="93.82142857142857" y="143.71428571428572"/>
      <point x="59.75" y="109.64285714285714"/>
      <point x="59.75" y="69.35714285714286" type="curve" smooth="yes"/>
      <point x="59.75" y="29.464285714285715"/>
      <point x="93.82142857142857" y="-5.0"/>
    </contour>
  </outline>
</glyph>
<glyph name="numbersign" format="2">
  <advance width="560.7142857142857"/>
  <unicode hex="0023"/>
  <outline>
    <contour>
      <point x="69.14285714285714" y="0.0" type="line"/>
      <point x="121.57142857142857" y="0.0" type="line"/>
      <point x="313.57142857142856" y="660.0" type="line"/>
      <point x="261.14285714285717" y="660.0" type="line"/>
    </contour>
    <contour>
      <point x="249.14285714285714" y="0.0" type="line"/>
      <point x="301.57142857142856" y="0.0" type="line"/>
      <point x="493.57142857142856" y="660.0" type="line"/>
      <point x="441.14285714285717" y="660.0" type="line"/>
    </contour>
    <contour>
      <point x="89.35714285714286" y="401.7857142857143" type="line"/>
      <point x="529.3571428571429" y="401.7857142857143" type="line"/>
      <point x="529.3571428571429" y="451.2142857142857" type="line"/>
      <point x="89.35714285714286" y="451.2142857142857" type="line"/>
    </contour>
    <contour>
      <point x="31.357142857142854" y="201.78571428571428" type="line"/>
      <point x="471.35714285714283" y="201.78571428571428" type="line"/>
      <point x="471.35714285714283" y="251.21428571428572" type="line"/>
      <point x="31.357142857142854" y="251.21428571428572" type="line"/>
    </contour>
  </outline>
</glyph>
<glyph name="dollar" format="2">
  <advance width="560.7142857142857"/>
  <unicode hex="0024"/>
  <outline>
    <contour>
      <point x="275.2142857142857" y="-10.0" type="curve" smooth="yes"/>
      <point x="401.17857142857144" y="-10.0"/>
      <point x="514.5357142857142" y="72.26315789473684"/>
      <point x="514.5357142857142" y="189.10714285714286" type="curve" smooth="yes"/>
      <point x="514.5357142857142" y="301.1441798941799"/>
      <point x="449.99038360518256" y="345.5654502085815"/>
      <point x="312.6428571428571" y="401.25" type="curve" smooth="yes"/>
      <point x="197.5813220177178" y="447.61049887732077"/>
      <point x="178.85714285714286" y="478.48979591836735"/>
      <point x="178.85714285714286" y="530.1428571428571" type="curve" smooth="yes"/>
      <point x="178.85714285714286" y="582.1794532627865"/>
      <point x="226.85714285714286" y="617.75"/>
      <point x="289.75" y="617.75" type="curve" smooth="yes"/>
      <point x="356.9835164835165" y="617.75"/>
      <point x="403.85714285714283" y="590.75"/>
      <point x="403.85714285714283" y="536.75" type="curve" smooth="yes"/>
      <point x="403.85714285714283" y="509.75" type="line"/>
      <point x="408.85714285714283" y="505.75" type="line"/>
      <point x="455.07142857142856" y="505.75" type="line" smooth="yes"/>
      <point x="471.07142857142856" y="505.75"/>
      <point x="491.6428571428571" y="515.0"/>
      <point x="491.6428571428571" y="542.0" type="curve" smooth="yes"/>
      <point x="491.6428571428571" y="573.0"/>
      <point x="470.17857142857144" y="604.2142857142857"/>
      <point x="437.17857142857144" y="630.1785714285714" type="curve" smooth="yes"/>
      <point x="409.2631874661735" y="652.2459761195671"/>
      <point x="361.5" y="670.0"/>
      <point x="292.7857142857143" y="670.0" type="curve" smooth="yes"/>
      <point x="170.53571428571428" y="670.0"/>
      <point x="58.82142857142857" y="578.6761790840739"/>
      <point x="58.82142857142857" y="473.64285714285717" type="curve" smooth="yes"/>
      <point x="58.82142857142857" y="382.54809052333803"/>
      <point x="100.46748278259169" y="330.69243927235766"/>
      <point x="222.82142857142856" y="279.42857142857144" type="curve" smooth="yes"/>
      <point x="364.20985357750834" y="219.48739711985274"/>
      <point x="398.5" y="194.50429645542428"/>
      <point x="398.5" y="133.78571428571428" type="curve" smooth="yes"/>
      <point x="398.5" y="73.55139372822299"/>
      <point x="347.32142857142856" y="41.25"/>
      <point x="276.42857142857144" y="41.25" type="curve" smooth="yes"/>
      <point x="196.60714285714286" y="41.25"/>
      <point x="147.32142857142856" y="84.57142857142857"/>
      <point x="147.32142857142856" y="141.0" type="curve" smooth="yes"/>
      <point x="147.32142857142856" y="168.0" type="line"/>
      <point x="142.32142857142856" y="172.0" type="line"/>
      <point x="98.53571428571429" y="172.0" type="line" smooth="yes"/>
      <point x="82.53571428571429" y="172.0"/>
      <point x="59.535714285714285" y="167.0"/>
      <point x="59.535714285714285" y="140.0" type="curve" smooth="yes"/>
      <point x="59.535714285714285" y="109.0"/>
      <point x="75.53571428571429" y="71.0"/>
      <point x="108.53571428571429" y="43.0" type="curve" smooth="yes"/>
      <point x="135.92857142857142" y="17.607142857142858"/>
      <point x="199.71428571428572" y="-10.0"/>
    </contour>
    <contour>
      <point x="219.57142857142856" y="-80.0" type="line"/>
      <point x="258.2142857142857" y="-80.0" type="line"/>
      <point x="258.2142857142857" y="740.0" type="line"/>
      <point x="219.57142857142856" y="740.0" type="line"/>
    </contour>
    <contour>
      <point x="316.57142857142856" y="-80.0" type="line"/>
      <point x="355.2142857142857" y="-80.0" type="line"/>
      <point x="355.2142857142857" y="740.0" type="line"/>
      <point x="316.57142857142856" y="740.0" type="line"/>
    </contour>
  </outline>
</glyph>
<glyph name="ampersand" format="2">
  <advance width="765.4285714285714"/>
  <unicode hex="0026"/>
  <outline>
    <contour>
      <point x="515.0357142857143" y="0.0" type="line"/>
      <point x="742.2142857142857" y="0.0" type="line"/>
      <point x="742.2142857142857" y="16.0" type="line"/>
      <point x="659.2142857142857" y="52.0" type="line"/>
      <point x="368.4642857142857" y="346.0" type="line" smooth="yes"/>
      <point x="279.5357142857143" y="435.75"/>
      <point x="228.96428571428572" y="481.4642857142857"/>
      <point x="228.96428571428572" y="543.7142857142857" type="curve" smooth="yes"/>
      <point x="228.96428571428572" y="589.1785714285714"/>
      <point x="251.24213075082142" y="625.0"/>
      <point x="294.7142857142857" y="625.0" type="curve" smooth="yes"/>
      <point x="340.6886645960357" y="625.0"/>
      <point x="363.10714285714283" y="586.75"/>
      <point x="363.10714285714283" y="542.25" type="curve" smooth="yes"/>
      <point x="363.10714285714283" y="484.25"/>
      <point x="335.5831129724286" y="435.5978577423571"/>
      <point x="287.7142857142857" y="399.25" type="curve"/>
      <point x="311.07142857142856" y="376.42857142857144" type="line"/>
      <point x="449.75533422125" y="425.4833572152857"/>
      <point x="498.5" y="474.75"/>
      <point x="498.5" y="534.1071428571429" type="curve" smooth="yes"/>
      <point x="498.5" y="613.9642857142857"/>
      <point x="422.8299319725" y="670.0"/>
      <point x="305.35714285714283" y="670.0" type="curve" smooth="yes"/>
      <point x="188.18042671585715" y="670.0"/>
      <point x="94.60714285714286" y="601.6071428571429"/>
      <point x="94.60714285714286" y="501.85714285714283" type="curve" smooth="yes"/>
      <point x="94.60714285714286" y="413.0357142857143"/>
      <point x="148.64285714285714" y="368.82142857142856"/>
      <point x="257.67857142857144" y="259.17857142857144" type="curve" smooth="yes"/>
    </contour>
    <contour>
      <point x="248.42857142857142" y="-10.0" type="curve" smooth="yes"/>
      <point x="445.4642857142857" y="-10.0"/>
      <point x="557.8214285714286" y="151.82142857142858"/>
      <point x="674.2857142857143" y="391.57142857142856" type="curve"/>
      <point x="644.2857142857143" y="366.57142857142856" type="line"/>
      <point x="753.2857142857143" y="413.57142857142856" type="line"/>
      <point x="753.2857142857143" y="429.57142857142856" type="line"/>
      <point x="506.17857142857144" y="429.57142857142856" type="line"/>
      <point x="506.17857142857144" y="413.57142857142856" type="line"/>
      <point x="604.1785714285714" y="374.57142857142856" type="line"/>
      <point x="529.1428571428571" y="170.0"/>
      <point x="426.82142857142856" y="61.07142857142857"/>
      <point x="303.2142857142857" y="61.07142857142857" type="curve" smooth="yes"/>
      <point x="220.89702815425" y="61.07142857142857"/>
      <point x="172.10714285714286" y="111.46181778175"/>
      <point x="172.10714285714286" y="198.53571428571428" type="curve" smooth="yes"/>
      <point x="172.10714285714286" y="252.96663645928572"/>
      <point x="184.58538374971428" y="292.70017408017856"/>
      <point x="231.60714285714286" y="333.10714285714283" type="curve"/>
      <point x="205.17857142857142" y="356.92857142857144" type="line"/>
      <point x="92.14285714285714" y="310.39285714285717"/>
      <point x="37.0" y="240.14285714285714"/>
      <point x="37.0" y="157.53571428571428" type="curve" smooth="yes"/>
      <point x="37.0" y="52.32142857142857"/>
      <point x="121.89285714285714" y="-10.0"/>
    </contour>
  </outline>
</glyph>
<glyph name="quotesingle" format="2">
  <advance width="250.0"/>
  <unicode hex="0027"/>
  <outline>
    <contour>
      <point x="112.57142857142857" y="490.0" type="line"/>
      <point x="137.42857142857144" y="490.0" type="line"/>
      <point x="176.07142857142856" y="740.0" type="line"/>
      <point x="73.92857142857143" y="740.0" type="line"/>
    </contour>
  </outline>
</glyph>
<glyph name="parenleft" format="2">
  <advance width="262.1428571428571"/>
  <unicode hex="0028"/>
  <outline>
    <contour>
      <point x="224.0" y="-150.0" type="curve"/>
      <point x="248.03571428571428" y="-150.0" type="line"/>
      <point x="248.03571428571428" y="-147.0" type="line"/>
      <point x="167.42578221428573" y="-16.008860384110715"/>
      <point x="122.0" y="112.0"/>
      <point x="122.0" y="295.0" type="curve" smooth="yes"/>
      <point x="122.0" y="478.0"/>
      <point x="167.4125794150357" y="608.0029842070358"/>
      <point x="248.03571428571428" y="737.0" type="curve"/>
      <point x="248.03571428571428" y="740.0" type="line"/>
      <point x="224.0" y="740.0" type="line"/>
      <point x="105.64285714285714" y="607.1785714285714"/>
      <point x="48.92857142857143" y="460.0"/>
      <point x="48.92857142857143" y="295.0" type="curve" smooth="yes"/>
      <point x="48.92857142857143" y="130.0"/>
      <point x="105.64285714285714" y="-17.17857142857143"/>
    </contour>
  </outline>
</glyph>
<glyph name="parenright" format="2">
  <advance width="262.1428571428571"/>
  <unicode hex="0029"/>
  <outline>
    <contour>
      <point x="14.107142857142856" y="-150.0" type="line"/>
      <point x="38.14285714285714" y="-150.0" type="line"/>
      <point x="156.5" y="-17.17857142857143"/>
      <point x="213.21428571428572" y="130.0"/>
      <point x="213.21428571428572" y="295.0" type="curve" smooth="yes"/>
      <point x="213.21428571428572" y="460.0"/>
      <point x="156.5" y="607.1785714285714"/>
      <point x="38.14285714285714" y="740.0" type="curve"/>
      <point x="14.107142857142856" y="740.0" type="line"/>
      <point x="14.107142857142856" y="737.0" type="line"/>
      <point x="94.71428571428571" y="607.7857142857143"/>
      <point x="140.14285714285714" y="478.0"/>
      <point x="140.14285714285714" y="295.0" type="curve" smooth="yes"/>
      <point x="140.14285714285714" y="112.0"/>
      <point x="94.71428571428571" y="-15.785714285714286"/>
      <point x="14.107142857142856" y="-147.0" type="curve"/>
    </contour>
  </outline>
</glyph>
<glyph name="asterisk" format="2">
  <advance width="398.57142857142856"/>
  <unicode hex="002A"/>
  <outline>
    <contour>
      <point x="71.39285714285714" y="472.85714285714283" type="line"/>
      <point x="136.75" y="427.75" type="line"/>
      <point x="199.28571428571428" y="554.1785714285714" type="line"/>
      <point x="261.82142857142856" y="427.75" type="line"/>
      <point x="327.17857142857144" y="472.85714285714283" type="line"/>
      <point x="220.10714285714286" y="573.3928571428571" type="line"/>
      <point x="362.7142857142857" y="592.1071428571429" type="line"/>
      <point x="337.25" y="667.5" type="line"/>
      <point x="211.5" y="599.8214285714286" type="line"/>
      <point x="238.39285714285714" y="740.0" type="line"/>
      <point x="160.17857142857142" y="740.0" type="line"/>
      <point x="187.07142857142858" y="599.8214285714286" type="line"/>
      <point x="61.32142857142857" y="667.5" type="line"/>
      <point x="35.857142857142854" y="592.1071428571429" type="line"/>
      <point x="178.46428571428572" y="573.3928571428571" type="line"/>
    </contour>
  </outline>
</glyph>
<glyph name="plus" format="2">
  <advance width="560.7142857142857"/>
  <unicode hex="002B"/>
  <outline>
    <contour>
      <point x="70.35714285714286" y="244.57142857142858" type="line"/>
      <point x="490.35714285714283" y="244.57142857142858" type="line"/>
      <point x="490.35714285714283" y="299.42857142857144" type="line"/>
      <point x="70.35714285714286" y="299.42857142857144" type="line"/>
    </contour>
    <contour>
      <point x="251.32142857142856" y="62.0" type="line"/>
      <point x="309.3928571428571" y="62.0" type="line"/>
      <point x="309.3928571428571" y="482.0" type="line"/>
      <point x="251.32142857142856" y="482.0" type="line"/>
    </contour>
  </outline>
</glyph>
<glyph name="comma" format="2">
  <advance width="268.2142857142857"/>
  <unicode hex="002C"/>
  <outline>
    <contour>
      <point x="55.535714285714285" y="-212.89285714285714" type="line"/>
      <point x="177.60714285714286" y="-164.46428571428572"/>
      <point x="220.85714285714286" y="-85.89285714285714"/>
      <point x="220.85714285714286" y="-11.035714285714288" type="curve" smooth="yes"/>
      <point x="220.85714285714286" y="43.21428571428571"/>
      <point x="192.60714285714286" y="94.28571428571428"/>
      <point x="143.32142857142856" y="121.92857142857142" type="curve" smooth="yes"/>
      <point x="132.32142857142856" y="127.92857142857142"/>
      <point x="124.32142857142857" y="130.92857142857142"/>
      <point x="118.32142857142857" y="130.92857142857142" type="curve" smooth="yes"/>
      <point x="107.32142857142857" y="130.92857142857142"/>
      <point x="102.92857142857143" y="124.53571428571428"/>
      <point x="93.32142857142857" y="108.92857142857143" type="curve" smooth="yes"/>
      <point x="51.57142857142857" y="41.32142857142857" type="line"/>
      <point x="55.17857142857143" y="28.892857142857142" type="line"/>
      <point x="89.17857142857143" y="9.678571428571429" type="line" smooth="yes"/>
      <point x="119.14285714285714" y="-7.714285714285714"/>
      <point x="141.0" y="-33.14285714285714"/>
      <point x="141.0" y="-71.96428571428571" type="curve" smooth="yes"/>
      <point x="141.0" y="-107.89285714285714"/>
      <point x="120.64285714285714" y="-149.75"/>
      <point x="55.535714285714285" y="-182.17857142857142" type="curve"/>
    </contour>
  </outline>
</glyph>
<glyph name="hyphen" format="2">
  <advance width="368.92857142857144"/>
  <unicode hex="002D"/>
  <outline>
    <contour>
      <point x="46.964285714285715" y="222.0" type="line"/>
      <point x="321.9642857142857" y="222.0" type="line"/>
      <point x="321.9642857142857" y="292.0" type="line"/>
      <point x="46.964285714285715" y="292.0" type="line"/>
    </contour>
  </outline>
</glyph>
<glyph name="period" format="2">
  <advance width="268.2142857142857"/>
  <unicode hex="002E"/>
  <outline>
    <contour>
      <point x="134.10714285714286" y="-5.0" type="curve" smooth="yes"/>
      <point x="174.39285714285714" y="-5.0"/>
      <point x="208.46428571428572" y="29.07142857142857"/>
      <point x="208.46428571428572" y="69.35714285714286" type="curve" smooth="yes"/>
      <point x="208.46428571428572" y="109.64285714285714"/>
      <point x="174.39285714285714" y="143.71428571428572"/>
      <point x="134.10714285714286" y="143.71428571428572" type="curve" smooth="yes"/>
      <point x="93.82142857142857" y="143.71428571428572"/>
      <point x="59.75" y="109.64285714285714"/>
      <point x="59.75" y="69.35714285714286" type="curve" smooth="yes"/>
      <point x="59.75" y="29.07142857142857"/>
      <point x="93.82142857142857" y="-5.0"/>
    </contour>
  </outline>
</glyph>
<glyph name="slash" format="2">
  <advance width="250.0"/>
  <unicode hex="002F"/>
  <outline>
    <contour>
      <point x="0.0" y="-120.0" type="line"/>
      <point x="50.0" y="-120.0" type="line"/>
      <point x="250.0" y="750.0" type="line"/>
      <point x="200.0" y="750.0" type="line"/>
    </contour>
  </outline>
</glyph>
<glyph name="zero" format="2">
  <advance width="560.7142857142857"/>
  <unicode hex="0030"/>
  <outline>
    <contour>
      <point x="280.35714285714283" y="-10.0" type="curve" smooth="yes"/>
      <point x="426.17857142857144" y="-10.0"/>
      <point x="528.9285714285714" y="135.0"/>
      <point x="528.9285714285714" y="330.0" type="curve" smooth="yes"/>
      <point x="528.9285714285714" y="540.0"/>
      <point x="437.17857142857144" y="670.0"/>
      <point x="280.35714285714283" y="670.0" type="curve" smooth="yes"/>
      <point x="134.14285714285714" y="670.0"/>
      <point x="32.392857142857146" y="525.0"/>
      <point x="32.392857142857146" y="330.0" type="curve" smooth="yes"/>
      <point x="32.392857142857146" y="120.0"/>
      <point x="124.14285714285714" y="-10.0"/>
    </contour>
    <contour>
      <point x="297.10714285714283" y="38.82142857142857" type="curve" smooth="yes"/>
      <point x="217.71428571428572" y="38.82142857142857"/>
      <point x="188.14285714285714" y="185.28571428571428"/>
      <point x="188.14285714285714" y="363.0" type="curve" smooth="yes"/>
      <point x="188.14285714285714" y="520.2857142857143"/>
      <point x="213.57142857142856" y="621.5714285714286"/>
      <point x="267.0" y="621.5714285714286" type="curve" smooth="yes"/>
      <point x="344.60714285714283" y="621.5714285714286"/>
      <point x="373.17857142857144" y="475.7142857142857"/>
      <point x="373.17857142857144" y="299.0" type="curve" smooth="yes"/>
      <point x="373.17857142857144" y="147.39285714285714"/>
      <point x="348.5357142857143" y="38.82142857142857"/>
    </contour>
  </outline>
</glyph>
<glyph name="one" format="2">
  <advance width="560.7142857142857"/>
  <unicode hex="0031"/>
  <outline>
    <contour>
      <point x="147.53571428571428" y="0.0" type="line"/>
      <point x="474.17857142857144" y="0.0" type="line"/>
      <point x="474.17857142857144" y="16.0" type="line"/>
      <point x="388.7142857142857" y="51.14285714285714" type="line"/>
      <point x="388.7142857142857" y="660.0" type="line"/>
      <point x="326.2142857142857" y="660.0" type="line"/>
      <point x="77.10714285714286" y="510.0" type="line"/>
      <point x="77.10714285714286" y="469.5357142857143" type="line"/>
      <point x="243.0" y="544.7857142857143" type="line"/>
      <point x="243.0" y="51.14285714285714" type="line"/>
      <point x="147.53571428571428" y="16.0" type="line"/>
    </contour>
  </outline>
</glyph>
<glyph name="two" format="2">
  <advance width="560.7142857142857"/>
  <unicode hex="0032"/>
  <outline>
    <contour>
      <point x="52.0" y="0.0" type="line"/>
      <point x="512.7142857142857" y="0.0" type="line"/>
      <point x="522.7142857142857" y="211.78571428571428" type="line"/>
      <point x="506.7142857142857" y="211.78571428571428" type="line"/>
      <point x="448.82142857142856" y="112.35714285714286" type="line"/>
      <point x="155.92857142857142" y="112.35714285714286" type="line"/>
      <point x="126.67857142857143" y="64.10714285714286" type="line"/>
      <point x="446.2857142857143" y="332.2857142857143"/>
      <point x="499.2142857142857" y="383.25"/>
      <point x="499.2142857142857" y="493.0" type="curve" smooth="yes"/>
      <point x="499.2142857142857" y="591.8214285714286"/>
      <point x="416.32142857142856" y="670.0"/>
      <point x="295.8928571428571" y="670.0" type="curve" smooth="yes"/>
      <point x="213.03571428571428" y="670.0"/>
      <point x="171.17857142857142" y="646.6428571428571"/>
      <point x="118.57142857142857" y="609.0357142857143" type="curve" smooth="yes"/>
      <point x="63.214285714285715" y="569.3214285714286"/>
      <point x="41.0" y="530.1071428571429"/>
      <point x="41.0" y="490.85714285714283" type="curve" smooth="yes"/>
      <point x="41.0" y="453.85714285714283"/>
      <point x="54.0" y="448.85714285714283"/>
      <point x="81.0" y="448.85714285714283" type="curve" smooth="yes"/>
      <point x="149.46428571428572" y="448.85714285714283" type="line"/>
      <point x="156.28571428571428" y="457.67857142857144" type="line"/>
      <point x="156.28571428571428" y="505.10714285714283" type="line" smooth="yes"/>
      <point x="156.28571428571428" y="578.7142857142857"/>
      <point x="189.21428571428572" y="619.9642857142857"/>
      <point x="252.75" y="619.9642857142857" type="curve" smooth="yes"/>
      <point x="312.5357142857143" y="619.9642857142857"/>
      <point x="341.5" y="569.9642857142857"/>
      <point x="341.5" y="506.17857142857144" type="curve" smooth="yes"/>
      <point x="341.5" y="360.25"/>
      <point x="321.9642857142857" y="329.4642857142857"/>
      <point x="52.0" y="37.14285714285714" type="curve"/>
    </contour>
  </outline>
</glyph>
<glyph name="three" format="2">
  <advance width="560.7142857142857"/>
  <unicode hex="0033"/>
  <outline>
    <contour>
      <point x="267.07142857142856" y="-10.0" type="curve" smooth="yes"/>
      <point x="405.0" y="-10.0"/>
      <point x="527.3928571428571" y="69.71428571428571"/>
      <point x="527.3928571428571" y="182.28571428571428" type="curve" smooth="yes"/>
      <point x="527.3928571428571" y="305.82142857142856"/>
      <point x="418.8928571428571" y="364.2142857142857"/>
      <point x="235.71428571428572" y="364.2142857142857" type="curve"/>
      <point x="232.57142857142856" y="352.25" type="line"/>
      <point x="370.2142857142857" y="352.25"/>
      <point x="492.3928571428571" y="412.64285714285717"/>
      <point x="492.3928571428571" y="513.2142857142857" type="curve" smooth="yes"/>
      <point x="492.3928571428571" y="611.3214285714286"/>
      <point x="403.25" y="670.0"/>
      <point x="286.8928571428571" y="670.0" type="curve" smooth="yes"/>
      <point x="216.32142857142856" y="670.0"/>
      <point x="174.85714285714286" y="653.5714285714286"/>
      <point x="118.32142857142857" y="616.4642857142857" type="curve" smooth="yes"/>
      <point x="75.39285714285714" y="589.2857142857143"/>
      <point x="51.785714285714285" y="556.1428571428571"/>
      <point x="51.785714285714285" y="518.5" type="curve" smooth="yes"/>
      <point x="51.785714285714285" y="483.85714285714283"/>
      <point x="64.78571428571429" y="479.25"/>
      <point x="91.39285714285714" y="479.25" type="curve" smooth="yes"/>
      <point x="158.28571428571428" y="479.25" type="line"/>
      <point x="166.28571428571428" y="488.4642857142857" type="line"/>
      <point x="166.28571428571428" y="532.3571428571429" type="line"/>
      <point x="166.28571428571428" y="589.32980599675"/>
      <point x="203.25" y="622.5714285714286"/>
      <point x="250.32142857142856" y="622.5714285714286" type="curve" smooth="yes"/>
      <point x="304.57142857142856" y="622.5714285714286"/>
      <point x="334.67857142857144" y="587.1785714285714"/>
      <point x="334.67857142857144" y="509.25" type="curve" smooth="yes"/>
      <point x="334.67857142857144" y="428.75"/>
      <point x="288.75" y="366.0357142857143"/>
      <point x="208.92857142857142" y="366.0357142857143" type="curve"/>
      <point x="158.85714285714286" y="366.0357142857143" type="line"/>
      <point x="158.85714285714286" y="318.39285714285717" type="line"/>
      <point x="211.78571428571428" y="318.39285714285717" type="line" smooth="yes"/>
      <point x="326.4642857142857" y="318.39285714285717"/>
      <point x="368.67857142857144" y="266.25"/>
      <point x="368.67857142857144" y="172.0" type="curve" smooth="yes"/>
      <point x="368.67857142857144" y="94.03571428571428"/>
      <point x="330.0309766762857" y="38.035714285714285"/>
      <point x="255.10714285714286" y="38.035714285714285" type="curve" smooth="yes"/>
      <point x="191.35599078321428" y="38.035714285714285"/>
      <point x="151.75" y="64.50880626221429"/>
      <point x="151.75" y="118.67857142857143" type="curve" smooth="yes"/>
      <point x="151.75" y="153.5" type="line"/>
      <point x="142.32142857142856" y="164.14285714285714" type="line"/>
      <point x="75.67857142857143" y="164.14285714285714" type="line" smooth="yes"/>
      <point x="49.857142857142854" y="164.14285714285714"/>
      <point x="37.25" y="159.53571428571428"/>
      <point x="37.25" y="126.07142857142857" type="curve" smooth="yes"/>
      <point x="37.25" y="89.57142857142857"/>
      <point x="64.14285714285714" y="59.75"/>
      <point x="101.75" y="34.785714285714285" type="curve" smooth="yes"/>
      <point x="148.60714285714286" y="4.0"/>
      <point x="208.53571428571428" y="-10.0"/>
    </contour>
  </outline>
</glyph>
<glyph name="four" format="2">
  <advance width="560.7142857142857"/>
  <unicode hex="0034"/>
  <outline>
    <contour>
      <point x="188.75" y="0.0" type="line"/>
      <point x="515.3928571428571" y="0.0" type="line"/>
      <point x="515.3928571428571" y="16.0" type="line"/>
      <point x="429.92857142857144" y="51.14285714285714" type="line"/>
      <point x="429.92857142857144" y="660.0" type="line"/>
      <point x="367.42857142857144" y="660.0" type="line"/>
      <point x="15.285714285714285" y="204.5" type="line"/>
      <point x="15.285714285714285" y="174.78571428571428" type="line"/>
      <point x="548.9285714285714" y="174.78571428571428" type="line"/>
      <point x="548.9285714285714" y="253.92857142857142" type="line"/>
      <point x="84.35714285714286" y="253.92857142857142" type="line"/>
      <point x="90.42857142857142" y="223.07142857142858" type="line"/>
      <point x="329.75" y="541.8928571428571" type="line"/>
      <point x="284.2142857142857" y="541.8928571428571" type="line"/>
      <point x="284.2142857142857" y="51.14285714285714" type="line"/>
      <point x="188.75" y="16.0" type="line"/>
    </contour>
  </outline>
</glyph>
<glyph name="five" format="2">
  <advance width="560.7142857142857"/>
  <unicode hex="0035"/>
  <outline>
    <contour>
      <point x="229.21428571428572" y="-10.0" type="curve" smooth="yes"/>
      <point x="384.92078410296426" y="-10.0"/>
      <point x="498.92857142857144" y="89.85475194261805"/>
      <point x="498.92857142857144" y="223.89285714285714" type="curve" smooth="yes"/>
      <point x="498.92857142857144" y="345.6821259309411"/>
      <point x="410.25" y="437.25"/>
      <point x="220.32142857142856" y="437.25" type="curve" smooth="yes"/>
      <point x="181.5" y="437.25"/>
      <point x="155.03571428571428" y="435.0357142857143"/>
      <point x="131.03571428571428" y="433.0357142857143" type="curve"/>
      <point x="142.5" y="405.0357142857143" type="line"/>
      <point x="142.5" y="597.4642857142857" type="line"/>
      <point x="127.5" y="558.7142857142858" type="line"/>
      <point x="445.07142857142856" y="558.7142857142858" type="line"/>
      <point x="445.07142857142856" y="660.0" type="line"/>
      <point x="89.03571428571429" y="660.0" type="line"/>
      <point x="89.03571428571429" y="312.2142857142857" type="line"/>
      <point x="125.42857142857143" y="318.2142857142857"/>
      <point x="151.35714285714286" y="321.2142857142857"/>
      <point x="184.21428571428572" y="321.2142857142857" type="curve" smooth="yes"/>
      <point x="311.5" y="321.2142857142857"/>
      <point x="365.82142857142856" y="266.6940866508314"/>
      <point x="365.82142857142856" y="171.92857142857144" type="curve" smooth="yes"/>
      <point x="365.82142857142856" y="90.825792905625"/>
      <point x="320.0357142857143" y="35.964285714285715"/>
      <point x="255.64285714285714" y="35.964285714285715" type="curve" smooth="yes"/>
      <point x="203.3479437230357" y="35.964285714285715"/>
      <point x="176.04756127378573" y="64.33941570607857"/>
      <point x="152.89285714285714" y="111.82142857142857" type="curve" smooth="yes"/>
      <point x="141.67857142857142" y="134.89285714285714" type="line"/>
      <point x="128.03571428571428" y="134.89285714285714" type="line"/>
      <point x="76.03571428571429" y="95.14285714285714" type="line" smooth="yes"/>
      <point x="64.03571428571429" y="86.14285714285714"/>
      <point x="58.035714285714285" y="77.14285714285714"/>
      <point x="58.035714285714285" y="68.14285714285714" type="curve" smooth="yes"/>
      <point x="58.035714285714285" y="62.14285714285714"/>
      <point x="60.42857142857143" y="55.75"/>
      <point x="66.03571428571429" y="48.14285714285714" type="curve" smooth="yes"/>
      <point x="94.77700281405356" y="8.692342845247143"/>
      <point x="151.90029006535713" y="-10.0"/>
    </contour>
  </outline>
</glyph>
<glyph name="six" format="2">
  <advance width="560.7142857142857"/>
  <unicode hex="0036"/>
  <outline>
    <contour>
      <point x="282.92857142857144" y="-10.0" type="curve" smooth="yes"/>
      <point x="446.1428571428571" y="-10.0"/>
      <point x="529.2857142857142" y="91.57142857142857"/>
      <point x="529.2857142857142" y="205.10714285714286" type="curve" smooth="yes"/>
      <point x="529.2857142857142" y="311.4642857142857"/>
      <point x="462.7142857142857" y="394.07142857142856"/>
      <point x="350.85714285714283" y="394.07142857142856" type="curve" smooth="yes"/>
      <point x="248.07142857142856" y="394.07142857142856"/>
      <point x="178.28571428571428" y="333.82142857142856"/>
      <point x="155.28571428571428" y="235.82142857142856" type="curve"/>
      <point x="165.28571428571428" y="203.03571428571428" type="line"/>
      <point x="177.92340507635714" y="271.6929314575357"/>
      <point x="221.62812960225" y="319.7857142857143"/>
      <point x="282.10714285714283" y="319.7857142857143" type="curve" smooth="yes"/>
      <point x="347.1514285714286" y="319.7857142857143"/>
      <point x="376.57142857142856" y="261.1433673466786"/>
      <point x="376.57142857142856" y="177.64285714285714" type="curve" smooth="yes"/>
      <point x="376.57142857142856" y="115.89825282621429"/>
      <point x="351.9642857142857" y="38.42857142857143"/>
      <point x="287.35714285714283" y="38.42857142857143" type="curve" smooth="yes"/>
      <point x="225.21428571428572" y="38.42857142857143"/>
      <point x="190.28571428571428" y="113.57957068825"/>
      <point x="190.28571428571428" y="243.0" type="curve" smooth="yes"/>
      <point x="190.28571428571428" y="432.9357520785"/>
      <point x="280.0738458784643" y="578.6751810541072"/>
      <point x="463.10714285714283" y="634.9285714285714" type="curve"/>
      <point x="463.10714285714283" y="670.0" type="line"/>
      <point x="198.0616057782143" y="616.7654204328571"/>
      <point x="34.57142857142857" y="462.6162171162143"/>
      <point x="34.57142857142857" y="244.32142857142858" type="curve" smooth="yes"/>
      <point x="34.57142857142857" y="89.96385885033214"/>
      <point x="133.71428571428572" y="-10.0"/>
    </contour>
  </outline>
</glyph>
<glyph name="seven" format="2">
  <advance width="560.7142857142857"/>
  <unicode hex="0037"/>
  <outline>
    <contour>
      <point x="109.10714285714286" y="0.0" type="curve"/>
      <point x="249.64285714285714" y="0.0" type="line"/>
      <point x="291.8571428571429" y="205.57142857142856"/>
      <point x="406.85714285714283" y="435.9642857142857"/>
      <point x="503.2857142857143" y="621.7857142857143" type="curve"/>
      <point x="503.2857142857143" y="660.0" type="line"/>
      <point x="56.857142857142854" y="660.0" type="line"/>
      <point x="56.857142857142854" y="532.6071428571429" type="line"/>
      <point x="435.0" y="532.6071428571429" type="line"/>
      <point x="461.2142857142857" y="626.0" type="line"/>
      <point x="284.35714285714283" y="342.07142857142856"/>
      <point x="182.29779939139286" y="172.44921813503572"/>
    </contour>
  </outline>
</glyph>
<glyph name="nine" format="2">
  <advance width="560.7142857142857"/>
  <unicode hex="0039"/>
  <outline>
    <contour>
      <point x="98.0" y="-10.0" type="line"/>
      <point x="363.1428571428571" y="43.25"/>
      <point x="526.5357142857142" y="197.17857142857144"/>
      <point x="526.5357142857142" y="415.67857142857144" type="curve" smooth="yes"/>
      <point x="526.5357142857142" y="569.8571428571429"/>
      <point x="427.3928571428571" y="670.0"/>
      <point x="278.17857142857144" y="670.0" type="curve" smooth="yes"/>
      <point x="114.96428571428571" y="670.0"/>
      <point x="31.821428571428573" y="568.4285714285714"/>
      <point x="31.821428571428573" y="454.89285714285717" type="curve" smooth="yes"/>
      <point x="31.821428571428573" y="348.5357142857143"/>
      <point x="98.39285714285714" y="265.92857142857144"/>
      <point x="210.25" y="265.92857142857144" type="curve" smooth="yes"/>
      <point x="313.0357142857143" y="265.92857142857144"/>
      <point x="382.82142857142856" y="326.17857142857144"/>
      <point x="405.82142857142856" y="424.17857142857144" type="curve"/>
      <point x="395.82142857142856" y="456.9642857142857" type="line"/>
      <point x="383.17857142857144" y="388.2857142857143"/>
      <point x="339.17857142857144" y="340.2142857142857"/>
      <point x="279.0" y="340.2142857142857" type="curve" smooth="yes"/>
      <point x="213.78571428571428" y="340.2142857142857"/>
      <point x="184.53571428571428" y="399.1428571428571"/>
      <point x="184.53571428571428" y="482.35714285714283" type="curve" smooth="yes"/>
      <point x="184.53571428571428" y="543.8571428571429"/>
      <point x="209.14285714285714" y="621.5714285714286"/>
      <point x="273.75" y="621.5714285714286" type="curve" smooth="yes"/>
      <point x="335.89285714285717" y="621.5714285714286"/>
      <point x="370.82142857142856" y="546.5714285714286"/>
      <point x="370.82142857142856" y="417.0" type="curve" smooth="yes"/>
      <point x="370.82142857142856" y="227.0"/>
      <point x="280.7857142857143" y="81.25"/>
      <point x="98.0" y="25.07142857142857" type="curve"/>
    </contour>
  </outline>
</glyph>
<glyph name="less" format="2">
  <advance width="560.7142857142857"/>
  <unicode hex="003C"/>
  <outline>
    <contour>
      <point x="490.35714285714283" y="62.0" type="line"/>
      <point x="490.35714285714283" y="123.07142857142857" type="line"/>
      <point x="100.35714285714286" y="295.07142857142856" type="line"/>
      <point x="100.35714285714286" y="248.92857142857144" type="line"/>
      <point x="490.35714285714283" y="420.92857142857144" type="line"/>
      <point x="490.35714285714283" y="482.0" type="line"/>
      <point x="70.35714285714286" y="297.0" type="line"/>
      <point x="70.35714285714286" y="247.0" type="line"/>
    </contour>
  </outline>
</glyph>
<glyph name="equal" format="2">
  <advance width="560.7142857142857"/>
  <unicode hex="003D"/>
  <outline>
    <contour>
      <point x="70.35714285714286" y="346.57142857142856" type="line"/>
      <point x="490.35714285714283" y="346.57142857142856" type="line"/>
      <point x="490.35714285714283" y="401.42857142857144" type="line"/>
      <point x="70.35714285714286" y="401.42857142857144" type="line"/>
    </contour>
    <contour>
      <point x="70.35714285714286" y="142.57142857142858" type="line"/>
      <point x="490.35714285714283" y="142.57142857142858" type="line"/>
      <point x="490.35714285714283" y="197.42857142857142" type="line"/>
      <point x="70.35714285714286" y="197.42857142857142" type="line"/>
    </contour>
  </outline>
</glyph>
<glyph name="greater" format="2">
  <advance width="560.7142857142857"/>
  <unicode hex="003E"/>
  <outline>
    <contour>
      <point x="70.35714285714286" y="62.0" type="line"/>
      <point x="490.35714285714283" y="247.0" type="line"/>
      <point x="490.35714285714283" y="297.0" type="line"/>
      <point x="70.35714285714286" y="482.0" type="line"/>
      <point x="70.35714285714286" y="420.92857142857144" type="line"/>
      <point x="460.35714285714283" y="248.92857142857144" type="line"/>
      <point x="460.35714285714283" y="295.07142857142856" type="line"/>
      <point x="70.35714285714286" y="123.07142857142857" type="line"/>
    </contour>
  </outline>
</glyph>
<glyph name="question" format="2">
  <advance width="479.0"/>
  <unicode hex="003F"/>
  <outline>
    <contour>
      <point x="195.14285714285714" y="218.21428571428572" type="line"/>
      <point x="226.67857142857142" y="218.21428571428572" type="line"/>
      <point x="245.71428571428572" y="332.85714285714283" type="line"/>
      <point x="215.0" y="289.82142857142856" type="line"/>
      <point x="365.39262460835715" y="316.57142547075"/>
      <point x="443.64285714285717" y="393.66128419446426"/>
      <point x="443.64285714285717" y="493.0" type="curve" smooth="yes"/>
      <point x="443.64285714285717" y="597.9738095236071"/>
      <point x="367.9285714287143" y="670.0"/>
      <point x="246.60714285714286" y="670.0" type="curve" smooth="yes"/>
      <point x="182.23086734667856" y="670.0"/>
      <point x="139.03164645214287" y="649.5526227323214"/>
      <point x="91.28571428571429" y="614.0357142857143" type="curve" smooth="yes"/>
      <point x="52.10714285714286" y="584.8214285714286"/>
      <point x="29.464285714285715" y="551.2857142857143"/>
      <point x="29.464285714285715" y="511.0357142857143" type="curve" smooth="yes"/>
      <point x="29.464285714285715" y="477.25"/>
      <point x="40.25" y="472.85714285714283"/>
      <point x="62.60714285714286" y="472.85714285714283" type="curve" smooth="yes"/>
      <point x="136.39285714285714" y="472.85714285714283" type="line"/>
      <point x="146.21428571428572" y="484.67857142857144" type="line"/>
      <point x="146.21428571428572" y="519.2142857142857" type="line" smooth="yes"/>
      <point x="146.21428571428572" y="590.8214285714286"/>
      <point x="180.64285714285714" y="627.4285714285714"/>
      <point x="230.57142857142858" y="627.4285714285714" type="curve" smooth="yes"/>
      <point x="283.64285714285717" y="627.4285714285714"/>
      <point x="322.5" y="588.4910714285714"/>
      <point x="322.5" y="512.8571428571429" type="curve" smooth="yes"/>
      <point x="322.5" y="442.27185501064287"/>
      <point x="269.9583649190714" y="394.5711642499643"/>
      <point x="163.07142857142858" y="377.7857142857143" type="curve"/>
    </contour>
    <contour>
      <point x="209.39285714285714" y="-5.0" type="curve" smooth="yes"/>
      <point x="249.28571428571428" y="-5.0"/>
      <point x="283.75" y="29.464285714285715"/>
      <point x="283.75" y="69.35714285714286" type="curve" smooth="yes"/>
      <point x="283.75" y="109.64285714285714"/>
      <point x="249.28571428571428" y="143.71428571428572"/>
      <point x="209.39285714285714" y="143.71428571428572" type="curve" smooth="yes"/>
      <point x="169.10714285714286" y="143.71428571428572"/>
      <point x="135.03571428571428" y="109.64285714285714"/>
      <point x="135.03571428571428" y="69.35714285714286" type="curve" smooth="yes"/>
      <point x="135.03571428571428" y="29.464285714285715"/>
      <point x="169.10714285714286" y="-5.0"/>
    </contour>
  </outline>
</glyph>
<glyph name="at" format="2">
  <advance width="807.5357142857143"/>
  <unicode hex="0040"/>
  <outline>
    <contour>
      <point x="369.5357142857143" y="-118.0" type="curve" smooth="yes"/>
      <point x="473.39285714285717" y="-118.0"/>
      <point x="545.3571428571429" y="-93.21428571428571"/>
      <point x="615.3571428571429" y="-49.214285714285715" type="curve"/>
      <point x="604.5357142857143" y="-27.0" type="line"/>
      <point x="547.3571428571429" y="-65.35714285714286"/>
      <point x="483.5357142857143" y="-85.53571428571429"/>
      <point x="396.5357142857143" y="-85.53571428571429" type="curve" smooth="yes"/>
      <point x="240.39285714285714" y="-85.53571428571429"/>
      <point x="132.03571428571428" y="14.642857142857142"/>
      <point x="132.03571428571428" y="186.0" type="curve" smooth="yes"/>
      <point x="132.03571428571428" y="377.57142857142856"/>
      <point x="251.39285714285714" y="531.75"/>
      <point x="435.5357142857143" y="531.75" type="curve" smooth="yes"/>
      <point x="595.9642857142857" y="531.75"/>
      <point x="700.1785714285714" y="421.57142857142856"/>
      <point x="700.1785714285714" y="281.0" type="curve" smooth="yes"/>
      <point x="700.1785714285714" y="173.92857142857142"/>
      <point x="641.3214285714286" y="71.14285714285714"/>
      <point x="576.0" y="71.14285714285714" type="curve" smooth="yes"/>
      <point x="549.4642857142857" y="71.14285714285714"/>
      <point x="543.6428571428571" y="85.14285714285714"/>
      <point x="552.2142857142857" y="133.0" type="curve" smooth="yes"/>
      <point x="604.0" y="423.5357142857143" type="line"/>
      <point x="585.6785714285714" y="423.5357142857143" type="line"/>
      <point x="520.6428571428571" y="398.7857142857143" type="line"/>
      <point x="553.7857142857143" y="396.4642857142857" type="line"/>
      <point x="536.3928571428571" y="416.25"/>
      <point x="504.2857142857143" y="429.0"/>
      <point x="465.5357142857143" y="429.0" type="curve" smooth="yes"/>
      <point x="345.5" y="429.0"/>
      <point x="215.17857142857142" y="296.75"/>
      <point x="215.17857142857142" y="132.5" type="curve" smooth="yes"/>
      <point x="215.17857142857142" y="60.392857142857146"/>
      <point x="249.57142857142858" y="21.0"/>
      <point x="296.17857142857144" y="21.0" type="curve" smooth="yes"/>
      <point x="352.0" y="21.0"/>
      <point x="394.64285714285717" y="53.07142857142857"/>
      <point x="450.89285714285717" y="136.96428571428572" type="curve"/>
      <point x="459.0357142857143" y="179.92857142857142" type="line"/>
      <point x="427.57142857142856" y="130.46428571428572"/>
      <point x="395.82142857142856" y="99.64285714285714"/>
      <point x="366.92857142857144" y="99.64285714285714" type="curve" smooth="yes"/>
      <point x="340.07142857142856" y="99.64285714285714"/>
      <point x="330.10714285714283" y="120.42857142857142"/>
      <point x="330.10714285714283" y="178.64285714285714" type="curve" smooth="yes"/>
      <point x="330.10714285714283" y="291.9642857142857"/>
      <point x="375.7857142857143" y="389.5357142857143"/>
      <point x="435.07142857142856" y="389.5357142857143" type="curve" smooth="yes"/>
      <point x="460.5" y="389.5357142857143"/>
      <point x="475.4642857142857" y="377.4642857142857"/>
      <point x="489.17857142857144" y="360.0" type="curve"/>
      <point x="484.14285714285717" y="375.5" type="line"/>
      <point x="443.0" y="137.35714285714286" type="line" smooth="yes"/>
      <point x="429.35714285714283" y="59.32142857142857"/>
      <point x="457.85714285714283" y="21.0"/>
      <point x="520.5357142857143" y="21.0" type="curve" smooth="yes"/>
      <point x="660.0714285714286" y="21.0"/>
      <point x="749.6785714285714" y="151.67857142857142"/>
      <point x="749.6785714285714" y="284.0" type="curve" smooth="yes"/>
      <point x="749.6785714285714" y="445.0"/>
      <point x="636.8214285714286" y="562.0"/>
      <point x="457.5357142857143" y="562.0" type="curve" smooth="yes"/>
      <point x="235.89285714285714" y="562.0"/>
      <point x="57.85714285714286" y="381.60714285714283"/>
      <point x="57.85714285714286" y="168.21428571428572" type="curve" smooth="yes"/>
      <point x="57.85714285714286" y="-4.392857142857143"/>
      <point x="184.28571428571428" y="-118.0"/>
    </contour>
  </outline>
</glyph>
<glyph name="A" format="2">
  <advance width="774.2857142857142"/>
  <unicode hex="0041"/>
  <anchor x="353.5357142857143" y="0.0" name="bottom"/>
  <anchor x="385.7142857142857" y="710.0" name="top"/>
  <anchor x="635.8571428571429" y="0.0" name="right"/>
  <outline>
    <contour>
      <point x="19.035714285714285" y="0.0" type="line"/>
      <point x="235.64285714285714" y="0.0" type="line"/>
      <point x="235.64285714285714" y="16.0" type="line"/>
      <point x="135.60714285714286" y="59.25" type="line"/>
      <point x="142.64285714285714" y="28.0" type="line"/>
      <point x="362.92857142857144" y="562.5714285714286" type="line"/>
      <point x="315.57142857142856" y="562.5714285714286" type="line"/>
      <point x="536.25" y="28.0" type="line"/>
      <point x="548.25" y="61.035714285714285" type="line"/>
      <point x="439.25" y="16.0" type="line"/>
      <point x="439.25" y="0.0" type="line"/>
      <point x="755.25" y="0.0" type="line"/>
      <point x="755.25" y="16.0" type="line"/>
      <point x="656.1428571428571" y="67.53571428571428" type="line"/>
      <point x="697.0357142857142" y="28.0" type="line"/>
      <point x="428.9642857142857" y="665.0" type="line"/>
      <point x="341.4642857142857" y="665.0" type="line"/>
      <point x="70.39285714285714" y="28.0" type="line"/>
      <point x="100.17857142857143" y="61.60714285714286" type="line"/>
      <point x="19.035714285714285" y="16.0" type="line"/>
    </contour>
    <contour>
      <point x="188.21428571428572" y="218.0" type="line"/>
      <point x="550.7142857142857" y="218.0" type="line"/>
      <point x="550.7142857142857" y="273.0" type="line"/>
      <point x="188.21428571428572" y="273.0" type="line"/>
    </contour>
  </outline>
</glyph>
<glyph name="B" format="2">
  <advance width="705.9642857142857"/>
  <unicode hex="0042"/>
  <outline>
    <contour>
      <point x="43.75" y="0.0" type="line"/>
      <point x="279.92857142857144" y="0.0" type="line"/>
      <point x="279.92857142857144" y="660.0" type="line"/>
      <point x="43.75" y="660.0" type="line"/>
      <point x="43.75" y="644.0" type="line"/>
      <point x="129.21428571428572" y="602.7857142857143" type="line"/>
      <point x="129.21428571428572" y="57.214285714285715" type="line"/>
      <point x="43.75" y="16.0" type="line"/>
    </contour>
    <contour>
      <point x="387.75" y="0.0" type="line" smooth="yes"/>
      <point x="551.8928571428571" y="0.0"/>
      <point x="673.3928571428571" y="82.0"/>
      <point x="673.3928571428571" y="192.0" type="curve" smooth="yes"/>
      <point x="673.3928571428571" y="298.0"/>
      <point x="561.0357142857142" y="363.0"/>
      <point x="383.0357142857143" y="363.0" type="curve"/>
      <point x="379.8928571428571" y="348.0" type="line"/>
      <point x="527.8571428571429" y="348.0"/>
      <point x="613.9642857142857" y="426.0"/>
      <point x="613.9642857142857" y="512.0" type="curve" smooth="yes"/>
      <point x="613.9642857142857" y="611.0"/>
      <point x="506.8571428571429" y="660.0"/>
      <point x="363.5357142857143" y="660.0" type="curve" smooth="yes"/>
      <point x="209.32142857142856" y="660.0" type="line"/>
      <point x="209.32142857142856" y="605.0" type="line"/>
      <point x="314.42857142857144" y="605.0" type="line" smooth="yes"/>
      <point x="412.1428571428571" y="605.0"/>
      <point x="460.5" y="562.1785714285714"/>
      <point x="460.5" y="481.57142857142856" type="curve" smooth="yes"/>
      <point x="460.5" y="409.7857142857143"/>
      <point x="408.1428571428571" y="364.9642857142857"/>
      <point x="319.82142857142856" y="364.9642857142857" type="curve" smooth="yes"/>
      <point x="212.46428571428572" y="364.9642857142857" type="line"/>
      <point x="212.46428571428572" y="316.0357142857143" type="line"/>
      <point x="349.3928571428571" y="316.0357142857143" type="line" smooth="yes"/>
      <point x="454.5" y="316.0357142857143"/>
      <point x="513.25" y="274.60714285714283"/>
      <point x="513.25" y="187.03571428571428" type="curve" smooth="yes"/>
      <point x="513.25" y="110.42857142857143"/>
      <point x="453.5" y="55.0"/>
      <point x="356.3928571428571" y="55.0" type="curve" smooth="yes"/>
      <point x="220.32142857142856" y="55.0" type="line"/>
      <point x="220.32142857142856" y="0.0" type="line"/>
    </contour>
  </outline>
</glyph>
<glyph name="D" format="2">
  <advance width="802.3214285714286"/>
  <unicode hex="0044"/>
  <anchor x="391.0357142857143" y="710.0" name="top"/>
  <anchor x="403.17857142857144" y="0.0" name="bottom"/>
  <outline>
    <contour>
      <point x="43.75" y="0.0" type="line"/>
      <point x="279.92857142857144" y="0.0" type="line"/>
      <point x="279.92857142857144" y="660.0" type="line"/>
      <point x="43.75" y="660.0" type="line"/>
      <point x="43.75" y="644.0" type="line"/>
      <point x="129.21428571428572" y="602.7857142857143" type="line"/>
      <point x="129.21428571428572" y="57.214285714285715" type="line"/>
      <point x="43.75" y="16.0" type="line"/>
    </contour>
    <contour>
      <point x="377.7142857142857" y="0.0" type="line" smooth="yes"/>
      <point x="596.5" y="0.0"/>
      <point x="756.6071428571429" y="152.0"/>
      <point x="756.6071428571429" y="360.0" type="curve" smooth="yes"/>
      <point x="756.6071428571429" y="532.0"/>
      <point x="621.5" y="660.0"/>
      <point x="384.7142857142857" y="660.0" type="curve" smooth="yes"/>
      <point x="226.92857142857142" y="660.0" type="line"/>
      <point x="226.92857142857142" y="605.0" type="line"/>
      <point x="343.5" y="605.0" type="line" smooth="yes"/>
      <point x="512.8214285714286" y="605.0"/>
      <point x="600.2857142857143" y="497.2142857142857"/>
      <point x="600.2857142857143" y="329.0" type="curve" smooth="yes"/>
      <point x="600.2857142857143" y="162.0"/>
      <point x="512.8214285714286" y="55.0"/>
      <point x="358.5" y="55.0" type="curve" smooth="yes"/>
      <point x="254.92857142857142" y="55.0" type="line"/>
      <point x="254.92857142857142" y="0.0" type="line"/>
    </contour>
  </outline>
</glyph>
<glyph name="E" format="2">
  <advance width="681.1428571428571"/>
  <unicode hex="0045"/>
  <anchor x="353.82142857142856" y="710.0" name="top"/>
  <anchor x="359.7142857142857" y="0.0" name="bottom"/>
  <anchor x="543.8571428571429" y="0.0" name="right"/>
  <outline>
    <contour>
      <point x="43.75" y="0.0" type="line"/>
      <point x="279.92857142857144" y="0.0" type="line"/>
      <point x="279.92857142857144" y="660.0" type="line"/>
      <point x="43.75" y="660.0" type="line"/>
      <point x="43.75" y="644.0" type="line"/>
      <point x="129.21428571428572" y="602.7857142857143" type="line"/>
      <point x="129.21428571428572" y="57.214285714285715" type="line"/>
      <point x="43.75" y="16.0" type="line"/>
    </contour>
    <contour>
      <point x="573.2142857142857" y="486.7857142857143" type="line"/>
      <point x="589.2142857142857" y="486.7857142857143" type="line"/>
      <point x="589.2142857142857" y="660.0" type="line"/>
      <point x="197.17857142857142" y="660.0" type="line"/>
      <point x="197.17857142857142" y="605.0" type="line"/>
      <point x="499.07142857142856" y="605.0" type="line"/>
    </contour>
    <contour>
      <point x="490.2142857142857" y="228.96428571428572" type="line"/>
      <point x="506.2142857142857" y="228.96428571428572" type="line"/>
      <point x="506.2142857142857" y="454.0357142857143" type="line"/>
      <point x="490.2142857142857" y="454.0357142857143" type="line"/>
      <point x="434.1428571428571" y="368.0" type="line"/>
      <point x="205.17857142857142" y="368.0" type="line"/>
      <point x="205.17857142857142" y="313.0" type="line"/>
      <point x="434.1428571428571" y="313.0" type="line"/>
    </contour>
    <contour>
      <point x="617.2142857142857" y="0.0" type="line"/>
      <point x="617.2142857142857" y="204.46428571428572" type="line"/>
      <point x="601.2142857142857" y="204.46428571428572" type="line"/>
      <point x="522.8214285714286" y="55.0" type="line"/>
      <point x="225.17857142857144" y="55.0" type="line"/>
      <point x="225.17857142857144" y="0.0" type="line"/>
    </contour>
  </outline>
</glyph>
<glyph name="F" format="2">
  <advance width="631.0"/>
  <unicode hex="0046"/>
  <outline>
    <contour>
      <point x="43.75" y="0.0" type="line"/>
      <point x="382.07142857142856" y="0.0" type="line"/>
      <point x="382.07142857142856" y="16.0" type="line"/>
      <point x="279.92857142857144" y="57.214285714285715" type="line"/>
      <point x="279.92857142857144" y="660.0" type="line"/>
      <point x="43.75" y="660.0" type="line"/>
      <point x="43.75" y="644.0" type="line"/>
      <point x="129.21428571428572" y="602.7857142857143" type="line"/>
      <point x="129.21428571428572" y="57.214285714285715" type="line"/>
      <point x="43.75" y="16.0" type="line"/>
    </contour>
    <contour>
      <point x="563.2142857142857" y="486.7857142857143" type="line"/>
      <point x="579.2142857142857" y="486.7857142857143" type="line"/>
      <point x="579.2142857142857" y="660.0" type="line"/>
      <point x="193.25" y="660.0" type="line"/>
      <point x="193.25" y="605.0" type="line"/>
      <point x="495.1428571428571" y="605.0" type="line"/>
    </contour>
    <contour>
      <point x="480.2142857142857" y="232.0" type="line"/>
      <point x="496.2142857142857" y="232.0" type="line"/>
      <point x="496.2142857142857" y="451.0" type="line"/>
      <point x="480.2142857142857" y="451.0" type="line"/>
      <point x="424.14285714285717" y="364.9642857142857" type="line"/>
      <point x="201.25" y="364.9642857142857" type="line"/>
      <point x="201.25" y="316.0357142857143" type="line"/>
      <point x="424.14285714285717" y="316.0357142857143" type="line"/>
    </contour>
  </outline>
</glyph>
<glyph name="G" format="2">
  <advance width="756.4642857142857"/>
  <unicode hex="0047"/>
  <anchor x="403.64285714285717" y="710.0" name="top"/>
  <anchor x="408.92857142857144" y="0.0" name="bottom"/>
  <outline>
    <contour>
      <point x="395.10714285714283" y="-10.0" type="curve" smooth="yes"/>
      <point x="481.10714285714283" y="-10.0"/>
      <point x="590.4285714285714" y="23.0"/>
      <point x="651.4285714285714" y="74.0" type="curve"/>
      <point x="651.4285714285714" y="235.85714285714286" type="line"/>
      <point x="726.5" y="284.32142857142856" type="line"/>
      <point x="726.5" y="300.32142857142856" type="line"/>
      <point x="411.7142857142857" y="300.32142857142856" type="line"/>
      <point x="411.7142857142857" y="284.32142857142856" type="line"/>
      <point x="500.7142857142857" y="237.03571428571428" type="line"/>
      <point x="500.7142857142857" y="37.32142857142857" type="line"/>
      <point x="580.1071428571429" y="78.96428571428571" type="line"/>
      <point x="531.1785714285714" y="53.39285714285714"/>
      <point x="470.42857142857144" y="44.964285714285715"/>
      <point x="424.10714285714283" y="44.964285714285715" type="curve" smooth="yes"/>
      <point x="302.4642857142857" y="44.964285714285715"/>
      <point x="205.75" y="154.91036137771428"/>
      <point x="205.75" y="334.07142857142856" type="curve" smooth="yes"/>
      <point x="205.75" y="505.94955044975"/>
      <point x="305.82142857142856" y="621.2142857142857"/>
      <point x="431.2857142857143" y="621.2142857142857" type="curve" smooth="yes"/>
      <point x="481.60714285714283" y="621.2142857142857"/>
      <point x="514.0" y="610.0714285714286"/>
      <point x="560.9285714285714" y="577.6785714285714" type="curve"/>
      <point x="528.3928571428571" y="609.5357142857143" type="line"/>
      <point x="636.5" y="446.07142857142856" type="line"/>
      <point x="654.3214285714286" y="446.07142857142856" type="line"/>
      <point x="643.25" y="622.0" type="line"/>
      <point x="585.6428571428571" y="650.0"/>
      <point x="533.4285714285714" y="670.0"/>
      <point x="426.60714285714283" y="670.0" type="curve" smooth="yes"/>
      <point x="226.35714285714286" y="670.0"/>
      <point x="49.964285714285715" y="521.25"/>
      <point x="49.964285714285715" y="316.25" type="curve" smooth="yes"/>
      <point x="49.964285714285715" y="130.25"/>
      <point x="203.10714285714286" y="-10.0"/>
    </contour>
  </outline>
</glyph>
<glyph name="H" format="2">
  <advance width="835.5"/>
  <unicode hex="0048"/>
  <anchor x="417.75" y="710.0" name="top"/>
  <anchor x="417.75" y="0.0" name="bottom"/>
  <outline>
    <contour>
      <point x="43.75" y="0.0" type="line"/>
      <point x="358.10714285714283" y="0.0" type="line"/>
      <point x="358.10714285714283" y="16.0" type="line"/>
      <point x="279.92857142857144" y="57.214285714285715" type="line"/>
      <point x="279.92857142857144" y="602.7857142857143" type="line"/>
      <point x="358.10714285714283" y="644.0" type="line"/>
      <point x="358.10714285714283" y="660.0" type="line"/>
      <point x="43.75" y="660.0" type="line"/>
      <point x="43.75" y="644.0" type="line"/>
      <point x="129.21428571428572" y="602.7857142857143" type="line"/>
      <point x="129.21428571428572" y="57.214285714285715" type="line"/>
      <point x="43.75" y="16.0" type="line"/>
    </contour>
    <contour>
      <point x="205.17857142857142" y="312.39285714285717" type="line"/>
      <point x="635.1785714285714" y="312.39285714285717" type="line"/>
      <point x="635.1785714285714" y="367.39285714285717" type="line"/>
      <point x="205.17857142857142" y="367.39285714285717" type="line"/>
    </contour>
    <contour>
      <point x="477.39285714285717" y="0.0" type="line"/>
      <point x="791.75" y="0.0" type="line"/>
      <point x="791.75" y="16.0" type="line"/>
      <point x="707.5" y="57.214285714285715" type="line"/>
      <point x="707.5" y="602.7857142857143" type="line"/>
      <point x="791.75" y="644.0" type="line"/>
      <point x="791.75" y="660.0" type="line"/>
      <point x="477.39285714285717" y="660.0" type="line"/>
      <point x="477.39285714285717" y="644.0" type="line"/>
      <point x="556.7857142857143" y="602.7857142857143" type="line"/>
      <point x="556.7857142857143" y="57.214285714285715" type="line"/>
      <point x="477.39285714285717" y="16.0" type="line"/>
    </contour>
  </outline>
</glyph>
<glyph name="I" format="2">
  <advance width="413.07142857142856"/>
  <unicode hex="0049"/>
  <anchor x="206.53571428571428" y="710.0" name="top"/>
  <anchor x="206.53571428571428" y="0.0" name="bottom"/>
  <anchor x="229.60714285714286" y="0.0" name="right"/>
  <outline>
    <contour>
      <point x="45.714285714285715" y="0.0" type="line"/>
      <point x="367.3571428571429" y="0.0" type="line"/>
      <point x="367.3571428571429" y="16.0" type="line"/>
      <point x="281.8928571428571" y="57.214285714285715" type="line"/>
      <point x="281.8928571428571" y="602.7857142857143" type="line"/>
      <point x="367.3571428571429" y="644.0" type="line"/>
      <point x="367.3571428571429" y="660.0" type="line"/>
      <point x="45.714285714285715" y="660.0" type="line"/>
      <point x="45.714285714285715" y="644.0" type="line"/>
      <point x="131.17857142857144" y="602.7857142857143" type="line"/>
      <point x="131.17857142857144" y="57.214285714285715" type="line"/>
      <point x="45.714285714285715" y="16.0" type="line"/>
    </contour>
  </outline>
</glyph>
<glyph name="J" format="2">
  <advance width="431.8928571428571"/>
  <unicode hex="004A"/>
  <anchor x="225.35714285714283" y="710.0" name="top"/>
  <outline>
    <contour>
      <point x="58.14285714285714" y="-173.0" type="curve" smooth="yes"/>
      <point x="102.02574750817857" y="-173.0"/>
      <point x="137.0" y="-142.96428571428572"/>
      <point x="184.07142857142856" y="-89.28571428571429" type="curve" smooth="yes"/>
      <point x="234.78571428571428" y="-30.750000000000004"/>
      <point x="300.71428571428567" y="91.45195415059999"/>
      <point x="300.71428571428567" y="245.46428571428572" type="curve" smooth="yes"/>
      <point x="300.71428571428567" y="602.7857142857143" type="line"/>
      <point x="386.17857142857144" y="644.0" type="line"/>
      <point x="386.17857142857144" y="660.0" type="line"/>
      <point x="64.53571428571429" y="660.0" type="line"/>
      <point x="64.53571428571429" y="644.0" type="line"/>
      <point x="150.0" y="602.7857142857143" type="line"/>
      <point x="150.0" y="49.785714285714285" type="line" smooth="yes"/>
      <point x="150.0" y="-62.964285714285715"/>
      <point x="127.25" y="-77.53571428571429"/>
      <point x="90.92857142857143" y="-77.53571428571429" type="curve" smooth="yes"/>
      <point x="75.96428571428571" y="-77.53571428571429"/>
      <point x="67.17857142857143" y="-75.14285714285714"/>
      <point x="47.82142857142857" y="-69.75" type="curve"/>
      <point x="39.39285714285714" y="-69.75" type="line"/>
      <point x="30.607142857142854" y="-109.85714285714286"/>
      <point x="26.357142857142854" y="-132.28571428571428"/>
      <point x="26.357142857142854" y="-144.39285714285714" type="curve" smooth="yes"/>
      <point x="26.357142857142854" y="-164.78571428571428"/>
      <point x="39.32142857142857" y="-173.0"/>
    </contour>
  </outline>
</glyph>
<glyph name="L" format="2">
  <advance width="649.0"/>
  <unicode hex="004C"/>
  <anchor x="358.85714285714283" y="0.0" name="bottom"/>
  <anchor x="204.57142857142856" y="710.0" name="top"/>
  <anchor x="502.32142857142856" y="660.0" name="right"/>
  <anchor x="520.3571428571429" y="351.85714285714283" name="mid"/>
  <outline>
    <contour>
      <point x="43.75" y="0.0" type="line"/>
      <point x="597.2142857142857" y="0.0" type="line"/>
      <point x="597.2142857142857" y="244.46428571428572" type="line"/>
      <point x="581.2142857142857" y="244.46428571428572" type="line"/>
      <point x="499.85714285714283" y="55.0" type="line"/>
      <point x="279.92857142857144" y="55.0" type="line"/>
      <point x="279.92857142857144" y="602.7857142857143" type="line"/>
      <point x="375.3928571428571" y="644.0" type="line"/>
      <point x="375.3928571428571" y="660.0" type="line"/>
      <point x="43.75" y="660.0" type="line"/>
      <point x="43.75" y="644.0" type="line"/>
      <point x="129.21428571428572" y="602.7857142857143" type="line"/>
      <point x="129.21428571428572" y="57.214285714285715" type="line"/>
      <point x="43.75" y="16.0" type="line"/>
    </contour>
  </outline>
</glyph>
<glyph name="M" format="2">
  <advance width="995.4285714285714"/>
  <unicode hex="004D"/>
  <anchor x="465.32142857142856" y="0.0" name="bottom"/>
  <outline>
    <contour>
      <point x="41.78571428571429" y="0.0" type="line"/>
      <point x="281.39285714285717" y="0.0" type="line"/>
      <point x="281.39285714285717" y="16.0" type="line"/>
      <point x="194.32142857142858" y="56.214285714285715" type="line"/>
      <point x="210.32142857142858" y="642.0" type="line"/>
      <point x="148.85714285714286" y="642.0" type="line"/>
      <point x="126.85714285714286" y="57.214285714285715" type="line"/>
      <point x="41.78571428571429" y="16.0" type="line"/>
    </contour>
    <contour>
      <point x="436.85714285714283" y="-5.0" type="line"/>
      <point x="493.39285714285717" y="-5.0" type="line"/>
      <point x="749.1428571428571" y="595.7857142857143" type="line"/>
      <point x="814.0" y="595.7857142857143" type="line"/>
      <point x="947.6071428571429" y="644.0" type="line"/>
      <point x="947.6071428571429" y="660.0" type="line"/>
      <point x="707.8571428571429" y="660.0" type="line"/>
      <point x="487.4642857142857" y="142.64285714285714" type="line"/>
      <point x="531.6071428571429" y="142.64285714285714" type="line"/>
      <point x="307.57142857142856" y="660.0" type="line"/>
      <point x="60.035714285714285" y="660.0" type="line"/>
      <point x="60.035714285714285" y="644.0" type="line"/>
      <point x="163.28571428571428" y="595.7857142857143" type="line"/>
      <point x="178.46428571428572" y="595.7857142857143" type="line"/>
    </contour>
    <contour>
      <point x="650.7857142857143" y="0.0" type="line"/>
      <point x="953.6428571428571" y="0.0" type="line"/>
      <point x="953.6428571428571" y="16.0" type="line"/>
      <point x="877.5714285714286" y="57.214285714285715" type="line"/>
      <point x="859.5714285714286" y="642.0" type="line"/>
      <point x="718.8571428571429" y="642.0" type="line"/>
      <point x="730.8571428571429" y="56.214285714285715" type="line"/>
      <point x="650.7857142857143" y="16.0" type="line"/>
    </contour>
  </outline>
</glyph>
<glyph name="N" format="2">
  <advance width="816.0"/>
  <unicode hex="004E"/>
  <anchor x="413.0357142857143" y="710.0" name="top"/>
  <anchor x="416.35714285714283" y="0.0" name="bottom"/>
  <outline>
    <contour>
      <point x="41.785714285714285" y="0.0" type="line"/>
      <point x="311.2142857142857" y="0.0" type="line"/>
      <point x="311.2142857142857" y="16.0" type="line"/>
      <point x="197.25" y="56.82142857142857" type="line"/>
      <point x="197.25" y="519.7142857142858" type="line"/>
      <point x="159.42857142857142" y="519.7142857142858" type="line"/>
      <point x="627.8571428571429" y="-5.0" type="line"/>
      <point x="690.3571428571429" y="-5.0" type="line"/>
      <point x="690.3571428571429" y="603.1785714285714" type="line"/>
      <point x="774.2142857142857" y="644.0" type="line"/>
      <point x="774.2142857142857" y="660.0" type="line"/>
      <point x="506.39285714285717" y="660.0" type="line"/>
      <point x="506.39285714285717" y="644.0" type="line"/>
      <point x="620.3571428571429" y="603.5714285714286" type="line"/>
      <point x="620.3571428571429" y="152.82142857142856" type="line"/>
      <point x="680.7142857142857" y="152.82142857142856" type="line"/>
      <point x="231.67857142857142" y="660.0" type="line"/>
      <point x="42.17857142857143" y="660.0" type="line"/>
      <point x="42.17857142857143" y="644.0" type="line"/>
      <point x="127.25" y="602.0" type="line"/>
      <point x="127.25" y="57.214285714285715" type="line"/>
      <point x="41.785714285714285" y="16.0" type="line"/>
    </contour>
  </outline>
</glyph>
<glyph name="P" format="2">
  <advance width="683.5357142857142"/>
  <unicode hex="0050"/>
  <outline>
    <contour>
      <point x="43.75" y="0.0" type="line"/>
      <point x="382.07142857142856" y="0.0" type="line"/>
      <point x="382.07142857142856" y="16.0" type="line"/>
      <point x="279.92857142857144" y="57.214285714285715" type="line"/>
      <point x="279.92857142857144" y="605.0" type="line"/>
      <point x="321.5" y="605.0" type="line" smooth="yes"/>
      <point x="434.5" y="605.0"/>
      <point x="497.5" y="566.0"/>
      <point x="497.5" y="473.0" type="curve" smooth="yes"/>
      <point x="497.5" y="398.0"/>
      <point x="433.5" y="342.9642857142857"/>
      <point x="328.5" y="342.9642857142857" type="curve" smooth="yes"/>
      <point x="254.92857142857142" y="342.9642857142857" type="line"/>
      <point x="254.92857142857142" y="294.0357142857143" type="line"/>
      <point x="365.9642857142857" y="294.0357142857143" type="line" smooth="yes"/>
      <point x="528.9642857142857" y="294.0357142857143"/>
      <point x="650.9642857142857" y="369.57142857142856"/>
      <point x="650.9642857142857" y="482.2142857142857" type="curve" smooth="yes"/>
      <point x="650.9642857142857" y="606.2142857142857"/>
      <point x="546.9642857142857" y="660.0"/>
      <point x="389.9642857142857" y="660.0" type="curve" smooth="yes"/>
      <point x="43.75" y="660.0" type="line"/>
      <point x="43.75" y="644.0" type="line"/>
      <point x="129.21428571428572" y="602.7857142857143" type="line"/>
      <point x="129.21428571428572" y="57.214285714285715" type="line"/>
      <point x="43.75" y="16.0" type="line"/>
    </contour>
  </outline>
</glyph>
<glyph name="Q" format="2">
  <advance width="788.7857142857143"/>
  <unicode hex="0051"/>
  <outline>
    <contour>
      <point x="393.89285714285717" y="-10.0" type="curve" smooth="yes"/>
      <point x="592.5714285714286" y="-10.0"/>
      <point x="740.0357142857143" y="134.0"/>
      <point x="740.0357142857143" y="330.0" type="curve" smooth="yes"/>
      <point x="740.0357142857143" y="526.0"/>
      <point x="592.5714285714286" y="670.0"/>
      <point x="393.89285714285717" y="670.0" type="curve" smooth="yes"/>
      <point x="196.21428571428572" y="670.0"/>
      <point x="48.75" y="526.0"/>
      <point x="48.75" y="330.0" type="curve" smooth="yes"/>
      <point x="48.75" y="134.0"/>
      <point x="196.21428571428572" y="-10.0"/>
    </contour>
    <contour>
      <point x="410.0357142857143" y="41.82142857142857" type="curve" smooth="yes"/>
      <point x="298.0" y="41.82142857142857"/>
      <point x="208.28571428571428" y="168.60714285714286"/>
      <point x="208.28571428571428" y="361.7857142857143" type="curve" smooth="yes"/>
      <point x="208.28571428571428" y="519.1785714285714"/>
      <point x="281.07142857142856" y="619.1785714285714"/>
      <point x="380.5357142857143" y="619.1785714285714" type="curve" smooth="yes"/>
      <point x="492.7857142857143" y="619.1785714285714"/>
      <point x="580.5" y="493.39285714285717"/>
      <point x="580.5" y="300.2142857142857" type="curve" smooth="yes"/>
      <point x="580.5" y="142.82142857142856"/>
      <point x="511.32142857142856" y="41.82142857142857"/>
    </contour>
    <contour>
      <point x="686.25" y="-155.07142857142858" type="curve" smooth="yes"/>
      <point x="742.1785714283571" y="-155.07142857142858"/>
      <point x="782.4324244863928" y="-142.97597241575"/>
      <point x="812.4642857142857" y="-128.07142857142858" type="curve"/>
      <point x="812.4642857142857" y="-104.78571428571429" type="line"/>
      <point x="797.4642857142857" y="-109.17857142857143"/>
      <point x="776.4642857142857" y="-114.39285714285714"/>
      <point x="746.0357142857142" y="-114.39285714285714" type="curve" smooth="yes"/>
      <point x="685.75" y="-114.39285714285714"/>
      <point x="616.3214285714286" y="-84.82142857142857"/>
      <point x="499.3928571428571" y="16.0" type="curve"/>
      <point x="314.2142857142857" y="16.0" type="line"/>
      <point x="481.91393644507144" y="-120.29793778107143"/>
      <point x="586.9893917962142" y="-155.07142857142858"/>
    </contour>
  </outline>
</glyph>
<glyph name="R" format="2">
  <advance width="727.1785714285714"/>
  <unicode hex="0052"/>
  <anchor x="341.2857142857143" y="710.0" name="top"/>
  <anchor x="404.0357142857143" y="0.0" name="bottom"/>
  <outline>
    <contour>
      <point x="43.75" y="0.0" type="line"/>
      <point x="354.92857142857144" y="0.0" type="line"/>
      <point x="354.92857142857144" y="16.0" type="line"/>
      <point x="279.92857142857144" y="58.214285714285715" type="line"/>
      <point x="279.92857142857144" y="660.0" type="line"/>
      <point x="43.75" y="660.0" type="line"/>
      <point x="43.75" y="644.0" type="line"/>
      <point x="129.21428571428572" y="602.7857142857143" type="line"/>
      <point x="129.21428571428572" y="57.214285714285715" type="line"/>
      <point x="43.75" y="16.0" type="line"/>
    </contour>
    <contour>
      <point x="612.1428571428571" y="497.0" type="curve" smooth="yes"/>
      <point x="612.1428571428571" y="598.0"/>
      <point x="526.1428571428571" y="660.0"/>
      <point x="386.1428571428571" y="660.0" type="curve" smooth="yes"/>
      <point x="226.92857142857142" y="660.0" type="line"/>
      <point x="226.92857142857142" y="605.0" type="line"/>
      <point x="320.0357142857143" y="605.0" type="line" smooth="yes"/>
      <point x="411.60714285714283" y="605.0"/>
      <point x="460.5" y="559.8897783248929"/>
      <point x="460.5" y="480.9642857142857" type="curve" smooth="yes"/>
      <point x="460.5" y="406.1328217235"/>
      <point x="407.60714285714283" y="354.9642857142857"/>
      <point x="326.0357142857143" y="354.9642857142857" type="curve"/>
      <point x="234.92857142857142" y="354.9642857142857" type="line"/>
      <point x="234.92857142857142" y="306.0357142857143" type="line"/>
      <point x="372.4642857142857" y="306.0357142857143" type="line"/>
      <point x="382.17857142857144" y="316.25" type="line"/>
      <point x="514.0714285714286" y="334.92857142857144"/>
      <point x="612.1428571428571" y="396.75"/>
    </contour>
    <contour>
      <point x="518.3571428571429" y="0.0" type="line"/>
      <point x="735.2142857142857" y="0.0" type="line"/>
      <point x="735.2142857142857" y="16.0" type="line"/>
      <point x="663.1428571428571" y="56.25" type="line"/>
      <point x="468.7857142857143" y="353.14285714285717" type="line"/>
      <point x="314.32142857142856" y="337.9642857142857" type="line"/>
    </contour>
  </outline>
</glyph>
<glyph name="S" format="2">
  <advance width="572.2857142857142"/>
  <unicode hex="0053"/>
  <anchor x="299.92857142857144" y="710.0" name="top"/>
  <anchor x="287.17857142857144" y="0.0" name="bottom"/>
  <outline>
    <contour>
      <point x="271.2857142857143" y="-10.0" type="curve" smooth="yes"/>
      <point x="397.8928571428571" y="-10.0"/>
      <point x="523.9642857142857" y="64.71428571428571"/>
      <point x="523.9642857142857" y="193.96428571428572" type="curve" smooth="yes"/>
      <point x="523.9642857142857" y="290.3907142857143"/>
      <point x="468.34711289567855" y="340.34744861307144"/>
      <point x="346.9642857142857" y="395.60714285714283" type="curve" smooth="yes"/>
      <point x="250.11137063517856" y="439.9771264003929"/>
      <point x="215.32142857142856" y="467.95967741917855"/>
      <point x="215.32142857142856" y="523.4642857142857" type="curve" smooth="yes"/>
      <point x="215.32142857142856" y="579.9571428569643"/>
      <point x="254.89285714285714" y="617.75"/>
      <point x="309.6428571428571" y="617.75" type="curve" smooth="yes"/>
      <point x="357.0357142857143" y="617.75"/>
      <point x="389.25" y="599.9285714285714"/>
      <point x="431.75" y="564.7857142857143" type="curve"/>
      <point x="399.7857142857143" y="603.9285714285714" type="line"/>
      <point x="485.75" y="464.35714285714283" type="line"/>
      <point x="502.9642857142857" y="464.35714285714283" type="line"/>
      <point x="492.9642857142857" y="624.3571428571429" type="line"/>
      <point x="439.802645008" y="653.3044339503215"/>
      <point x="376.0" y="670.0"/>
      <point x="307.92857142857144" y="670.0" type="curve" smooth="yes"/>
      <point x="188.71428571428572" y="670.0"/>
      <point x="68.25" y="576.3928571428571"/>
      <point x="68.25" y="467.57142857142856" type="curve" smooth="yes"/>
      <point x="68.25" y="381.4927768861786"/>
      <point x="120.77610173914286" y="329.0167281583572"/>
      <point x="215.25" y="286.92857142857144" type="curve" smooth="yes"/>
      <point x="340.43333169007144" y="231.34273962732144"/>
      <point x="380.89285714285717" y="210.42983789239287"/>
      <point x="380.89285714285717" y="142.28571428571428" type="curve" smooth="yes"/>
      <point x="380.89285714285717" y="75.4811396469"/>
      <point x="330.85714285714283" y="41.25"/>
      <point x="258.5357142857143" y="41.25" type="curve" smooth="yes"/>
      <point x="210.14285714285714" y="41.25"/>
      <point x="162.53571428571428" y="62.07142857142857"/>
      <point x="125.32142857142857" y="96.53571428571428" type="curve"/>
      <point x="151.71428571428572" y="59.64285714285714" type="line"/>
      <point x="65.07142857142857" y="210.32142857142856" type="line"/>
      <point x="47.25" y="210.32142857142856" type="line"/>
      <point x="57.25" y="40.857142857142854" type="line"/>
      <point x="120.46428571428572" y="8.642857142857142"/>
      <point x="183.21428571428572" y="-10.0"/>
    </contour>
  </outline>
</glyph>
<glyph name="T" format="2">
  <advance width="700.7142857142857"/>
  <unicode hex="0054"/>
  <anchor x="350.35714285714283" y="710.0" name="top"/>
  <anchor x="350.35714285714283" y="0.0" name="bottom"/>
  <outline>
    <contour>
      <point x="168.92857142857144" y="0.0" type="line"/>
      <point x="531.7857142857142" y="0.0" type="line"/>
      <point x="531.7857142857142" y="16.0" type="line"/>
      <point x="425.7142857142857" y="57.214285714285715" type="line"/>
      <point x="425.7142857142857" y="605.0" type="line"/>
      <point x="568.6785714285714" y="605.0" type="line"/>
      <point x="648.8214285714286" y="440.39285714285717" type="line"/>
      <point x="664.8214285714286" y="440.39285714285717" type="line"/>
      <point x="664.8214285714286" y="660.0" type="line"/>
      <point x="35.892857142857146" y="660.0" type="line"/>
      <point x="35.892857142857146" y="440.39285714285717" type="line"/>
      <point x="51.892857142857146" y="440.39285714285717" type="line"/>
      <point x="132.03571428571428" y="605.0" type="line"/>
      <point x="275.0" y="605.0" type="line"/>
      <point x="275.0" y="57.214285714285715" type="line"/>
      <point x="168.92857142857144" y="16.0" type="line"/>
    </contour>
  </outline>
</glyph>
<glyph name="U" format="2">
  <advance width="837.5357142857142"/>
  <unicode hex="0055"/>
  <anchor x="456.2857142857143" y="710.0" name="top"/>
  <anchor x="442.07142857142856" y="0.0" name="bottom"/>
  <anchor x="460.14285714285717" y="0.0" name="right"/>
  <outline>
    <contour>
      <point x="423.2142857142857" y="-10.0" type="curve" smooth="yes"/>
      <point x="592.7053571428571" y="-10.0"/>
      <point x="708.1071428571429" y="67.57142857142857"/>
      <point x="708.1071428571429" y="283.92857142857144" type="curve" smooth="yes"/>
      <point x="708.1071428571429" y="603.7857142857143" type="line"/>
      <point x="793.7857142857142" y="644.0" type="line"/>
      <point x="793.7857142857142" y="660.0" type="line"/>
      <point x="544.1785714285714" y="660.0" type="line"/>
      <point x="544.1785714285714" y="644.0" type="line"/>
      <point x="638.1071428571429" y="604.7857142857143" type="line"/>
      <point x="638.1071428571429" y="247.53571428571428" type="line" smooth="yes"/>
      <point x="638.1071428571429" y="114.96428571428571"/>
      <point x="559.6785714285714" y="65.0"/>
      <point x="471.67857142857144" y="65.0" type="curve" smooth="yes"/>
      <point x="365.92857142857144" y="65.0"/>
      <point x="280.5357142857143" y="118.35714285714286"/>
      <point x="280.5357142857143" y="282.5357142857143" type="curve" smooth="yes"/>
      <point x="280.5357142857143" y="602.7857142857143" type="line"/>
      <point x="366.6071428571429" y="644.0" type="line"/>
      <point x="366.6071428571429" y="660.0" type="line"/>
      <point x="43.75" y="660.0" type="line"/>
      <point x="43.75" y="644.0" type="line"/>
      <point x="129.82142857142858" y="602.7857142857143" type="line"/>
      <point x="129.82142857142858" y="283.92857142857144" type="line" smooth="yes"/>
      <point x="129.82142857142858" y="67.57142857142857"/>
      <point x="249.18344155860714" y="-10.0"/>
    </contour>
  </outline>
</glyph>
<glyph name="V" format="2">
  <advance width="764.2857142857142"/>
  <unicode hex="0056"/>
  <outline>
    <contour>
      <point x="356.0" y="-5.0" type="line"/>
      <point x="414.07142857142856" y="-5.0" type="line"/>
      <point x="694.8571428571429" y="632.0" type="line"/>
      <point x="661.1428571428571" y="598.3214285714286" type="line"/>
      <point x="743.8571428571429" y="644.0" type="line"/>
      <point x="743.8571428571429" y="660.0" type="line"/>
      <point x="529.6071428571429" y="660.0" type="line"/>
      <point x="529.6071428571429" y="644.0" type="line"/>
      <point x="623.75" y="600.2857142857143" type="line"/>
      <point x="618.2857142857143" y="621.7857142857143" type="line"/>
      <point x="410.6428571428571" y="140.89285714285714" type="line"/>
      <point x="456.5357142857143" y="195.60714285714286" type="line"/>
      <point x="405.4642857142857" y="195.60714285714286" type="line"/>
      <point x="451.35714285714283" y="140.89285714285714" type="line"/>
      <point x="243.32142857142856" y="620.2142857142857" type="line"/>
      <point x="236.03571428571428" y="599.1071428571429" type="line"/>
      <point x="331.1428571428571" y="644.0" type="line"/>
      <point x="331.1428571428571" y="660.0" type="line"/>
      <point x="19.214285714285715" y="660.0" type="line"/>
      <point x="19.214285714285715" y="644.0" type="line"/>
      <point x="128.21428571428572" y="583.75" type="line"/>
      <point x="78.21428571428572" y="632.0" type="line"/>
    </contour>
  </outline>
</glyph>
<glyph name="W" format="2">
  <advance width="1041.7142857142858"/>
  <unicode hex="0057"/>
  <anchor x="566.7142857142857" y="710.0" name="top"/>
  <outline>
    <contour>
      <point x="280.67857142857144" y="-5.0" type="line"/>
      <point x="338.75" y="-5.0" type="line"/>
      <point x="550.25" y="502.92857142857144" type="line"/>
      <point x="499.5357142857143" y="439.4642857142857" type="line"/>
      <point x="552.4285714285714" y="439.4642857142857" type="line"/>
      <point x="504.14285714285717" y="502.92857142857144" type="line"/>
      <point x="708.9642857142857" y="-5.0" type="line"/>
      <point x="767.0357142857142" y="-5.0" type="line"/>
      <point x="969.75" y="632.0" type="line"/>
      <point x="934.8928571428571" y="594.3928571428571" type="line"/>
      <point x="1029.75" y="644.0" type="line"/>
      <point x="1029.75" y="660.0" type="line"/>
      <point x="804.5" y="660.0" type="line"/>
      <point x="804.5" y="644.0" type="line"/>
      <point x="914.1071428571429" y="594.3928571428571" type="line"/>
      <point x="897.5" y="632.0" type="line"/>
      <point x="752.2857142857143" y="149.03571428571428" type="line"/>
      <point x="797.0357142857142" y="221.35714285714286" type="line"/>
      <point x="746.5714285714286" y="221.35714285714286" type="line"/>
      <point x="796.5357142857142" y="149.03571428571428" type="line"/>
      <point x="595.6428571428571" y="665.0" type="line"/>
      <point x="536.7857142857143" y="665.0" type="line"/>
      <point x="334.25" y="147.5" type="line"/>
      <point x="388.25" y="221.35714285714283" type="line"/>
      <point x="334.1428571428571" y="221.35714285714283" type="line"/>
      <point x="379.85714285714283" y="147.5" type="line"/>
      <point x="234.67857142857144" y="632.0" type="line"/>
      <point x="207.67857142857142" y="590.1785714285714" type="line"/>
      <point x="326.67857142857144" y="644.0" type="line"/>
      <point x="326.67857142857144" y="660.0" type="line"/>
      <point x="11.964285714285715" y="660.0" type="line"/>
      <point x="11.964285714285715" y="644.0" type="line"/>
      <point x="120.96428571428571" y="586.5357142857143" type="line"/>
      <point x="79.96428571428571" y="632.0" type="line"/>
    </contour>
  </outline>
</glyph>
<glyph name="X" format="2">
  <advance width="780.0714285714286"/>
  <unicode hex="0058"/>
  <outline>
    <contour>
      <point x="419.0357142857143" y="0.0" type="line"/>
      <point x="754.1785714285714" y="0.0" type="line"/>
      <point x="754.1785714285714" y="16.0" type="line"/>
      <point x="642.75" y="79.03571428571428" type="line"/>
      <point x="709.5357142857142" y="19.035714285714285" type="line"/>
      <point x="289.2142857142857" y="599.5714285714286" type="line"/>
      <point x="289.2142857142857" y="604.5714285714286" type="line"/>
      <point x="368.0" y="644.0" type="line"/>
      <point x="368.0" y="660.0" type="line"/>
      <point x="37.85714285714286" y="660.0" type="line"/>
      <point x="37.85714285714286" y="644.0" type="line"/>
      <point x="149.28571428571428" y="580.9642857142857" type="line"/>
      <point x="86.28571428571429" y="632.0" type="line"/>
      <point x="491.42857142857144" y="57.82142857142857" type="line"/>
      <point x="491.42857142857144" y="53.82142857142857" type="line"/>
      <point x="419.0357142857143" y="16.0" type="line"/>
    </contour>
    <contour>
      <point x="25.892857142857146" y="0.0" type="line"/>
      <point x="266.07142857142856" y="0.0" type="line"/>
      <point x="266.07142857142856" y="16.0" type="line"/>
      <point x="185.67857142857142" y="55.035714285714285" type="line"/>
      <point x="187.5" y="59.035714285714285" type="line"/>
      <point x="391.0" y="313.0" type="line"/>
      <point x="345.89285714285717" y="352.0" type="line"/>
      <point x="86.21428571428571" y="32.5" type="line"/>
      <point x="131.75" y="69.21428571428571" type="line"/>
      <point x="25.892857142857146" y="16.0" type="line"/>
    </contour>
    <contour>
      <point x="731.6071428571429" y="660.0" type="line"/>
      <point x="496.7142857142857" y="660.0" type="line"/>
      <point x="496.7142857142857" y="644.0" type="line"/>
      <point x="575.1428571428571" y="603.9642857142857" type="line"/>
      <point x="575.1428571428571" y="599.9642857142857" type="line"/>
      <point x="393.92857142857144" y="372.39285714285717" type="line"/>
      <point x="431.7857142857143" y="327.0" type="line"/>
      <point x="682.75" y="630.7857142857143" type="line"/>
      <point x="622.6785714285714" y="587.2857142857143" type="line"/>
      <point x="731.6071428571429" y="644.0" type="line"/>
    </contour>
  </outline>
</glyph>
<glyph name="Y" format="2">
  <advance width="754.4285714285714"/>
  <unicode hex="0059"/>
  <anchor x="381.2142857142857" y="0.0" name="bottom"/>
  <anchor x="415.2857142857143" y="710.0" name="top"/>
  <outline>
    <contour>
      <point x="216.46428571428572" y="0.0" type="line"/>
      <point x="545.9642857142857" y="0.0" type="line"/>
      <point x="545.9642857142857" y="16.0" type="line"/>
      <point x="456.57142857142856" y="57.214285714285715" type="line"/>
      <point x="456.57142857142856" y="345.35714285714283" type="line"/>
      <point x="425.9642857142857" y="264.7857142857143" type="line"/>
      <point x="682.5714285714286" y="632.0" type="line"/>
      <point x="625.9285714285714" y="590.2857142857143" type="line"/>
      <point x="734.6071428571429" y="644.0" type="line"/>
      <point x="734.6071428571429" y="660.0" type="line"/>
      <point x="506.82142857142856" y="660.0" type="line"/>
      <point x="506.82142857142856" y="644.0" type="line"/>
      <point x="584.0714285714286" y="604.9642857142857" type="line"/>
      <point x="584.0714285714286" y="600.9642857142857" type="line"/>
      <point x="414.5" y="347.2142857142857" type="line"/>
      <point x="442.9642857142857" y="347.2142857142857" type="line"/>
      <point x="253.78571428571428" y="602.5714285714286" type="line"/>
      <point x="253.78571428571428" y="606.5714285714286" type="line"/>
      <point x="329.2142857142857" y="644.0" type="line"/>
      <point x="329.2142857142857" y="660.0" type="line"/>
      <point x="19.821428571428573" y="660.0" type="line"/>
      <point x="19.821428571428573" y="644.0" type="line"/>
      <point x="117.85714285714286" y="588.3571428571429" type="line"/>
      <point x="67.85714285714286" y="632.0" type="line"/>
      <point x="336.85714285714283" y="266.0" type="line"/>
      <point x="305.85714285714283" y="345.35714285714283" type="line"/>
      <point x="305.85714285714283" y="57.214285714285715" type="line"/>
      <point x="216.46428571428572" y="16.0" type="line"/>
    </contour>
  </outline>
</glyph>
<glyph name="Z" format="2">
  <advance width="700.6428571428571"/>
  <unicode hex="005A"/>
  <anchor x="354.85714285714283" y="710.0" name="top"/>
  <anchor x="354.85714285714283" y="0.0" name="bottom"/>
  <outline>
    <contour>
      <point x="83.92857142857143" y="0.0" type="line"/>
      <point x="616.7142857142857" y="0.0" type="line"/>
      <point x="616.7142857142857" y="214.46428571428572" type="line"/>
      <point x="600.7142857142857" y="214.46428571428572" type="line"/>
      <point x="522.3214285714286" y="55.0" type="line"/>
      <point x="238.4642857142857" y="55.0" type="line"/>
      <point x="238.4642857142857" y="12.928571428571429" type="line"/>
      <point x="605.7142857142857" y="627.7142857142857" type="line"/>
      <point x="605.7142857142857" y="660.0" type="line"/>
      <point x="95.92857142857143" y="660.0" type="line"/>
      <point x="95.92857142857143" y="455.5357142857143" type="line"/>
      <point x="111.92857142857143" y="455.5357142857143" type="line"/>
      <point x="186.07142857142856" y="605.0" type="line"/>
      <point x="445.92857142857144" y="605.0" type="line"/>
      <point x="445.92857142857144" y="639.7857142857143" type="line"/>
      <point x="83.92857142857143" y="32.285714285714285" type="line"/>
    </contour>
  </outline>
</glyph>
<glyph name="bracketleft" format="2">
  <advance width="262.1428571428571"/>
  <unicode hex="005B"/>
  <outline>
    <contour>
      <point x="58.92857142857143" y="-150.0" type="line"/>
      <point x="129.0" y="-150.0" type="line"/>
      <point x="129.0" y="740.0" type="line"/>
      <point x="58.92857142857143" y="740.0" type="line"/>
    </contour>
    <contour>
      <point x="60.92857142857143" y="740.0" type="line"/>
      <point x="60.92857142857143" y="713.9642857142857" type="line"/>
      <point x="245.0" y="713.9642857142857" type="line"/>
      <point x="245.0" y="740.0" type="line"/>
    </contour>
    <contour>
      <point x="60.92857142857143" y="-150.0" type="line"/>
      <point x="245.0" y="-150.0" type="line"/>
      <point x="245.0" y="-123.96428571428572" type="line"/>
      <point x="60.92857142857143" y="-123.96428571428572" type="line"/>
    </contour>
  </outline>
</glyph>
<glyph name="bracketright" format="2">
  <advance width="262.1428571428571"/>
  <unicode hex="005D"/>
  <outline>
    <contour>
      <point x="133.14285714285714" y="-150.0" type="line"/>
      <point x="203.21428571428572" y="-150.0" type="line"/>
      <point x="203.21428571428572" y="740.0" type="line"/>
      <point x="133.14285714285714" y="740.0" type="line"/>
    </contour>
    <contour>
      <point x="17.142857142857142" y="740.0" type="line"/>
      <point x="17.142857142857142" y="713.9642857142857" type="line"/>
      <point x="201.21428571428572" y="713.9642857142857" type="line"/>
      <point x="201.21428571428572" y="740.0" type="line"/>
    </contour>
    <contour>
      <point x="17.142857142857142" y="-150.0" type="line"/>
      <point x="201.21428571428572" y="-150.0" type="line"/>
      <point x="201.21428571428572" y="-123.96428571428572" type="line"/>
      <point x="17.142857142857142" y="-123.96428571428572" type="line"/>
    </contour>
  </outline>
</glyph>
<glyph name="asciicircum" format="2">
  <advance width="560.7142857142857"/>
  <unicode hex="005E"/>
  <outline>
    <contour>
      <point x="70.35714285714286" y="250.0" type="line"/>
      <point x="131.42857142857142" y="250.0" type="line"/>
      <point x="303.42857142857144" y="640.0" type="line"/>
      <point x="257.2857142857143" y="640.0" type="line"/>
      <point x="429.2857142857143" y="250.0" type="line"/>
      <point x="490.35714285714283" y="250.0" type="line"/>
      <point x="305.35714285714283" y="670.0" type="line"/>
      <point x="255.35714285714286" y="670.0" type="line"/>
    </contour>
  </outline>
</glyph>
<glyph name="a" format="2">
  <advance width="514.5"/>
  <unicode hex="0061"/>
  <anchor x="245.03571428571428" y="510.0" name="top"/>
  <anchor x="436.60714285714283" y="0.0" name="right"/>
  <anchor x="243.67857142857142" y="0.0" name="bottom"/>
  <outline>
    <contour>
      <point x="151.14285714285714" y="-9.392857142857142" type="curve" smooth="yes"/>
      <point x="208.96428571428572" y="-9.392857142857142"/>
      <point x="255.67857142857142" y="20.25"/>
      <point x="289.4642857142857" y="58.5" type="curve"/>
      <point x="308.67857142857144" y="58.5" type="line"/>
      <point x="308.67857142857144" y="91.5" type="line"/>
      <point x="279.32142857142856" y="78.21428571428572"/>
      <point x="257.6428571428571" y="71.42857142857143"/>
      <point x="232.17857142857142" y="71.42857142857143" type="curve" smooth="yes"/>
      <point x="190.85714285714283" y="71.42857142857143"/>
      <point x="165.67857142857144" y="92.42857142857142"/>
      <point x="165.67857142857144" y="134.03571428571428" type="curve" smooth="yes"/>
      <point x="165.67857142857144" y="187.5"/>
      <point x="194.39285714285714" y="213.39285714285714"/>
      <point x="321.4642857142857" y="235.67857142857142" type="curve"/>
      <point x="321.4642857142857" y="278.35714285714283" type="line"/>
      <point x="195.07142857142858" y="246.53571428571428" type="line" smooth="yes"/>
      <point x="68.53571428571429" y="214.67857142857142"/>
      <point x="34.25" y="177.82142857142856"/>
      <point x="33.642857142857146" y="105.53571428571428" type="curve" smooth="yes"/>
      <point x="32.42857142857143" y="32.035714285714285"/>
      <point x="86.32142857142857" y="-9.392857142857142"/>
    </contour>
    <contour>
      <point x="404.42857142857144" y="-10.0" type="curve" smooth="yes"/>
      <point x="459.75" y="-10.0"/>
      <point x="494.7857142857143" y="16.0"/>
      <point x="510.17857142857144" y="40.75" type="curve"/>
      <point x="510.17857142857144" y="54.67857142857143" type="line"/>
      <point x="506.57142857142856" y="57.89285714285714" type="line"/>
      <point x="478.2857142857143" y="57.89285714285714" type="line" smooth="yes"/>
      <point x="454.9642857142857" y="57.89285714285714"/>
      <point x="439.7857142857143" y="64.28571428571428"/>
      <point x="430.17857142857144" y="73.67857142857143" type="curve"/>
      <point x="430.17857142857144" y="338.25" type="line" smooth="yes"/>
      <point x="430.17857142857144" y="428.32142857142856"/>
      <point x="348.07142857142856" y="466.07142857142856"/>
      <point x="249.75" y="466.07142857142856" type="curve" smooth="yes"/>
      <point x="200.71428571428572" y="466.07142857142856"/>
      <point x="161.53571428571428" y="452.92857142857144"/>
      <point x="114.21428571428571" y="423.4642857142857" type="curve" smooth="yes"/>
      <point x="74.57142857142857" y="399.25"/>
      <point x="50.285714285714285" y="369.89285714285717"/>
      <point x="50.285714285714285" y="340.89285714285717" type="curve" smooth="yes"/>
      <point x="50.285714285714285" y="317.5"/>
      <point x="56.892857142857146" y="309.85714285714283"/>
      <point x="76.89285714285714" y="309.85714285714283" type="curve" smooth="yes"/>
      <point x="143.46428571428572" y="309.85714285714283" type="line"/>
      <point x="147.25" y="314.25" type="line"/>
      <point x="147.25" y="360.4642857142857" type="line" smooth="yes"/>
      <point x="147.25" y="396.69720496878574"/>
      <point x="164.25" y="416.0357142857143"/>
      <point x="207.35714285714286" y="416.0357142857143" type="curve" smooth="yes"/>
      <point x="255.17857142857142" y="416.0357142857143"/>
      <point x="289.4642857142857" y="383.2857142857143"/>
      <point x="289.4642857142857" y="331.82142857142856" type="curve" smooth="yes"/>
      <point x="289.4642857142857" y="69.78571428571428" type="line"/>
      <point x="291.4642857142857" y="69.78571428571428" type="line"/>
      <point x="307.17857142857144" y="19.357142857142858"/>
      <point x="342.67857142857144" y="-10.0"/>
    </contour>
  </outline>
</glyph>
<glyph name="b" format="2">
  <advance width="581.8571428571429"/>
  <unicode hex="0062"/>
  <outline>
    <contour>
      <point x="89.64285714285714" y="-3.9285714285714284" type="line"/>
      <point x="101.71428571428572" y="-3.9285714285714284" type="line"/>
      <point x="230.35714285714283" y="60.75" type="line"/>
      <point x="230.35714285714283" y="750.0" type="line"/>
      <point x="218.28571428571428" y="750.0" type="line"/>
      <point x="26.0" y="695.0" type="line"/>
      <point x="26.0" y="682.5357142857143" type="line"/>
      <point x="89.64285714285714" y="636.0" type="line"/>
    </contour>
    <contour>
      <point x="312.2142857142857" y="-10.0" type="curve" smooth="yes"/>
      <point x="439.35714285714283" y="-10.0"/>
      <point x="547.4285714285714" y="87.25"/>
      <point x="547.4285714285714" y="247.0" type="curve" smooth="yes"/>
      <point x="547.4285714285714" y="382.64285714285717"/>
      <point x="468.9642857142857" y="466.07142857142856"/>
      <point x="379.5" y="466.07142857142856" type="curve" smooth="yes"/>
      <point x="327.32142857142856" y="466.07142857142856"/>
      <point x="284.1428571428571" y="448.2857142857143"/>
      <point x="235.57142857142856" y="406.5" type="curve"/>
      <point x="219.14285714285714" y="406.5" type="line"/>
      <point x="219.14285714285714" y="357.0357142857143" type="line"/>
      <point x="247.67857142857142" y="374.75"/>
      <point x="269.07142857142856" y="383.7142857142857"/>
      <point x="297.17857142857144" y="383.7142857142857" type="curve" smooth="yes"/>
      <point x="353.07142857142856" y="383.7142857142857"/>
      <point x="406.7142857142857" y="332.7142857142857"/>
      <point x="406.7142857142857" y="221.57142857142858" type="curve" smooth="yes"/>
      <point x="406.7142857142857" y="80.28571428571429"/>
      <point x="355.0" y="42.25"/>
      <point x="304.82142857142856" y="42.25" type="curve" smooth="yes"/>
      <point x="270.82142857142856" y="42.25"/>
      <point x="243.75" y="55.85714285714286"/>
      <point x="225.21428571428572" y="81.32142857142857" type="curve"/>
      <point x="163.07142857142856" y="30.32142857142857" type="line"/>
      <point x="206.67857142857142" y="0.571428571428573"/>
      <point x="254.64285714285714" y="-10.0"/>
    </contour>
  </outline>
</glyph>
<glyph name="c" format="2">
  <advance width="484.4642857142857"/>
  <unicode hex="0063"/>
  <anchor x="270.07142857142856" y="510.0" name="top"/>
  <anchor x="267.89285714285717" y="0.0" name="bottom"/>
  <outline>
    <contour>
      <point x="254.14285714285714" y="-10.0" type="curve" smooth="yes"/>
      <point x="346.07142857142856" y="-10.0"/>
      <point x="416.35714285714283" y="43.07142857142857"/>
      <point x="448.57142857142856" y="112.60714285714286" type="curve"/>
      <point x="448.57142857142856" y="129.28571428571428" type="line"/>
      <point x="445.57142857142856" y="129.28571428571428" type="line"/>
      <point x="400.42857142857144" y="105.92857142857142"/>
      <point x="357.82142857142856" y="97.78571428571428"/>
      <point x="319.60714285714283" y="97.78571428571428" type="curve" smooth="yes"/>
      <point x="214.71428571428572" y="97.78571428571428"/>
      <point x="173.32142857142856" y="167.75"/>
      <point x="173.32142857142856" y="254.64285714285714" type="curve" smooth="yes"/>
      <point x="173.32142857142856" y="355.60714285714283"/>
      <point x="204.96428571428572" y="422.07142857142856"/>
      <point x="266.42857142857144" y="422.07142857142856" type="curve" smooth="yes"/>
      <point x="303.14285714285717" y="422.07142857142856"/>
      <point x="322.42857142857144" y="403.4642857142857"/>
      <point x="345.4642857142857" y="371.60714285714283" type="curve" smooth="yes"/>
      <point x="380.07142857142856" y="323.17857142857144" type="line"/>
      <point x="387.07142857142856" y="323.17857142857144" type="line"/>
      <point x="434.17857142857144" y="363.07142857142856" type="line" smooth="yes"/>
      <point x="444.17857142857144" y="371.67857142857144"/>
      <point x="446.57142857142856" y="377.07142857142856"/>
      <point x="446.57142857142856" y="387.07142857142856" type="curve" smooth="yes"/>
      <point x="446.57142857142856" y="395.07142857142856"/>
      <point x="442.17857142857144" y="404.07142857142856"/>
      <point x="431.17857142857144" y="417.07142857142856" type="curve" smooth="yes"/>
      <point x="404.57142857142856" y="446.67857142857144"/>
      <point x="351.0" y="466.07142857142856"/>
      <point x="289.10714285714283" y="466.07142857142856" type="curve" smooth="yes"/>
      <point x="138.46428571428572" y="466.07142857142856"/>
      <point x="37.85714285714286" y="358.85714285714283"/>
      <point x="37.85714285714286" y="207.42857142857142" type="curve" smooth="yes"/>
      <point x="37.85714285714286" y="76.21428571428572"/>
      <point x="125.14285714285714" y="-10.0"/>
    </contour>
  </outline>
</glyph>
<glyph name="d" format="2">
  <advance width="583.2857142857142"/>
  <unicode hex="0064"/>
  <anchor x="612.2142857142857" y="740.0" name="right"/>
  <anchor x="290.42857142857144" y="0.0" name="bottom"/>
  <outline>
    <contour>
      <point x="200.39285714285714" y="-10.0" type="curve" smooth="yes"/>
      <point x="252.57142857142858" y="-10.0"/>
      <point x="295.3571428571429" y="8.0"/>
      <point x="344.5357142857143" y="49.785714285714285" type="curve"/>
      <point x="360.75" y="49.785714285714285" type="line"/>
      <point x="360.75" y="99.03571428571428" type="line"/>
      <point x="332.2142857142857" y="81.32142857142857"/>
      <point x="310.82142857142856" y="72.35714285714286"/>
      <point x="282.7142857142857" y="72.35714285714286" type="curve" smooth="yes"/>
      <point x="226.82142857142856" y="72.35714285714286"/>
      <point x="173.17857142857142" y="120.35714285714286"/>
      <point x="173.17857142857142" y="225.5" type="curve" smooth="yes"/>
      <point x="173.17857142857142" y="374.0"/>
      <point x="223.57142857142856" y="413.42857142857144"/>
      <point x="282.32142857142856" y="413.42857142857144" type="curve" smooth="yes"/>
      <point x="314.75" y="413.42857142857144"/>
      <point x="339.67857142857144" y="396.67857142857144"/>
      <point x="358.6071428571429" y="370.82142857142856" type="curve"/>
      <point x="416.82142857142856" y="425.75" type="line"/>
      <point x="374.7857142857143" y="454.89285714285717"/>
      <point x="330.07142857142856" y="466.07142857142856"/>
      <point x="267.39285714285717" y="466.07142857142856" type="curve"/>
      <point x="130.10714285714286" y="466.07142857142856"/>
      <point x="32.464285714285715" y="362.17857142857144"/>
      <point x="32.464285714285715" y="194.60714285714286" type="curve" smooth="yes"/>
      <point x="32.464285714285715" y="69.21428571428571"/>
      <point x="110.92857142857143" y="-10.0"/>
    </contour>
    <contour>
      <point x="359.5357142857143" y="0.0" type="line"/>
      <point x="560.0357142857142" y="0.0" type="line"/>
      <point x="560.0357142857142" y="16.0" type="line"/>
      <point x="490.25" y="45.0" type="line"/>
      <point x="490.25" y="750.0" type="line"/>
      <point x="478.17857142857144" y="750.0" type="line"/>
      <point x="280.89285714285717" y="695.0" type="line"/>
      <point x="280.89285714285717" y="683.75" type="line"/>
      <point x="349.5357142857143" y="636.0" type="line"/>
      <point x="349.5357142857143" y="60.0" type="line"/>
    </contour>
  </outline>
</glyph>
<glyph name="e" format="2">
  <advance width="495.5357142857143"/>
  <unicode hex="0065"/>
  <anchor x="266.07142857142856" y="510.0" name="top"/>
  <anchor x="382.89285714285717" y="0.0" name="right"/>
  <anchor x="273.10714285714283" y="0.0" name="bottom"/>
  <outline>
    <contour>
      <point x="260.2142857142857" y="-10.0" type="curve" smooth="yes"/>
      <point x="353.35714285714283" y="-10.0"/>
      <point x="424.85714285714283" y="42.46428571428571"/>
      <point x="457.67857142857144" y="112.60714285714286" type="curve"/>
      <point x="457.67857142857144" y="129.28571428571428" type="line"/>
      <point x="454.67857142857144" y="129.28571428571428" type="line"/>
      <point x="409.5357142857143" y="105.92857142857142"/>
      <point x="366.92857142857144" y="97.78571428571428"/>
      <point x="328.7142857142857" y="97.78571428571428" type="curve" smooth="yes"/>
      <point x="217.75" y="97.78571428571428"/>
      <point x="173.32142857142856" y="164.71428571428572"/>
      <point x="173.32142857142856" y="248.57142857142856" type="curve" smooth="yes"/>
      <point x="173.32142857142856" y="357.42857142857144"/>
      <point x="206.17857142857142" y="421.4642857142857"/>
      <point x="261.57142857142856" y="421.4642857142857" type="curve" smooth="yes"/>
      <point x="308.42857142857144" y="421.4642857142857"/>
      <point x="336.6286840275" y="388.37680737889286"/>
      <point x="346.4642857142857" y="290.07142857142856" type="curve"/>
      <point x="387.5357142857143" y="298.92857142857144" type="line"/>
      <point x="130.53571428571428" y="298.92857142857144" type="line"/>
      <point x="130.53571428571428" y="254.14285714285714" type="line"/>
      <point x="452.89285714285717" y="254.14285714285714" type="line"/>
      <point x="456.67857142857144" y="259.14285714285717" type="line"/>
      <point x="455.4642857142857" y="390.67857142857144"/>
      <point x="392.8928571428571" y="466.07142857142856"/>
      <point x="284.85714285714283" y="466.07142857142856" type="curve" smooth="yes"/>
      <point x="148.17857142857142" y="466.07142857142856"/>
      <point x="37.85714285714286" y="358.85714285714283"/>
      <point x="37.85714285714286" y="207.42857142857142" type="curve" smooth="yes"/>
      <point x="37.85714285714286" y="76.21428571428572"/>
      <point x="122.71428571428571" y="-10.0"/>
    </contour>
  </outline>
</glyph>
<glyph name="g" format="2">
  <advance width="541.1428571428571"/>
  <unicode hex="0067"/>
  <anchor x="258.14285714285717" y="510.0" name="top"/>
  <outline>
    <contour>
      <point x="256.7857142857143" y="152.32142857142858" type="curve" smooth="yes"/>
      <point x="365.4642857142857" y="152.32142857142858"/>
      <point x="448.1428571428571" y="219.71428571428572"/>
      <point x="448.1428571428571" y="308.89285714285717" type="curve" smooth="yes"/>
      <point x="448.1428571428571" y="352.07142857142856"/>
      <point x="421.7142857142857" y="394.60714285714283"/>
      <point x="388.5" y="414.0" type="curve"/>
      <point x="361.92857142857144" y="442.64285714285717" type="line"/>
      <point x="336.5" y="455.85714285714283"/>
      <point x="295.2857142857143" y="465.4642857142857"/>
      <point x="256.7857142857143" y="465.4642857142857" type="curve" smooth="yes"/>
      <point x="148.10714285714286" y="465.4642857142857"/>
      <point x="65.42857142857143" y="397.67857142857144"/>
      <point x="65.42857142857143" y="308.89285714285717" type="curve" smooth="yes"/>
      <point x="65.42857142857143" y="219.71428571428572"/>
      <point x="148.10714285714286" y="152.32142857142858"/>
    </contour>
    <contour>
      <point x="263.75" y="194.53571428571428" type="curve" smooth="yes"/>
      <point x="216.32142857142856" y="194.53571428571428"/>
      <point x="185.67857142857144" y="236.4373344760357"/>
      <point x="185.67857142857144" y="311.89285714285717" type="curve" smooth="yes"/>
      <point x="185.67857142857144" y="378.2733330612143"/>
      <point x="207.96428571428572" y="423.64285714285717"/>
      <point x="254.03571428571428" y="423.64285714285717" type="curve" smooth="yes"/>
      <point x="298.07142857142856" y="423.64285714285717"/>
      <point x="329.10714285714283" y="381.7899659863929"/>
      <point x="329.10714285714283" y="305.89285714285717" type="curve" smooth="yes"/>
      <point x="329.10714285714283" y="238.58524015628572"/>
      <point x="306.42857142857144" y="194.53571428571428"/>
    </contour>
    <contour>
      <point x="512.3928571428571" y="394.7857142857143" type="line"/>
      <point x="512.3928571428571" y="455.4642857142857" type="line"/>
      <point x="333.3928571428571" y="442.82142857142856" type="line"/>
      <point x="333.3928571428571" y="385.7857142857143" type="line"/>
      <point x="391.85714285714283" y="385.7857142857143" type="line"/>
      <point x="412.1071428571429" y="402.60714285714283" type="line"/>
    </contour>
    <contour>
      <point x="226.25" y="-240.0" type="curve" smooth="yes"/>
      <point x="387.85714285714283" y="-240.0"/>
      <point x="488.17857142857144" y="-147.32142857142858"/>
      <point x="488.17857142857144" y="-55.25" type="curve" smooth="yes"/>
      <point x="488.17857142857144" y="34.214285714285715"/>
      <point x="439.5357142857143" y="80.85714285714285"/>
      <point x="335.25" y="80.85714285714285" type="curve" smooth="yes"/>
      <point x="224.96428571428572" y="80.85714285714285" type="line" smooth="yes"/>
      <point x="171.71428571428572" y="80.85714285714285"/>
      <point x="148.5" y="95.25"/>
      <point x="148.5" y="129.03571428571428" type="curve" smooth="yes"/>
      <point x="148.5" y="150.42857142857142"/>
      <point x="161.10714285714286" y="169.82142857142856"/>
      <point x="194.10714285714286" y="179.21428571428572" type="curve"/>
      <point x="194.10714285714286" y="195.0" type="line"/>
      <point x="134.21428571428572" y="195.0" type="line"/>
      <point x="134.21428571428572" y="180.96428571428572" type="line"/>
      <point x="77.17857142857143" y="147.5" type="line"/>
      <point x="56.75" y="127.07142857142857"/>
      <point x="49.35714285714286" y="103.42857142857143"/>
      <point x="49.35714285714286" y="73.17857142857143" type="curve" smooth="yes"/>
      <point x="49.35714285714286" y="6.392857142857146"/>
      <point x="103.5" y="-37.32142857142857"/>
      <point x="197.75" y="-37.32142857142857" type="curve" smooth="yes"/>
      <point x="283.5" y="-37.32142857142857" type="line" smooth="yes"/>
      <point x="350.5357142857143" y="-37.32142857142857"/>
      <point x="373.89285714285717" y="-53.89285714285714"/>
      <point x="373.89285714285717" y="-105.0" type="curve" smooth="yes"/>
      <point x="373.89285714285717" y="-158.07142857142858"/>
      <point x="320.57142857142856" y="-204.10714285714286"/>
      <point x="236.42857142857142" y="-204.10714285714286" type="curve" smooth="yes"/>
      <point x="166.39285714285714" y="-204.10714285714286"/>
      <point x="129.57142857142856" y="-165.96428571428572"/>
      <point x="129.57142857142856" y="-113.64285714285714" type="curve" smooth="yes"/>
      <point x="129.57142857142856" y="-71.96428571428571"/>
      <point x="146.39285714285714" y="-45.25"/>
      <point x="184.07142857142858" y="-27.499999999999996" type="curve"/>
      <point x="184.07142857142858" y="-16.249999999999996" type="line"/>
      <point x="125.53571428571429" y="-16.249999999999996" type="line"/>
      <point x="125.53571428571429" y="-31.035714285714285" type="line"/>
      <point x="63.214285714285715" y="-70.96428571428571" type="line"/>
      <point x="50.60714285714286" y="-90.78571428571428"/>
      <point x="45.214285714285715" y="-108.75"/>
      <point x="45.214285714285715" y="-133.14285714285714" type="curve" smooth="yes"/>
      <point x="45.214285714285715" y="-194.07142857142858"/>
      <point x="97.42857142857143" y="-240.0"/>
    </contour>
  </outline>
</glyph>
<glyph name="j" format="2">
  <advance width="330.3928571428571"/>
  <unicode hex="006A"/>
  <anchor x="168.53571428571428" y="510.0" name="top"/>
  <outline>
    <contour>
      <point x="35.17857142857143" y="-230.0" type="line"/>
      <point x="195.57142857142856" y="-159.39285714285714"/>
      <point x="238.89285714285714" y="-96.75"/>
      <point x="238.89285714285714" y="23.678571428571427" type="curve" smooth="yes"/>
      <point x="238.89285714285714" y="466.07142857142856" type="line"/>
      <point x="226.82142857142856" y="466.07142857142856" type="line"/>
      <point x="34.535714285714285" y="411.07142857142856" type="line"/>
      <point x="34.535714285714285" y="398.6071428571429" type="line"/>
      <point x="98.17857142857143" y="352.07142857142856" type="line"/>
      <point x="98.17857142857143" y="-56.14285714285714" type="line" smooth="yes"/>
      <point x="98.17857142857143" y="-137.17857142857142"/>
      <point x="88.46428571428572" y="-167.96428571428572"/>
      <point x="35.17857142857143" y="-211.57142857142858" type="curve"/>
    </contour>
    <contour>
      <point x="166.14285714285714" y="564.6071428571429" type="curve" smooth="yes"/>
      <point x="208.03571428571428" y="564.6071428571429"/>
      <point x="238.89285714285714" y="595.4642857142857"/>
      <point x="238.89285714285714" y="637.3571428571429" type="curve" smooth="yes"/>
      <point x="238.89285714285714" y="679.6428571428571"/>
      <point x="208.03571428571428" y="710.1071428571429"/>
      <point x="166.14285714285714" y="710.1071428571429" type="curve" smooth="yes"/>
      <point x="123.85714285714286" y="710.1071428571429"/>
      <point x="93.39285714285714" y="679.6428571428571"/>
      <point x="93.39285714285714" y="637.3571428571429" type="curve" smooth="yes"/>
      <point x="93.39285714285714" y="595.4642857142857"/>
      <point x="123.85714285714286" y="564.6071428571429"/>
    </contour>
  </outline>
</glyph>
<glyph name="l" format="2">
  <advance width="325.57142857142856"/>
  <unicode hex="006C"/>
  <anchor x="166.42857142857142" y="765.0" name="top"/>
  <anchor x="359.1428571428571" y="740.0" name="right"/>
  <anchor x="356.92857142857144" y="300.0" name="mid"/>
  <anchor x="166.42857142857142" y="0.0" name="bottom"/>
  <outline>
    <contour>
      <point x="29.42857142857143" y="0.0" type="line"/>
      <point x="296.1428571428571" y="0.0" type="line"/>
      <point x="296.1428571428571" y="16.0" type="line"/>
      <point x="236.78571428571428" y="48.0" type="line"/>
      <point x="236.78571428571428" y="750.0" type="line"/>
      <point x="224.71428571428572" y="750.0" type="line"/>
      <point x="32.42857142857143" y="695.0" type="line"/>
      <point x="32.42857142857143" y="682.5357142857143" type="line"/>
      <point x="96.07142857142857" y="636.0" type="line"/>
      <point x="96.07142857142857" y="48.0" type="line"/>
      <point x="29.42857142857143" y="16.0" type="line"/>
    </contour>
  </outline>
</glyph>
<glyph name="m" format="2">
  <advance width="901.2857142857142"/>
  <unicode hex="006D"/>
  <anchor x="453.4642857142857" y="0.0" name="bottom"/>
  <outline>
    <contour>
      <point x="31.0" y="0.0" type="line"/>
      <point x="286.35714285714283" y="0.0" type="line"/>
      <point x="286.35714285714283" y="16.0" type="line"/>
      <point x="238.35714285714283" y="48.0" type="line"/>
      <point x="238.35714285714283" y="386.07142857142856" type="line"/>
      <point x="228.35714285714286" y="466.07142857142856" type="line"/>
      <point x="216.28571428571428" y="466.07142857142856" type="line"/>
      <point x="34.0" y="405.0" type="line"/>
      <point x="34.0" y="392.5357142857143" type="line"/>
      <point x="97.64285714285714" y="352.07142857142856" type="line"/>
      <point x="97.64285714285714" y="48.0" type="line"/>
      <point x="31.0" y="16.0" type="line"/>
    </contour>
    <contour>
      <point x="334.32142857142856" y="0.0" type="line"/>
      <point x="574.0" y="0.0" type="line"/>
      <point x="574.0" y="16.0" type="line"/>
      <point x="523.8214285714286" y="48.0" type="line"/>
      <point x="523.8214285714286" y="343.0" type="line" smooth="yes"/>
      <point x="523.8214285714286" y="424.25"/>
      <point x="468.60714285714283" y="466.07142857142856"/>
      <point x="388.75" y="466.07142857142856" type="curve" smooth="yes"/>
      <point x="327.67857142857144" y="466.07142857142856"/>
      <point x="288.7142857142857" y="438.82142857142856"/>
      <point x="242.35714285714283" y="392.07142857142856" type="curve"/>
      <point x="230.35714285714283" y="392.07142857142856" type="line"/>
      <point x="230.35714285714283" y="340.17857142857144" type="line"/>
      <point x="248.71428571428572" y="360.67857142857144"/>
      <point x="285.10714285714283" y="373.8571428571429"/>
      <point x="313.3928571428571" y="373.8571428571429" type="curve" smooth="yes"/>
      <point x="355.0357142857143" y="373.8571428571429"/>
      <point x="383.10714285714283" y="348.92857142857144"/>
      <point x="383.10714285714283" y="302.07142857142856" type="curve" smooth="yes"/>
      <point x="383.10714285714283" y="48.0" type="line"/>
      <point x="334.32142857142856" y="16.0" type="line"/>
    </contour>
    <contour>
      <point x="621.9642857142857" y="0.0" type="line"/>
      <point x="880.2857142857142" y="0.0" type="line"/>
      <point x="880.2857142857142" y="16.0" type="line"/>
      <point x="813.6428571428571" y="48.0" type="line"/>
      <point x="813.6428571428571" y="343.0" type="line" smooth="yes"/>
      <point x="813.6428571428571" y="424.25"/>
      <point x="758.4285714285714" y="466.07142857142856"/>
      <point x="678.5714285714286" y="466.07142857142856" type="curve" smooth="yes"/>
      <point x="613.5" y="466.07142857142856"/>
      <point x="573.75" y="434.82142857142856"/>
      <point x="522.6071428571429" y="382.5" type="curve"/>
      <point x="514.6428571428571" y="382.5" type="line"/>
      <point x="514.6428571428571" y="332.85714285714283" type="line"/>
      <point x="534.3928571428571" y="358.7142857142857"/>
      <point x="569.0357142857142" y="373.8571428571429"/>
      <point x="603.2142857142857" y="373.8571428571429" type="curve" smooth="yes"/>
      <point x="644.8571428571429" y="373.8571428571429"/>
      <point x="672.9285714285714" y="348.92857142857144"/>
      <point x="672.9285714285714" y="302.07142857142856" type="curve" smooth="yes"/>
      <point x="672.9285714285714" y="48.0" type="line"/>
      <point x="621.9642857142857" y="16.0" type="line"/>
    </contour>
  </outline>
</glyph>
<glyph name="o" format="2">
  <advance width="547.2857142857142"/>
  <unicode hex="006F"/>
  <anchor x="272.4642857142857" y="510.0" name="top"/>
  <anchor x="313.2857142857143" y="0.0" name="right"/>
  <anchor x="276.0" y="0.0" name="bottom"/>
  <outline>
    <contour>
      <point x="273.6428571428571" y="-10.0" type="curve" smooth="yes"/>
      <point x="415.57142857142856" y="-10.0"/>
      <point x="512.4642857142857" y="97.67857142857143"/>
      <point x="512.4642857142857" y="228.03571428571428" type="curve" smooth="yes"/>
      <point x="512.4642857142857" y="359.0"/>
      <point x="415.57142857142856" y="466.07142857142856"/>
      <point x="273.6428571428571" y="466.07142857142856" type="curve" smooth="yes"/>
      <point x="131.71428571428572" y="466.07142857142856"/>
      <point x="34.82142857142857" y="359.0"/>
      <point x="34.82142857142857" y="228.03571428571428" type="curve" smooth="yes"/>
      <point x="34.82142857142857" y="97.67857142857143"/>
      <point x="131.71428571428572" y="-10.0"/>
    </contour>
    <contour>
      <point x="284.60714285714283" y="39.07142857142857" type="curve" smooth="yes"/>
      <point x="210.81206896557143" y="39.07142857142857"/>
      <point x="179.46428571428572" y="139.78535353507144"/>
      <point x="179.46428571428572" y="249.03571428571428" type="curve" smooth="yes"/>
      <point x="179.46428571428572" y="339.40013648778574"/>
      <point x="205.14285714285714" y="418.0"/>
      <point x="264.67857142857144" y="418.0" type="curve" smooth="yes"/>
      <point x="337.75" y="418.0"/>
      <point x="367.82142857142856" y="317.28607503635715"/>
      <point x="367.82142857142856" y="208.03571428571428" type="curve" smooth="yes"/>
      <point x="367.82142857142856" y="118.7099636035"/>
      <point x="342.65323565317857" y="39.07142857142857"/>
    </contour>
  </outline>
</glyph>
<glyph name="p" format="2">
  <advance width="589.4642857142857"/>
  <unicode hex="0070"/>
  <outline>
    <contour>
      <point x="31.000000000000004" y="-230.0" type="line"/>
      <point x="316.0357142857143" y="-230.0" type="line"/>
      <point x="316.0357142857143" y="-214.0" type="line"/>
      <point x="238.35714285714283" y="-182.0" type="line"/>
      <point x="238.35714285714283" y="386.67857142857144" type="line"/>
      <point x="228.35714285714283" y="466.07142857142856" type="line"/>
      <point x="216.28571428571428" y="466.07142857142856" type="line"/>
      <point x="34.0" y="405.0" type="line"/>
      <point x="34.0" y="392.5357142857143" type="line"/>
      <point x="97.64285714285714" y="346.0" type="line"/>
      <point x="97.64285714285714" y="-182.0" type="line"/>
      <point x="31.000000000000004" y="-214.0" type="line"/>
    </contour>
    <contour>
      <point x="322.9642857142857" y="-10.0" type="curve"/>
      <point x="447.35714285714283" y="-10.0"/>
      <point x="555.4285714285714" y="87.25"/>
      <point x="555.4285714285714" y="247.0" type="curve" smooth="yes"/>
      <point x="555.4285714285714" y="382.64285714285717"/>
      <point x="476.9642857142857" y="466.07142857142856"/>
      <point x="387.5" y="466.07142857142856" type="curve" smooth="yes"/>
      <point x="334.7142857142857" y="466.07142857142856"/>
      <point x="291.32142857142856" y="448.07142857142856"/>
      <point x="241.53571428571428" y="405.07142857142856" type="curve"/>
      <point x="227.14285714285714" y="405.07142857142856" type="line"/>
      <point x="227.14285714285714" y="357.0357142857143" type="line"/>
      <point x="255.67857142857142" y="374.75"/>
      <point x="277.07142857142856" y="383.7142857142857"/>
      <point x="305.17857142857144" y="383.7142857142857" type="curve" smooth="yes"/>
      <point x="361.07142857142856" y="383.7142857142857"/>
      <point x="414.7142857142857" y="331.5357142857143"/>
      <point x="414.7142857142857" y="217.64285714285714" type="curve" smooth="yes"/>
      <point x="414.7142857142857" y="79.10714285714286"/>
      <point x="364.9642857142857" y="42.25"/>
      <point x="316.75" y="42.25" type="curve" smooth="yes"/>
      <point x="281.17857142857144" y="42.25"/>
      <point x="252.53571428571428" y="55.464285714285715"/>
      <point x="233.21428571428572" y="81.32142857142857" type="curve"/>
      <point x="171.07142857142856" y="30.32142857142857" type="line"/>
      <point x="214.67857142857144" y="-0.21428571428571352"/>
      <point x="262.6428571428571" y="-10.0"/>
    </contour>
  </outline>
</glyph>
<glyph name="q" format="2">
  <advance width="579.8571428571429"/>
  <unicode hex="0071"/>
  <outline>
    <contour>
      <point x="273.42857142857144" y="-230.0" type="line"/>
      <point x="558.4642857142857" y="-230.0" type="line"/>
      <point x="558.4642857142857" y="-214.0" type="line"/>
      <point x="491.82142857142856" y="-182.39285714285714" type="line"/>
      <point x="491.82142857142856" y="466.07142857142856" type="line"/>
      <point x="479.75" y="466.07142857142856" type="line"/>
      <point x="363.7857142857143" y="430.0357142857143" type="line"/>
      <point x="420.17857142857144" y="430.0357142857143" type="line"/>
      <point x="374.48872135942855" y="454.7507521915"/>
      <point x="335.4642857142857" y="466.07142857142856"/>
      <point x="278.07142857142856" y="466.07142857142856" type="curve" smooth="yes"/>
      <point x="135.32142857142858" y="466.07142857142856"/>
      <point x="34.035714285714285" y="362.17857142857144"/>
      <point x="34.035714285714285" y="194.60714285714286" type="curve" smooth="yes"/>
      <point x="34.035714285714285" y="69.21428571428571"/>
      <point x="112.5" y="-10.0"/>
      <point x="201.96428571428572" y="-10.0" type="curve" smooth="yes"/>
      <point x="250.10714285714286" y="-10.0"/>
      <point x="294.25" y="6.357142857142858"/>
      <point x="344.5" y="48.17857142857143" type="curve"/>
      <point x="372.2142857142857" y="48.17857142857143" type="line"/>
      <point x="372.2142857142857" y="104.28571428571428" type="line"/>
      <point x="332.5357142857143" y="80.5"/>
      <point x="308.7857142857143" y="72.35714285714286"/>
      <point x="284.2857142857143" y="72.35714285714286" type="curve" smooth="yes"/>
      <point x="228.39285714285714" y="72.35714285714286"/>
      <point x="174.75" y="120.35714285714286"/>
      <point x="174.75" y="224.89285714285714" type="curve" smooth="yes"/>
      <point x="174.75" y="373.39285714285717"/>
      <point x="221.96428571428572" y="413.42857142857144"/>
      <point x="279.9642857142857" y="413.42857142857144" type="curve" smooth="yes"/>
      <point x="303.82142857142856" y="413.42857142857144"/>
      <point x="326.2857142857143" y="408.0357142857143"/>
      <point x="342.14285714285717" y="393.75" type="curve" smooth="yes"/>
      <point x="350.10714285714283" y="386.57142857142856"/>
      <point x="351.10714285714283" y="381.5357142857143"/>
      <point x="351.10714285714283" y="352.57142857142856" type="curve" smooth="yes"/>
      <point x="351.10714285714283" y="-183.57142857142858" type="line"/>
      <point x="273.42857142857144" y="-214.0" type="line"/>
    </contour>
  </outline>
</glyph>
<glyph name="r" format="2">
  <advance width="424.92857142857144"/>
  <unicode hex="0072"/>
  <anchor x="247.5" y="510.0" name="top"/>
  <anchor x="169.57142857142856" y="0.0" name="bottom"/>
  <outline>
    <contour>
      <point x="32.57142857142858" y="0.0" type="line"/>
      <point x="320.6428571428571" y="0.0" type="line"/>
      <point x="320.6428571428571" y="16.0" type="line"/>
      <point x="239.92857142857144" y="48.0" type="line"/>
      <point x="239.92857142857144" y="368.2142857142857" type="line"/>
      <point x="229.92857142857144" y="466.07142857142856" type="line"/>
      <point x="217.85714285714286" y="466.07142857142856" type="line"/>
      <point x="35.57142857142857" y="405.0" type="line"/>
      <point x="35.57142857142857" y="392.5357142857143" type="line"/>
      <point x="99.21428571428572" y="346.0" type="line"/>
      <point x="99.21428571428572" y="48.0" type="line"/>
      <point x="32.57142857142858" y="16.0" type="line"/>
    </contour>
    <contour>
      <point x="312.75" y="366.4642857142857" type="curve" smooth="yes"/>
      <point x="333.64285714285717" y="366.4642857142857"/>
      <point x="346.42857142857144" y="364.25"/>
      <point x="366.2857142857143" y="357.0357142857143" type="curve" smooth="yes"/>
      <point x="392.1428571428571" y="347.5" type="line"/>
      <point x="399.1428571428571" y="347.5" type="line"/>
      <point x="423.3928571428571" y="412.89285714285717" type="line" smooth="yes"/>
      <point x="425.7857142857143" y="419.2857142857143"/>
      <point x="426.7857142857143" y="425.2857142857143"/>
      <point x="426.7857142857143" y="429.67857142857144" type="curve" smooth="yes"/>
      <point x="426.7857142857143" y="441.67857142857144"/>
      <point x="416.0357142857143" y="451.67857142857144"/>
      <point x="396.7857142857143" y="458.2857142857143" type="curve" smooth="yes"/>
      <point x="385.9642857142857" y="462.2857142857143"/>
      <point x="371.17857142857144" y="466.07142857142856"/>
      <point x="359.57142857142856" y="466.07142857142856" type="curve" smooth="yes"/>
      <point x="321.32142857142856" y="466.07142857142856"/>
      <point x="293.17857142857144" y="453.0357142857143"/>
      <point x="243.53571428571428" y="376.2142857142857" type="curve"/>
      <point x="231.92857142857144" y="376.2142857142857" type="line"/>
      <point x="231.92857142857144" y="315.92857142857144" type="line"/>
      <point x="251.71428571428572" y="347.25"/>
      <point x="280.14285714285717" y="366.4642857142857"/>
    </contour>
  </outline>
</glyph>
<glyph name="s" format="2">
  <advance width="437.4642857142857"/>
  <unicode hex="0073"/>
  <anchor x="219.25" y="510.0" name="top"/>
  <anchor x="218.64285714285714" y="0.0" name="bottom"/>
  <outline>
    <contour>
      <point x="209.35714285714286" y="-10.0" type="curve" smooth="yes"/>
      <point x="297.82142857142856" y="-10.0"/>
      <point x="383.42857142857144" y="46.714285714285715"/>
      <point x="383.42857142857144" y="141.17857142857142" type="curve" smooth="yes"/>
      <point x="383.42857142857144" y="235.18430656928572"/>
      <point x="319.12637599028574" y="258.3856264106786"/>
      <point x="262.6428571428571" y="281.17857142857144" type="curve" smooth="yes"/>
      <point x="181.30438268375" y="313.3018233768214"/>
      <point x="161.17857142857144" y="329.0"/>
      <point x="161.17857142857144" y="364.2857142857143" type="curve" smooth="yes"/>
      <point x="161.17857142857144" y="400.15197568407143"/>
      <point x="187.62366737739285" y="421.0"/>
      <point x="227.67857142857142" y="421.0" type="curve" smooth="yes"/>
      <point x="265.53812199025" y="421.0"/>
      <point x="288.6257419061071" y="402.84458767467856"/>
      <point x="314.9642857142857" y="363.92857142857144" type="curve" smooth="yes"/>
      <point x="346.1428571428571" y="317.0" type="line"/>
      <point x="361.35714285714283" y="317.0" type="line"/>
      <point x="361.35714285714283" y="435.7142857142857" type="line"/>
      <point x="319.9642857142857" y="457.32142857142856"/>
      <point x="275.7142857142857" y="466.07142857142856"/>
      <point x="230.96428571428572" y="466.07142857142856" type="curve" smooth="yes"/>
      <point x="132.42857142857142" y="466.07142857142856"/>
      <point x="59.214285714285715" y="397.35714285714283"/>
      <point x="59.214285714285715" y="310.6071428571429" type="curve" smooth="yes"/>
      <point x="59.214285714285715" y="249.85142857142858"/>
      <point x="93.46001685539287" y="211.22936206367856"/>
      <point x="168.85714285714286" y="180.17857142857144" type="curve" smooth="yes"/>
      <point x="254.4100484580357" y="145.04080242714286"/>
      <point x="282.85714285714283" y="132.70467032982143"/>
      <point x="282.85714285714283" y="90.92857142857143" type="curve" smooth="yes"/>
      <point x="282.85714285714283" y="55.29846938774643"/>
      <point x="255.5" y="34.5"/>
      <point x="205.14285714285714" y="34.5" type="curve" smooth="yes"/>
      <point x="160.78571428571428" y="34.5"/>
      <point x="125.75" y="53.714285714285715"/>
      <point x="102.32142857142857" y="89.5" type="curve" smooth="yes"/>
      <point x="67.28571428571429" y="142.07142857142856" type="line"/>
      <point x="52.07142857142857" y="142.07142857142856" type="line"/>
      <point x="52.07142857142857" y="26.428571428571427" type="line"/>
      <point x="99.07142857142857" y="3.0357142857142856"/>
      <point x="143.32142857142858" y="-10.0"/>
    </contour>
  </outline>
</glyph>
<glyph name="u" format="2">
  <advance width="590.1428571428571"/>
  <unicode hex="0075"/>
  <anchor x="293.67857142857144" y="510.0" name="top"/>
  <anchor x="293.67857142857144" y="0.0" name="bottom"/>
  <anchor x="461.85714285714283" y="0.0" name="right"/>
  <outline>
    <contour>
      <point x="217.71428571428572" y="-10.0" type="curve" smooth="yes"/>
      <point x="278.57142857142856" y="-10.0"/>
      <point x="318.32142857142856" y="16.857142857142858"/>
      <point x="365.07142857142856" y="63.607142857142854" type="curve"/>
      <point x="377.4642857142857" y="63.607142857142854" type="line"/>
      <point x="377.4642857142857" y="115.89285714285714" type="line"/>
      <point x="359.10714285714283" y="95.39285714285714"/>
      <point x="321.5357142857143" y="82.21428571428571"/>
      <point x="293.07142857142856" y="82.21428571428571" type="curve" smooth="yes"/>
      <point x="251.46428571428572" y="82.21428571428571"/>
      <point x="222.0" y="107.14285714285714"/>
      <point x="222.0" y="154.0" type="curve" smooth="yes"/>
      <point x="222.0" y="456.07142857142856" type="line"/>
      <point x="14.642857142857144" y="456.07142857142856" type="line"/>
      <point x="14.642857142857144" y="440.07142857142856" type="line"/>
      <point x="81.28571428571429" y="408.4642857142857" type="line"/>
      <point x="81.28571428571429" y="113.07142857142857" type="line" smooth="yes"/>
      <point x="81.28571428571429" y="31.82142857142857"/>
      <point x="137.89285714285714" y="-10.0"/>
    </contour>
    <contour>
      <point x="369.4642857142857" y="0.0" type="line"/>
      <point x="572.6785714285714" y="0.0" type="line"/>
      <point x="572.6785714285714" y="16.0" type="line"/>
      <point x="510.17857142857144" y="46.82142857142857" type="line"/>
      <point x="510.17857142857144" y="456.07142857142856" type="line"/>
      <point x="308.7857142857143" y="456.07142857142856" type="line"/>
      <point x="308.7857142857143" y="440.07142857142856" type="line"/>
      <point x="369.4642857142857" y="408.4642857142857" type="line"/>
    </contour>
  </outline>
</glyph>
<glyph name="v" format="2">
  <advance width="475.75"/>
  <unicode hex="0076"/>
  <outline>
    <contour>
      <point x="216.07142857142856" y="0.0" type="line"/>
      <point x="244.42857142857144" y="0.0" type="line"/>
      <point x="298.0357142857143" y="116.39285714285714" type="line"/>
      <point x="298.0357142857143" y="185.17857142857142" type="line"/>
      <point x="282.0357142857143" y="185.17857142857142" type="line"/>
      <point x="178.32142857142856" y="407.7142857142857" type="line"/>
      <point x="178.32142857142856" y="411.2857142857143" type="line"/>
      <point x="246.96428571428572" y="440.07142857142856" type="line"/>
      <point x="246.96428571428572" y="456.07142857142856" type="line"/>
      <point x="-35.75" y="456.07142857142856" type="line"/>
      <point x="-35.75" y="440.07142857142856" type="line"/>
      <point x="26.392857142857146" y="412.7142857142857" type="line"/>
    </contour>
    <contour>
      <point x="254.07142857142856" y="0.0" type="line"/>
      <point x="441.1428571428571" y="406.2857142857143" type="line"/>
      <point x="511.5" y="440.07142857142856" type="line"/>
      <point x="511.5" y="456.07142857142856" type="line"/>
      <point x="314.8928571428571" y="456.07142857142856" type="line"/>
      <point x="314.8928571428571" y="440.07142857142856" type="line"/>
      <point x="378.39285714285717" y="407.7142857142857" type="line"/>
      <point x="378.39285714285717" y="404.14285714285717" type="line"/>
      <point x="229.53571428571428" y="49.67857142857143" type="line"/>
      <point x="229.53571428571428" y="0.0" type="line"/>
    </contour>
  </outline>
</glyph>
<glyph name="w" format="2">
  <advance width="727.5"/>
  <unicode hex="0077"/>
  <anchor x="401.67857142857144" y="510.0" name="top"/>
  <outline>
    <contour>
      <point x="190.67857142857142" y="0.0" type="line"/>
      <point x="219.03571428571428" y="0.0" type="line"/>
      <point x="280.5357142857143" y="136.25" type="line"/>
      <point x="280.5357142857143" y="184.75" type="line"/>
      <point x="261.67857142857144" y="184.75" type="line"/>
      <point x="178.32142857142856" y="407.7142857142857" type="line"/>
      <point x="178.32142857142856" y="411.2857142857143" type="line"/>
      <point x="246.96428571428572" y="440.07142857142856" type="line"/>
      <point x="246.96428571428572" y="456.07142857142856" type="line"/>
      <point x="-35.75" y="456.07142857142856" type="line"/>
      <point x="-35.75" y="440.07142857142856" type="line"/>
      <point x="26.392857142857146" y="412.7142857142857" type="line"/>
    </contour>
    <contour>
      <point x="382.17857142857144" y="456.07142857142856" type="line"/>
      <point x="207.57142857142856" y="46.0" type="line"/>
      <point x="207.57142857142856" y="0.0" type="line"/>
      <point x="228.67857142857142" y="0.0" type="line"/>
      <point x="376.85714285714283" y="316.0" type="line"/>
      <point x="335.60714285714283" y="316.0" type="line"/>
      <point x="479.39285714285717" y="0.0" type="line"/>
      <point x="507.75" y="0.0" type="line"/>
      <point x="559.0" y="142.14285714285714" type="line"/>
      <point x="420.17857142857144" y="456.07142857142856" type="line"/>
    </contour>
    <contour>
      <point x="517.3928571428571" y="0.0" type="line"/>
      <point x="692.8928571428571" y="406.2857142857143" type="line"/>
      <point x="763.25" y="440.07142857142856" type="line"/>
      <point x="763.25" y="456.07142857142856" type="line"/>
      <point x="566.6428571428571" y="456.07142857142856" type="line"/>
      <point x="566.6428571428571" y="440.07142857142856" type="line"/>
      <point x="630.1428571428571" y="408.32142857142856" type="line"/>
      <point x="630.1428571428571" y="404.14285714285717" type="line"/>
      <point x="544.3214285714286" y="185.92857142857142" type="line"/>
      <point x="493.82142857142856" y="185.92857142857142" type="line"/>
      <point x="493.82142857142856" y="0.0" type="line"/>
    </contour>
  </outline>
</glyph>
<glyph name="x" format="2">
  <advance width="549.4285714285714"/>
  <unicode hex="0078"/>
  <outline>
    <contour>
      <point x="266.89285714285717" y="0.0" type="line"/>
      <point x="533.1428571428571" y="0.0" type="line"/>
      <point x="533.1428571428571" y="16.0" type="line"/>
      <point x="492.1428571428571" y="43.35714285714286" type="line"/>
      <point x="233.75" y="407.7142857142857" type="line"/>
      <point x="233.75" y="413.7142857142857" type="line"/>
      <point x="289.6071428571429" y="440.07142857142856" type="line"/>
      <point x="289.6071428571429" y="456.07142857142856" type="line"/>
      <point x="18.25" y="456.07142857142856" type="line"/>
      <point x="18.25" y="440.07142857142856" type="line"/>
      <point x="63.42857142857143" y="412.7142857142857" type="line"/>
      <point x="321.82142857142856" y="48.35714285714286" type="line"/>
      <point x="321.82142857142856" y="42.35714285714286" type="line"/>
      <point x="266.89285714285717" y="16.0" type="line"/>
    </contour>
    <contour>
      <point x="17.5" y="0.0" type="line"/>
      <point x="203.42857142857142" y="0.0" type="line"/>
      <point x="203.42857142857142" y="16.0" type="line"/>
      <point x="147.5" y="48.35714285714286" type="line"/>
      <point x="147.5" y="54.357142857142854" type="line"/>
      <point x="277.7142857142857" y="227.03571428571428" type="line"/>
      <point x="241.75" y="250.03571428571428" type="line"/>
      <point x="69.67857142857143" y="47.35714285714286" type="line"/>
      <point x="17.5" y="16.0" type="line"/>
    </contour>
    <contour>
      <point x="516.1428571428571" y="456.07142857142856" type="line"/>
      <point x="337.3928571428571" y="456.07142857142856" type="line"/>
      <point x="337.3928571428571" y="440.07142857142856" type="line"/>
      <point x="388.32142857142856" y="407.7142857142857" type="line"/>
      <point x="388.32142857142856" y="401.7142857142857" type="line"/>
      <point x="267.8928571428571" y="246.03571428571428" type="line"/>
      <point x="304.67857142857144" y="223.03571428571428" type="line"/>
      <point x="463.1428571428571" y="408.7142857142857" type="line"/>
      <point x="516.1428571428571" y="440.07142857142856" type="line"/>
    </contour>
  </outline>
</glyph>
<glyph name="y" format="2">
  <advance width="475.75"/>
  <unicode hex="0079"/>
  <anchor x="280.3928571428571" y="510.0" name="top"/>
  <anchor x="328.96428571428567" y="-17.07142857142857" name="bottom"/>
  <outline>
    <contour>
      <point x="-36.357142857142854" y="456.07142857142856" type="line"/>
      <point x="-36.357142857142854" y="440.07142857142856" type="line"/>
      <point x="25.785714285714285" y="412.7142857142857" type="line"/>
      <point x="240.10714285714286" y="-33.39285714285714" type="line"/>
      <point x="310.1071428571429" y="132.71428571428572" type="line"/>
      <point x="310.1071428571429" y="177.21428571428572" type="line"/>
      <point x="288.25" y="177.21428571428572" type="line"/>
      <point x="177.71428571428572" y="407.7142857142857" type="line"/>
      <point x="177.71428571428572" y="410.89285714285717" type="line"/>
      <point x="240.28571428571428" y="440.07142857142856" type="line"/>
      <point x="240.28571428571428" y="456.07142857142856" type="line"/>
    </contour>
    <contour>
      <point x="83.0" y="-241.0" type="curve" smooth="yes"/>
      <point x="117.82142857142857" y="-241.0"/>
      <point x="160.71428571428572" y="-221.60714285714286"/>
      <point x="188.32142857142856" y="-183.0" type="curve" smooth="yes"/>
      <point x="218.32142857142856" y="-141.0"/>
      <point x="222.32142857142856" y="-125.39285714285714"/>
      <point x="241.32142857142856" y="-79.0" type="curve" smooth="yes"/>
      <point x="440.75" y="406.67857142857144" type="line"/>
      <point x="511.5" y="440.07142857142856" type="line"/>
      <point x="511.5" y="456.07142857142856" type="line"/>
      <point x="320.9642857142857" y="456.07142857142856" type="line"/>
      <point x="320.9642857142857" y="440.07142857142856" type="line"/>
      <point x="379.57142857142856" y="407.7142857142857" type="line"/>
      <point x="379.57142857142856" y="404.14285714285717" type="line"/>
      <point x="272.2142857142857" y="114.96428571428571" type="line"/>
      <point x="198.67857142857142" y="-63.92857142857143" type="line" smooth="yes"/>
      <point x="168.78571428571428" y="-134.96428571428572"/>
      <point x="148.60714285714286" y="-137.96428571428572"/>
      <point x="99.0" y="-137.96428571428572" type="curve" smooth="yes"/>
      <point x="54.214285714285715" y="-137.96428571428572" type="line"/>
      <point x="49.0" y="-143.17857142857144" type="line"/>
      <point x="49.0" y="-212.0" type="line" smooth="yes"/>
      <point x="49.0" y="-234.0"/>
      <point x="53.0" y="-241.0"/>
    </contour>
  </outline>
</glyph>
<glyph name="z" format="2">
  <advance width="502.0357142857143"/>
  <unicode hex="007A"/>
  <anchor x="257.57142857142856" y="510.0" name="top"/>
  <anchor x="257.57142857142856" y="0.0" name="bottom"/>
  <outline>
    <contour>
      <point x="52.392857142857146" y="0.0" type="line"/>
      <point x="448.2857142857143" y="0.0" type="line"/>
      <point x="448.2857142857143" y="163.14285714285714" type="line"/>
      <point x="429.25" y="163.14285714285714" type="line"/>
      <point x="368.10714285714283" y="8.0" type="line"/>
      <point x="422.2857142857143" y="47.035714285714285" type="line"/>
      <point x="204.35714285714283" y="47.035714285714285" type="line"/>
      <point x="204.35714285714283" y="9.75" type="line"/>
      <point x="440.2857142857143" y="436.25" type="line"/>
      <point x="440.2857142857143" y="456.07142857142856" type="line"/>
      <point x="138.89285714285714" y="456.07142857142856" type="line" smooth="yes"/>
      <point x="115.60714285714286" y="456.07142857142856"/>
      <point x="85.60714285714286" y="461.4642857142857"/>
      <point x="67.39285714285714" y="466.07142857142856" type="curve"/>
      <point x="62.392857142857146" y="466.07142857142856" type="line"/>
      <point x="51.392857142857146" y="299.92857142857144" type="line"/>
      <point x="70.42857142857143" y="299.92857142857144" type="line"/>
      <point x="142.57142857142858" y="446.07142857142856" type="line"/>
      <point x="87.39285714285714" y="409.0357142857143" type="line"/>
      <point x="288.32142857142856" y="409.0357142857143" type="line"/>
      <point x="288.32142857142856" y="446.32142857142856" type="line"/>
      <point x="52.392857142857146" y="19.82142857142857" type="line"/>
    </contour>
  </outline>
</glyph>
<glyph name="braceleft" format="2">
  <advance width="262.1428571428571"/>
  <unicode hex="007B"/>
  <outline>
    <contour>
      <point x="219.92857142857142" y="-150.0" type="curve" smooth="yes"/>
      <point x="245.0" y="-150.0" type="line"/>
      <point x="245.0" y="-123.96428571428572" type="line"/>
      <point x="218.0" y="-123.96428571428572" type="line" smooth="yes"/>
      <point x="160.0" y="-123.96428571428572"/>
      <point x="132.0" y="-88.17857142857143"/>
      <point x="132.0" y="-35.0" type="curve" smooth="yes"/>
      <point x="132.0" y="43.0"/>
      <point x="175.0" y="108.0"/>
      <point x="175.0" y="177.0" type="curve" smooth="yes"/>
      <point x="175.0" y="226.0"/>
      <point x="150.57142857142856" y="270.07142857142856"/>
      <point x="82.92857142857143" y="295.0" type="curve"/>
      <point x="150.57142857142856" y="320.5357142857143"/>
      <point x="175.0" y="364.0"/>
      <point x="175.0" y="413.0" type="curve" smooth="yes"/>
      <point x="175.0" y="482.0"/>
      <point x="132.0" y="547.0"/>
      <point x="132.0" y="625.0" type="curve" smooth="yes"/>
      <point x="132.0" y="678.1785714285714"/>
      <point x="160.0" y="713.9642857142857"/>
      <point x="218.0" y="713.9642857142857" type="curve" smooth="yes"/>
      <point x="245.0" y="713.9642857142857" type="line"/>
      <point x="245.0" y="740.0" type="line"/>
      <point x="219.92857142857142" y="740.0" type="line" smooth="yes"/>
      <point x="108.92857142857143" y="740.0"/>
      <point x="61.92857142857143" y="686.0"/>
      <point x="61.92857142857143" y="607.0" type="curve" smooth="yes"/>
      <point x="61.92857142857143" y="524.0"/>
      <point x="109.92857142857143" y="459.0"/>
      <point x="109.92857142857143" y="391.0" type="curve" smooth="yes"/>
      <point x="109.92857142857143" y="347.60714285714283"/>
      <point x="88.92857142857143" y="308.2142857142857"/>
      <point x="23.928571428571427" y="308.2142857142857" type="curve" smooth="yes"/>
      <point x="-1.0714285714285712" y="308.2142857142857" type="line"/>
      <point x="-1.0714285714285712" y="282.7857142857143" type="line"/>
      <point x="23.928571428571427" y="282.7857142857143" type="line" smooth="yes"/>
      <point x="88.92857142857143" y="282.7857142857143"/>
      <point x="109.92857142857143" y="243.39285714285714"/>
      <point x="109.92857142857143" y="199.0" type="curve" smooth="yes"/>
      <point x="109.92857142857143" y="131.0"/>
      <point x="61.92857142857143" y="66.0"/>
      <point x="61.92857142857143" y="-17.0" type="curve" smooth="yes"/>
      <point x="61.92857142857143" y="-96.0"/>
      <point x="108.92857142857143" y="-150.0"/>
    </contour>
  </outline>
</glyph>
<glyph name="braceright" format="2">
  <advance width="262.1428571428571"/>
  <unicode hex="007D"/>
  <outline>
    <contour>
      <point x="42.21428571428571" y="-150.0" type="line" smooth="yes"/>
      <point x="153.21428571428572" y="-150.0"/>
      <point x="200.21428571428572" y="-96.0"/>
      <point x="200.21428571428572" y="-17.0" type="curve" smooth="yes"/>
      <point x="200.21428571428572" y="66.0"/>
      <point x="152.21428571428572" y="131.0"/>
      <point x="152.21428571428572" y="199.0" type="curve" smooth="yes"/>
      <point x="152.21428571428572" y="243.39285714285714"/>
      <point x="173.21428571428572" y="282.7857142857143"/>
      <point x="238.21428571428572" y="282.7857142857143" type="curve" smooth="yes"/>
      <point x="263.2142857142857" y="282.7857142857143" type="line"/>
      <point x="263.2142857142857" y="308.2142857142857" type="line"/>
      <point x="238.21428571428572" y="308.2142857142857" type="line" smooth="yes"/>
      <point x="173.21428571428572" y="308.2142857142857"/>
      <point x="152.21428571428572" y="347.60714285714283"/>
      <point x="152.21428571428572" y="391.0" type="curve" smooth="yes"/>
      <point x="152.21428571428572" y="459.0"/>
      <point x="200.21428571428572" y="524.0"/>
      <point x="200.21428571428572" y="607.0" type="curve" smooth="yes"/>
      <point x="200.21428571428572" y="686.0"/>
      <point x="153.21428571428572" y="740.0"/>
      <point x="42.21428571428571" y="740.0" type="curve" smooth="yes"/>
      <point x="17.142857142857142" y="740.0" type="line"/>
      <point x="17.142857142857142" y="713.9642857142857" type="line"/>
      <point x="44.14285714285714" y="713.9642857142857" type="line" smooth="yes"/>
      <point x="102.14285714285714" y="713.9642857142857"/>
      <point x="130.14285714285714" y="678.1785714285714"/>
      <point x="130.14285714285714" y="625.0" type="curve" smooth="yes"/>
      <point x="130.14285714285714" y="547.0"/>
      <point x="87.14285714285714" y="482.0"/>
      <point x="87.14285714285714" y="413.0" type="curve" smooth="yes"/>
      <point x="87.14285714285714" y="364.0"/>
      <point x="111.57142857142857" y="320.5357142857143"/>
      <point x="179.21428571428572" y="295.0" type="curve"/>
      <point x="111.57142857142857" y="270.07142857142856"/>
      <point x="87.14285714285714" y="226.0"/>
      <point x="87.14285714285714" y="177.0" type="curve" smooth="yes"/>
      <point x="87.14285714285714" y="108.0"/>
      <point x="130.14285714285714" y="43.0"/>
      <point x="130.14285714285714" y="-35.0" type="curve" smooth="yes"/>
      <point x="130.14285714285714" y="-88.17857142857143"/>
      <point x="102.14285714285714" y="-123.96428571428572"/>
      <point x="44.14285714285714" y="-123.96428571428572" type="curve" smooth="yes"/>
      <point x="17.142857142857142" y="-123.96428571428572" type="line"/>
      <point x="17.142857142857142" y="-150.0" type="line"/>
    </contour>
  </outline>
</glyph>
<glyph name="asciitilde" format="2">
  <advance width="560.7142857142857"/>
  <unicode hex="007E"/>
  <outline>
    <contour>
      <point x="70.35714285714286" y="201.0" type="curve"/>
      <point x="125.39285714285714" y="201.0" type="line"/>
      <point x="125.39285714285714" y="258.17857142857144"/>
      <point x="146.78571428571428" y="289.57142857142856"/>
      <point x="182.14285714285714" y="289.57142857142856" type="curve" smooth="yes"/>
      <point x="246.53571428571428" y="289.57142857142856"/>
      <point x="280.75" y="201.0"/>
      <point x="376.35714285714283" y="201.0" type="curve" smooth="yes"/>
      <point x="447.7857142857143" y="201.0"/>
      <point x="490.35714285714283" y="251.17857142857142"/>
      <point x="490.35714285714283" y="343.0" type="curve"/>
      <point x="435.32142857142856" y="343.0" type="line"/>
      <point x="435.32142857142856" y="282.82142857142856"/>
      <point x="418.5357142857143" y="254.42857142857142"/>
      <point x="378.57142857142856" y="254.42857142857142" type="curve" smooth="yes"/>
      <point x="312.57142857142856" y="254.42857142857142"/>
      <point x="279.9642857142857" y="343.0"/>
      <point x="184.35714285714286" y="343.0" type="curve" smooth="yes"/>
      <point x="115.35714285714286" y="343.0"/>
      <point x="70.35714285714286" y="291.0"/>
    </contour>
  </outline>
</glyph>
<glyph name="exclamdown" format="2">
  <advance width="268.82142857142856"/>
  <unicode hex="00A1"/>
  <outline>
    <contour>
      <point x="56.03571428571429" y="-198.92857142857142" type="line"/>
      <point x="212.78571428571428" y="-198.92857142857142" type="line"/>
      <point x="150.78571428571428" y="242.85714285714286" type="line"/>
      <point x="118.64285714285714" y="242.85714285714286" type="line"/>
    </contour>
    <contour>
      <point x="134.71428571428572" y="317.3571428571429" type="curve" smooth="yes"/>
      <point x="174.60714285714286" y="317.3571428571429"/>
      <point x="209.07142857142856" y="351.42857142857144"/>
      <point x="209.07142857142856" y="391.7142857142857" type="curve" smooth="yes"/>
      <point x="209.07142857142856" y="431.60714285714283"/>
      <point x="174.60714285714286" y="466.07142857142856"/>
      <point x="134.71428571428572" y="466.07142857142856" type="curve" smooth="yes"/>
      <point x="94.42857142857143" y="466.07142857142856"/>
      <point x="60.35714285714286" y="431.60714285714283"/>
      <point x="60.35714285714286" y="391.7142857142857" type="curve" smooth="yes"/>
      <point x="60.35714285714286" y="351.42857142857144"/>
      <point x="94.42857142857143" y="317.3571428571429"/>
    </contour>
  </outline>
</glyph>
<glyph name="cent" format="2">
  <advance width="560.7142857142857"/>
  <unicode hex="00A2"/>
  <outline>
    <contour>
      <point x="282.7857142857143" y="92.35714285714286" type="curve" smooth="yes"/>
      <point x="372.9642857142857" y="92.35714285714286"/>
      <point x="438.82142857142856" y="140.85714285714286"/>
      <point x="477.2142857142857" y="207.17857142857144" type="curve"/>
      <point x="477.2142857142857" y="242.32142857142856" type="line"/>
      <point x="474.2142857142857" y="242.32142857142856" type="line"/>
      <point x="430.2857142857143" y="215.32142857142856"/>
      <point x="384.0357142857143" y="202.92857142857142"/>
      <point x="347.0357142857143" y="202.92857142857142" type="curve" smooth="yes"/>
      <point x="255.14285714285714" y="202.92857142857142"/>
      <point x="203.53571428571428" y="254.14285714285714"/>
      <point x="203.53571428571428" y="357.0" type="curve" smooth="yes"/>
      <point x="203.53571428571428" y="457.9642857142857"/>
      <point x="234.39285714285714" y="523.25"/>
      <point x="295.85714285714283" y="523.25" type="curve" smooth="yes"/>
      <point x="336.2142857142857" y="523.25"/>
      <point x="351.67857142857144" y="502.7857142857143"/>
      <point x="375.32142857142856" y="470.92857142857144" type="curve" smooth="yes"/>
      <point x="408.7142857142857" y="425.5357142857143" type="line"/>
      <point x="415.7142857142857" y="425.5357142857143" type="line"/>
      <point x="462.82142857142856" y="465.42857142857144" type="line" smooth="yes"/>
      <point x="472.82142857142856" y="474.0357142857143"/>
      <point x="475.2142857142857" y="479.42857142857144"/>
      <point x="475.2142857142857" y="489.42857142857144" type="curve" smooth="yes"/>
      <point x="475.2142857142857" y="497.42857142857144"/>
      <point x="470.82142857142856" y="506.42857142857144"/>
      <point x="459.82142857142856" y="519.4285714285714" type="curve" smooth="yes"/>
      <point x="433.2142857142857" y="549.0357142857143"/>
      <point x="379.6428571428571" y="568.0357142857143"/>
      <point x="317.75" y="568.0357142857143" type="curve" smooth="yes"/>
      <point x="167.10714285714286" y="568.0357142857143"/>
      <point x="66.5" y="461.2142857142857"/>
      <point x="66.5" y="309.7857142857143" type="curve" smooth="yes"/>
      <point x="66.5" y="178.57142857142858"/>
      <point x="153.78571428571428" y="92.35714285714286"/>
    </contour>
    <contour>
      <point x="192.89285714285714" y="26.0" type="line"/>
      <point x="235.35714285714286" y="26.0" type="line"/>
      <point x="385.35714285714283" y="635.0" type="line"/>
      <point x="342.89285714285717" y="635.0" type="line"/>
    </contour>
  </outline>
</glyph>
<glyph name="sterling" format="2">
  <advance width="560.7142857142857"/>
  <unicode hex="00A3"/>
  <outline>
    <contour>
      <point x="54.285714285714285" y="0.0" type="line"/>
      <point x="492.5357142857143" y="0.0" type="line"/>
      <point x="502.5357142857143" y="209.35714285714283" type="line"/>
      <point x="466.5357142857143" y="209.35714285714283" type="line"/>
      <point x="436.5357142857143" y="112.35714285714285" type="line"/>
      <point x="148.5" y="112.35714285714285" type="line"/>
      <point x="147.17857142857142" y="98.53571428571428" type="line"/>
      <point x="265.42857142857144" y="149.35714285714286"/>
      <point x="324.85714285714283" y="192.85714285714286"/>
      <point x="324.85714285714283" y="268.07142857142856" type="curve" smooth="yes"/>
      <point x="324.85714285714283" y="345.64285714285717"/>
      <point x="231.0" y="459.9642857142857"/>
      <point x="231.0" y="533.25" type="curve" smooth="yes"/>
      <point x="231.0" y="579.7857142857143"/>
      <point x="253.67857142857142" y="622.0"/>
      <point x="306.10714285714283" y="622.0" type="curve" smooth="yes"/>
      <point x="353.5" y="622.0"/>
      <point x="373.07142857142856" y="577.8928571428571"/>
      <point x="395.7857142857143" y="536.25" type="curve" smooth="yes"/>
      <point x="409.7857142857143" y="510.25" type="line"/>
      <point x="416.7857142857143" y="510.25" type="line"/>
      <point x="474.5357142857143" y="552.9285714285714" type="line" smooth="yes"/>
      <point x="485.1428571428571" y="560.9285714285714"/>
      <point x="487.5357142857143" y="566.9285714285714"/>
      <point x="487.5357142857143" y="576.9285714285714" type="curve" smooth="yes"/>
      <point x="487.5357142857143" y="584.9285714285714"/>
      <point x="482.5357142857143" y="593.9285714285714"/>
      <point x="471.5357142857143" y="606.9285714285714" type="curve" smooth="yes"/>
      <point x="445.75" y="638.7142857142857"/>
      <point x="391.2857142857143" y="670.0"/>
      <point x="307.10714285714283" y="670.0" type="curve" smooth="yes"/>
      <point x="182.03571428571428" y="670.0"/>
      <point x="92.28571428571429" y="578.8928571428571"/>
      <point x="92.28571428571429" y="475.85714285714283" type="curve" smooth="yes"/>
      <point x="92.28571428571429" y="396.10714285714283"/>
      <point x="174.60714285714286" y="294.64285714285717"/>
      <point x="174.60714285714286" y="230.75" type="curve" smooth="yes"/>
      <point x="174.60714285714286" y="178.71428571428572"/>
      <point x="155.78571428571428" y="138.85714285714286"/>
      <point x="54.285714285714285" y="58.21428571428571" type="curve"/>
    </contour>
    <contour>
      <point x="50.285714285714285" y="313.17857142857144" type="line"/>
      <point x="438.5357142857143" y="313.17857142857144" type="line"/>
      <point x="438.5357142857143" y="354.82142857142856" type="line"/>
      <point x="50.285714285714285" y="354.82142857142856" type="line"/>
    </contour>
  </outline>
</glyph>
<glyph name="currency" format="2">
  <advance width="560.7142857142857"/>
  <unicode hex="00A4"/>
  <outline>
    <contour>
      <point x="69.14285714285714" y="100.42857142857143" type="line"/>
      <point x="110.0" y="60.17857142857143" type="line"/>
      <point x="187.78571428571428" y="137.96428571428572" type="line"/>
      <point x="212.96428571428572" y="120.17857142857143"/>
      <point x="245.35714285714286" y="108.78571428571429"/>
      <point x="280.35714285714283" y="108.78571428571429" type="curve" smooth="yes"/>
      <point x="314.75" y="108.78571428571429"/>
      <point x="346.5357142857143" y="119.57142857142857"/>
      <point x="372.92857142857144" y="137.96428571428572" type="curve"/>
      <point x="450.7142857142857" y="60.17857142857143" type="line"/>
      <point x="491.57142857142856" y="100.42857142857143" type="line"/>
      <point x="413.7857142857143" y="178.21428571428572" type="line"/>
      <point x="432.17857142857144" y="204.60714285714286"/>
      <point x="443.57142857142856" y="237.0"/>
      <point x="443.57142857142856" y="272.0" type="curve" smooth="yes"/>
      <point x="443.57142857142856" y="306.39285714285717"/>
      <point x="432.17857142857144" y="338.7857142857143"/>
      <point x="413.7857142857143" y="365.7857142857143" type="curve"/>
      <point x="491.57142857142856" y="443.57142857142856" type="line"/>
      <point x="450.7142857142857" y="483.82142857142856" type="line"/>
      <point x="372.92857142857144" y="406.0357142857143" type="line"/>
      <point x="347.75" y="423.82142857142856"/>
      <point x="315.35714285714283" y="435.2142857142857"/>
      <point x="280.35714285714283" y="435.2142857142857" type="curve" smooth="yes"/>
      <point x="245.96428571428572" y="435.2142857142857"/>
      <point x="214.17857142857144" y="424.42857142857144"/>
      <point x="187.78571428571428" y="406.0357142857143" type="curve"/>
      <point x="110.0" y="483.82142857142856" type="line"/>
      <point x="69.14285714285714" y="443.57142857142856" type="line"/>
      <point x="146.92857142857142" y="365.7857142857143" type="line"/>
      <point x="128.53571428571428" y="339.39285714285717"/>
      <point x="117.14285714285714" y="307.0"/>
      <point x="117.14285714285714" y="272.0" type="curve" smooth="yes"/>
      <point x="117.14285714285714" y="237.60714285714286"/>
      <point x="128.53571428571428" y="205.21428571428572"/>
      <point x="146.92857142857142" y="178.21428571428572" type="curve"/>
    </contour>
    <contour>
      <point x="280.35714285714283" y="160.03571428571428" type="curve" smooth="yes"/>
      <point x="219.78571428571428" y="160.03571428571428"/>
      <point x="174.0" y="207.0"/>
      <point x="174.0" y="272.0" type="curve" smooth="yes"/>
      <point x="174.0" y="337.0"/>
      <point x="219.78571428571428" y="383.9642857142857"/>
      <point x="280.35714285714283" y="383.9642857142857" type="curve" smooth="yes"/>
      <point x="340.92857142857144" y="383.9642857142857"/>
      <point x="386.7142857142857" y="337.0"/>
      <point x="386.7142857142857" y="272.0" type="curve" smooth="yes"/>
      <point x="386.7142857142857" y="207.0"/>
      <point x="340.92857142857144" y="160.03571428571428"/>
    </contour>
  </outline>
</glyph>
<glyph name="yen" format="2">
  <advance width="560.7142857142857"/>
  <unicode hex="00A5"/>
  <outline>
    <contour>
      <point x="123.03571428571429" y="0.0" type="line"/>
      <point x="443.6071428571429" y="0.0" type="line"/>
      <point x="443.6071428571429" y="16.0" type="line"/>
      <point x="356.17857142857144" y="57.214285714285715" type="line"/>
      <point x="356.17857142857144" y="436.92857142857144" type="line"/>
      <point x="330.67857142857144" y="359.10714285714283" type="line"/>
      <point x="513.0" y="634.75" type="line"/>
      <point x="448.8928571428571" y="599.3214285714286" type="line"/>
      <point x="559.9285714285714" y="644.0" type="line"/>
      <point x="559.9285714285714" y="660.0" type="line"/>
      <point x="358.42857142857144" y="660.0" type="line"/>
      <point x="358.42857142857144" y="644.0" type="line"/>
      <point x="423.4642857142857" y="616.1785714285714" type="line"/>
      <point x="423.4642857142857" y="612.5714285714286" type="line"/>
      <point x="309.35714285714283" y="419.57142857142856" type="line"/>
      <point x="345.32142857142856" y="431.7142857142857" type="line"/>
      <point x="221.85714285714286" y="615.75" type="line"/>
      <point x="221.85714285714286" y="618.9642857142857" type="line"/>
      <point x="285.2857142857143" y="644.0" type="line"/>
      <point x="285.2857142857143" y="660.0" type="line"/>
      <point x="1.3928571428571423" y="660.0" type="line"/>
      <point x="1.3928571428571423" y="644.0" type="line"/>
      <point x="90.78571428571429" y="599.3214285714286" type="line"/>
      <point x="41.17857142857143" y="634.75" type="line"/>
      <point x="236.35714285714286" y="360.32142857142856" type="line"/>
      <point x="210.46428571428572" y="436.92857142857144" type="line"/>
      <point x="210.46428571428572" y="57.214285714285715" type="line"/>
      <point x="123.03571428571429" y="16.0" type="line"/>
    </contour>
    <contour>
      <point x="76.85714285714286" y="387.17857142857144" type="line"/>
      <point x="487.57142857142856" y="387.17857142857144" type="line"/>
      <point x="487.57142857142856" y="428.82142857142856" type="line"/>
      <point x="76.85714285714286" y="428.82142857142856" type="line"/>
    </contour>
    <contour>
      <point x="76.85714285714286" y="237.78571428571428" type="line"/>
      <point x="487.57142857142856" y="237.78571428571428" type="line"/>
      <point x="487.57142857142856" y="279.42857142857144" type="line"/>
      <point x="76.85714285714286" y="279.42857142857144" type="line"/>
    </contour>
  </outline>
</glyph>
<glyph name="section" format="2">
  <advance width="534.6071428571429"/>
  <unicode hex="00A7"/>
  <outline>
    <contour>
      <point x="502.6428571428571" y="298.89285714285717" type="curve" smooth="yes"/>
      <point x="502.6428571428571" y="488.67857142857144"/>
      <point x="208.5" y="418.07142857142856"/>
      <point x="208.5" y="552.7142857142857" type="curve" smooth="yes"/>
      <point x="208.5" y="593.0714285714286"/>
      <point x="240.21428571428572" y="620.0"/>
      <point x="284.7857142857143" y="620.0" type="curve" smooth="yes"/>
      <point x="331.67857142857144" y="620.0"/>
      <point x="358.4642857142857" y="578.75"/>
      <point x="378.0357142857143" y="557.1785714285714" type="curve" smooth="yes"/>
      <point x="392.35714285714283" y="541.8571428571429" type="line"/>
      <point x="400.0" y="540.0357142857143" type="line"/>
      <point x="442.8928571428571" y="580.3214285714286" type="line" smooth="yes"/>
      <point x="450.07142857142856" y="587.5"/>
      <point x="454.07142857142856" y="593.2857142857143"/>
      <point x="455.2857142857143" y="599.2857142857143" type="curve" smooth="yes"/>
      <point x="457.1071428571429" y="608.2857142857143"/>
      <point x="454.3571428571429" y="616.2857142857143"/>
      <point x="441.7142857142857" y="628.1071428571429" type="curve" smooth="yes"/>
      <point x="418.67857142857144" y="648.3214285714286"/>
      <point x="380.9642857142857" y="670.0"/>
      <point x="315.2142857142857" y="670.0" type="curve" smooth="yes"/>
      <point x="187.78571428571428" y="670.0"/>
      <point x="99.21428571428571" y="593.4285714285714"/>
      <point x="99.21428571428571" y="496.32142857142856" type="curve" smooth="yes"/>
      <point x="99.21428571428571" y="293.2142857142857"/>
      <point x="398.2142857142857" y="384.07142857142856"/>
      <point x="398.2142857142857" y="244.5" type="curve" smooth="yes"/>
      <point x="398.2142857142857" y="207.21428571428572"/>
      <point x="365.82142857142856" y="180.92857142857142"/>
      <point x="328.57142857142856" y="174.85714285714286" type="curve"/>
      <point x="328.57142857142856" y="135.17857142857142" type="line"/>
      <point x="431.57142857142856" y="150.75"/>
      <point x="502.6428571428571" y="206.17857142857142"/>
    </contour>
    <contour>
      <point x="220.17857142857144" y="-121.21428571428571" type="curve" smooth="yes"/>
      <point x="338.57142857142856" y="-121.21428571428571"/>
      <point x="442.2857142857143" y="-40.42857142857143"/>
      <point x="442.2857142857143" y="50.42857142857143" type="curve" smooth="yes"/>
      <point x="442.2857142857143" y="250.39285714285714"/>
      <point x="137.17857142857142" y="165.10714285714286"/>
      <point x="137.17857142857142" y="306.25" type="curve" smooth="yes"/>
      <point x="137.17857142857142" y="347.32142857142856"/>
      <point x="164.35714285714286" y="376.4642857142857"/>
      <point x="213.07142857142856" y="384.5357142857143" type="curve"/>
      <point x="213.07142857142858" y="417.14285714285717" type="line"/>
      <point x="106.85714285714286" y="403.35714285714283"/>
      <point x="30.785714285714285" y="344.07142857142856"/>
      <point x="30.785714285714285" y="252.96428571428572" type="curve" smooth="yes"/>
      <point x="30.785714285714285" y="56.642857142857146"/>
      <point x="333.0" y="131.89285714285717"/>
      <point x="333.0" y="-2.5714285714285694" type="curve" smooth="yes"/>
      <point x="333.0" y="-44.14285714285714"/>
      <point x="301.85714285714283" y="-69.64285714285714"/>
      <point x="256.75" y="-69.64285714285714" type="curve" smooth="yes"/>
      <point x="206.67857142857144" y="-69.64285714285714"/>
      <point x="172.21428571428572" y="-26.821428571428577"/>
      <point x="151.85714285714286" y="-4.464285714285715" type="curve" smooth="yes"/>
      <point x="137.14285714285714" y="11.642857142857139" type="line"/>
      <point x="129.10714285714286" y="13.464285714285708" type="line"/>
      <point x="85.03571428571429" y="-28.0" type="line" smooth="yes"/>
      <point x="77.46428571428571" y="-34.78571428571429"/>
      <point x="73.85714285714286" y="-41.75"/>
      <point x="72.64285714285714" y="-47.35714285714286" type="curve" smooth="yes"/>
      <point x="70.82142857142857" y="-56.35714285714286"/>
      <point x="73.17857142857143" y="-64.75"/>
      <point x="86.60714285714286" y="-77.35714285714286" type="curve" smooth="yes"/>
      <point x="109.64285714285714" y="-97.96428571428572"/>
      <point x="153.25" y="-121.21428571428571"/>
    </contour>
  </outline>
</glyph>
<glyph name="copyright" format="2">
  <advance width="806.0"/>
  <unicode hex="00A9"/>
  <outline>
    <contour>
      <point x="403.0" y="-10.0" type="curve" smooth="yes"/>
      <point x="594.0" y="-10.0"/>
      <point x="736.0" y="134.0"/>
      <point x="736.0" y="330.0" type="curve" smooth="yes"/>
      <point x="736.0" y="526.0"/>
      <point x="594.0" y="670.0"/>
      <point x="403.0" y="670.0" type="curve" smooth="yes"/>
      <point x="212.0" y="670.0"/>
      <point x="70.0" y="526.0"/>
      <point x="70.0" y="330.0" type="curve" smooth="yes"/>
      <point x="70.0" y="134.0"/>
      <point x="212.0" y="-10.0"/>
    </contour>
    <contour>
      <point x="403.0" y="29.642857142857142" type="curve" smooth="yes"/>
      <point x="236.42857142857142" y="29.642857142857142"/>
      <point x="112.25" y="156.82142857142858"/>
      <point x="112.25" y="330.0" type="curve" smooth="yes"/>
      <point x="112.25" y="503.17857142857144"/>
      <point x="236.42857142857142" y="630.3571428571429"/>
      <point x="403.0" y="630.3571428571429" type="curve" smooth="yes"/>
      <point x="569.5714285714286" y="630.3571428571429"/>
      <point x="693.75" y="503.17857142857144"/>
      <point x="693.75" y="330.0" type="curve" smooth="yes"/>
      <point x="693.75" y="156.82142857142858"/>
      <point x="569.5714285714286" y="29.642857142857142"/>
    </contour>
    <contour>
      <point x="417.64285714285717" y="129.0" type="curve" smooth="yes"/>
      <point x="480.07142857142856" y="129.0"/>
      <point x="518.6785714285714" y="143.21428571428572"/>
      <point x="558.5" y="162.82142857142858" type="curve"/>
      <point x="566.5" y="266.0" type="line"/>
      <point x="537.5" y="266.0" type="line"/>
      <point x="480.14285714285717" y="176.0" type="line"/>
      <point x="521.5" y="210.0" type="line"/>
      <point x="494.57142857142856" y="191.46428571428572"/>
      <point x="468.7857142857143" y="175.0"/>
      <point x="425.14285714285717" y="175.0" type="curve" smooth="yes"/>
      <point x="357.0" y="175.0"/>
      <point x="305.6428571428571" y="237.0"/>
      <point x="305.6428571428571" y="341.0" type="curve" smooth="yes"/>
      <point x="305.6428571428571" y="430.0"/>
      <point x="357.7857142857143" y="495.0"/>
      <point x="430.5" y="495.0" type="curve" smooth="yes"/>
      <point x="460.5" y="495.0"/>
      <point x="478.5" y="483.0"/>
      <point x="514.5" y="458.0" type="curve"/>
      <point x="477.7142857142857" y="493.35714285714283" type="line"/>
      <point x="530.5" y="394.0" type="line"/>
      <point x="559.5" y="394.0" type="line"/>
      <point x="555.5" y="509.0" type="line"/>
      <point x="518.8928571428571" y="527.6071428571429"/>
      <point x="489.07142857142856" y="540.0"/>
      <point x="427.85714285714283" y="540.0" type="curve" smooth="yes"/>
      <point x="306.35714285714283" y="540.0"/>
      <point x="205.28571428571428" y="444.07142857142856"/>
      <point x="205.28571428571428" y="324.0" type="curve" smooth="yes"/>
      <point x="205.28571428571428" y="207.75"/>
      <point x="285.14285714285717" y="129.0"/>
    </contour>
  </outline>
</glyph>
<glyph name="ordfeminine" format="2">
  <advance width="413.9642857142857"/>
  <unicode hex="00AA"/>
  <outline>
    <contour>
      <point x="144.0" y="417.0" type="curve" smooth="yes"/>
      <point x="174.21428571428572" y="417.0"/>
      <point x="200.21428571428572" y="432.2142857142857"/>
      <point x="218.60714285714286" y="452.60714285714283" type="curve"/>
      <point x="228.0" y="452.60714285714283" type="line"/>
      <point x="228.0" y="470.0" type="line"/>
      <point x="214.03571428571428" y="463.2142857142857"/>
      <point x="206.5" y="461.0357142857143"/>
      <point x="194.92857142857142" y="461.0357142857143" type="curve" smooth="yes"/>
      <point x="176.17857142857142" y="461.0357142857143"/>
      <point x="161.96428571428572" y="473.25"/>
      <point x="161.96428571428572" y="492.82142857142856" type="curve" smooth="yes"/>
      <point x="161.96428571428572" y="520.8214285714286"/>
      <point x="177.17857142857142" y="535.8214285714286"/>
      <point x="235.0" y="546.0" type="curve"/>
      <point x="235.0" y="569.0" type="line"/>
      <point x="168.0" y="552.0" type="line" smooth="yes"/>
      <point x="101.0" y="535.0"/>
      <point x="82.0" y="515.0"/>
      <point x="82.0" y="477.0" type="curve" smooth="yes"/>
      <point x="82.0" y="439.0"/>
      <point x="110.0" y="417.0"/>
    </contour>
    <contour>
      <point x="282.67857142857144" y="417.0" type="curve" smooth="yes"/>
      <point x="318.35714285714283" y="417.0"/>
      <point x="335.75" y="431.2142857142857"/>
      <point x="344.9642857142857" y="445.2142857142857" type="curve"/>
      <point x="344.9642857142857" y="454.25" type="line"/>
      <point x="342.9642857142857" y="456.25" type="line"/>
      <point x="327.9642857142857" y="456.25" type="line" smooth="yes"/>
      <point x="314.9642857142857" y="456.25"/>
      <point x="305.9642857142857" y="460.25"/>
      <point x="300.9642857142857" y="465.25" type="curve"/>
      <point x="300.9642857142857" y="602.0" type="line" smooth="yes"/>
      <point x="300.9642857142857" y="649.4285714285714"/>
      <point x="258.67857142857144" y="669.6071428571429"/>
      <point x="201.67857142857142" y="669.6071428571429" type="curve" smooth="yes"/>
      <point x="173.25" y="669.6071428571429"/>
      <point x="149.82142857142856" y="662.2142857142857"/>
      <point x="124.0" y="646.0" type="curve" smooth="yes"/>
      <point x="103.0" y="633.0"/>
      <point x="91.0" y="618.0"/>
      <point x="91.0" y="602.0" type="curve" smooth="yes"/>
      <point x="91.0" y="590.0"/>
      <point x="94.0" y="586.0"/>
      <point x="105.0" y="586.0" type="curve" smooth="yes"/>
      <point x="152.96428571428572" y="586.0" type="line"/>
      <point x="154.96428571428572" y="588.0" type="line"/>
      <point x="154.96428571428572" y="615.8571428571429" type="line" smooth="yes"/>
      <point x="154.96428571428572" y="633.4285714285714"/>
      <point x="162.14285714285714" y="641.3928571428571"/>
      <point x="180.67857142857142" y="641.3928571428571" type="curve" smooth="yes"/>
      <point x="203.85714285714286" y="641.3928571428571"/>
      <point x="218.0" y="624.3928571428571"/>
      <point x="218.0" y="599.8214285714286" type="curve" smooth="yes"/>
      <point x="218.0" y="459.0" type="line"/>
      <point x="219.60714285714286" y="459.0" type="line"/>
      <point x="226.60714285714286" y="433.0"/>
      <point x="250.67857142857142" y="417.0"/>
    </contour>
    <contour>
      <point x="85.0" y="290.7857142857143" type="line"/>
      <point x="333.2142857142857" y="290.7857142857143" type="line"/>
      <point x="333.2142857142857" y="343.82142857142856" type="line"/>
      <point x="85.0" y="343.82142857142856" type="line"/>
    </contour>
  </outline>
</glyph>
<glyph name="logicalnot" format="2">
  <advance width="560.7142857142857"/>
  <unicode hex="00AC"/>
  <outline>
    <contour>
      <point x="433.07142857142856" y="62.0" type="line"/>
      <point x="490.35714285714283" y="62.0" type="line"/>
      <point x="490.35714285714283" y="299.42857142857144" type="line"/>
      <point x="70.35714285714286" y="299.42857142857144" type="line"/>
      <point x="70.35714285714286" y="244.57142857142858" type="line"/>
      <point x="433.07142857142856" y="244.57142857142858" type="line"/>
    </contour>
  </outline>
</glyph>
<glyph name="registered" format="2">
  <advance width="552.1428571428571"/>
  <unicode hex="00AE"/>
  <outline>
    <contour>
      <point x="276.07142857142856" y="227.07142857142858" type="curve" smooth="yes"/>
      <point x="401.7142857142857" y="227.07142857142858"/>
      <point x="493.5357142857143" y="322.5"/>
      <point x="493.5357142857143" y="448.5357142857143" type="curve" smooth="yes"/>
      <point x="493.5357142857143" y="574.5714285714286"/>
      <point x="401.7142857142857" y="670.0"/>
      <point x="276.07142857142856" y="670.0" type="curve" smooth="yes"/>
      <point x="150.42857142857142" y="670.0"/>
      <point x="58.607142857142854" y="574.5714285714286"/>
      <point x="58.607142857142854" y="448.5357142857143" type="curve" smooth="yes"/>
      <point x="58.607142857142854" y="322.5"/>
      <point x="150.42857142857142" y="227.07142857142858"/>
    </contour>
    <contour>
      <point x="276.07142857142856" y="260.10714285714283" type="curve" smooth="yes"/>
      <point x="168.85714285714286" y="260.10714285714283"/>
      <point x="95.85714285714286" y="341.32142857142856"/>
      <point x="95.85714285714286" y="448.5357142857143" type="curve" smooth="yes"/>
      <point x="95.85714285714286" y="555.75"/>
      <point x="168.85714285714286" y="636.9642857142857"/>
      <point x="276.07142857142856" y="636.9642857142857" type="curve" smooth="yes"/>
      <point x="383.2857142857143" y="636.9642857142857"/>
      <point x="456.2857142857143" y="555.75"/>
      <point x="456.2857142857143" y="448.5357142857143" type="curve" smooth="yes"/>
      <point x="456.2857142857143" y="341.32142857142856"/>
      <point x="383.2857142857143" y="260.10714285714283"/>
    </contour>
    <contour>
      <point x="161.39285714285714" y="322.92857142857144" type="line"/>
      <point x="276.5357142857143" y="322.92857142857144" type="line"/>
      <point x="276.5357142857143" y="329.92857142857144" type="line"/>
      <point x="246.53571428571428" y="345.92857142857144" type="line"/>
      <point x="246.53571428571428" y="577.9285714285714" type="line"/>
      <point x="161.39285714285714" y="577.9285714285714" type="line"/>
      <point x="161.39285714285714" y="571.9285714285714" type="line"/>
      <point x="192.39285714285714" y="555.9285714285714" type="line"/>
      <point x="192.39285714285714" y="345.92857142857144" type="line"/>
      <point x="161.39285714285714" y="329.92857142857144" type="line"/>
    </contour>
    <contour>
      <point x="367.5357142857143" y="514.9285714285714" type="curve" smooth="yes"/>
      <point x="367.5357142857143" y="553.9285714285714"/>
      <point x="334.5357142857143" y="577.9285714285714"/>
      <point x="280.5357142857143" y="577.9285714285714" type="curve" smooth="yes"/>
      <point x="209.39285714285714" y="577.9285714285714" type="line"/>
      <point x="209.39285714285714" y="554.9285714285714" type="line"/>
      <point x="256.39285714285717" y="554.9285714285714" type="line" smooth="yes"/>
      <point x="287.39285714285717" y="554.9285714285714"/>
      <point x="310.39285714285717" y="540.9285714285714"/>
      <point x="310.39285714285717" y="509.92857142857144" type="curve" smooth="yes"/>
      <point x="310.39285714285717" y="478.92857142857144"/>
      <point x="287.39285714285717" y="462.92857142857144"/>
      <point x="258.39285714285717" y="462.92857142857144" type="curve"/>
      <point x="212.39285714285714" y="462.92857142857144" type="line"/>
      <point x="212.39285714285714" y="439.92857142857144" type="line"/>
      <point x="284.5357142857143" y="439.92857142857144" type="line"/>
      <point x="284.5357142857143" y="442.92857142857144" type="line"/>
      <point x="332.5357142857143" y="447.92857142857144"/>
      <point x="367.5357142857143" y="477.92857142857144"/>
    </contour>
    <contour>
      <point x="317.39285714285717" y="322.92857142857144" type="line"/>
      <point x="394.75" y="322.92857142857144" type="line"/>
      <point x="394.75" y="329.92857142857144" type="line"/>
      <point x="368.75" y="342.92857142857144" type="line"/>
      <point x="311.75" y="454.92857142857144" type="line"/>
      <point x="256.64285714285717" y="454.92857142857144" type="line"/>
    </contour>
  </outline>
</glyph>
<glyph name="degree" format="2">
  <advance width="500.0"/>
  <unicode hex="00B0"/>
  <outline>
    <contour>
      <point x="250.0" y="410.0" type="curve" smooth="yes"/>
      <point x="325.0" y="410.0"/>
      <point x="380.0" y="470.0"/>
      <point x="380.0" y="540.0" type="curve" smooth="yes"/>
      <point x="380.0" y="610.0"/>
      <point x="325.0" y="670.0"/>
      <point x="250.0" y="670.0" type="curve" smooth="yes"/>
      <point x="175.0" y="670.0"/>
      <point x="120.0" y="610.0"/>
      <point x="120.0" y="540.0" type="curve" smooth="yes"/>
      <point x="120.0" y="470.0"/>
      <point x="175.0" y="410.0"/>
    </contour>
    <contour>
      <point x="250.0" y="453.25" type="curve" smooth="yes"/>
      <point x="204.64285714285714" y="453.25"/>
      <point x="168.67857142857142" y="486.28048780489286"/>
      <point x="168.67857142857142" y="540.0" type="curve" smooth="yes"/>
      <point x="168.67857142857142" y="593.7195121951071"/>
      <point x="204.64285714285714" y="626.75"/>
      <point x="250.0" y="626.75" type="curve" smooth="yes"/>
      <point x="295.35714285714283" y="626.75"/>
      <point x="331.32142857142856" y="593.7195121951071"/>
      <point x="331.32142857142856" y="540.0" type="curve" smooth="yes"/>
      <point x="331.32142857142856" y="486.28048780489286"/>
      <point x="295.35714285714283" y="453.25"/>
    </contour>
  </outline>
</glyph>
<glyph name="plusminus" format="2">
  <advance width="560.7142857142857"/>
  <unicode hex="00B1"/>
  <outline>
    <contour>
      <point x="70.35714285714286" y="284.57142857142856" type="line"/>
      <point x="490.35714285714283" y="284.57142857142856" type="line"/>
      <point x="490.35714285714283" y="339.42857142857144" type="line"/>
      <point x="70.35714285714286" y="339.42857142857144" type="line"/>
    </contour>
    <contour>
      <point x="251.32142857142856" y="152.0" type="line"/>
      <point x="309.3928571428571" y="152.0" type="line"/>
      <point x="309.3928571428571" y="482.0" type="line"/>
      <point x="251.32142857142856" y="482.0" type="line"/>
    </contour>
    <contour>
      <point x="70.35714285714286" y="59.57142857142857" type="line"/>
      <point x="490.35714285714283" y="59.57142857142857" type="line"/>
      <point x="490.35714285714283" y="114.42857142857143" type="line"/>
      <point x="70.35714285714286" y="114.42857142857143" type="line"/>
    </contour>
  </outline>
</glyph>
<glyph name="paragraph" format="2">
  <advance width="515.4285714285714"/>
  <unicode hex="00B6"/>
  <outline>
    <contour>
      <point x="264.17857142857144" y="-110.0" type="line"/>
      <point x="322.07142857142856" y="-110.0" type="line"/>
      <point x="322.07142857142856" y="660.0" type="line"/>
      <point x="207.0" y="660.0" type="line" smooth="yes"/>
      <point x="104.0" y="660.0"/>
      <point x="35.0" y="615.0"/>
      <point x="35.0" y="514.0" type="curve" smooth="yes"/>
      <point x="35.0" y="425.0"/>
      <point x="115.0" y="359.0"/>
      <point x="223.0" y="359.0" type="curve" smooth="yes"/>
      <point x="264.17857142857144" y="359.0" type="line"/>
    </contour>
    <contour>
      <point x="376.0" y="-110.0" type="line"/>
      <point x="433.8928571428571" y="-110.0" type="line"/>
      <point x="433.8928571428571" y="602.7857142857143" type="line"/>
      <point x="519.3571428571429" y="644.0" type="line"/>
      <point x="519.3571428571429" y="660.0" type="line"/>
      <point x="376.0" y="660.0" type="line"/>
    </contour>
  </outline>
</glyph>
<glyph name="periodcentered" format="2">
  <advance width="250.0"/>
  <unicode hex="00B7"/>
  <outline>
    <contour>
      <point x="125.0" y="197.25" type="curve" smooth="yes"/>
      <point x="165.28571428571428" y="197.25"/>
      <point x="199.35714285714286" y="231.32142857142858"/>
      <point x="199.35714285714286" y="271.60714285714283" type="curve" smooth="yes"/>
      <point x="199.35714285714286" y="311.89285714285717"/>
      <point x="165.28571428571428" y="345.9642857142857"/>
      <point x="125.0" y="345.9642857142857" type="curve" smooth="yes"/>
      <point x="84.71428571428572" y="345.9642857142857"/>
      <point x="50.642857142857146" y="311.89285714285717"/>
      <point x="50.642857142857146" y="271.60714285714283" type="curve" smooth="yes"/>
      <point x="50.642857142857146" y="231.32142857142858"/>
      <point x="84.71428571428572" y="197.25"/>
    </contour>
  </outline>
</glyph>
<glyph name="ordmasculine" format="2">
  <advance width="413.9642857142857"/>
  <unicode hex="00BA"/>
  <outline>
    <contour>
      <point x="206.67857142857142" y="416.39285714285717" type="curve" smooth="yes"/>
      <point x="284.92857142857144" y="416.39285714285717"/>
      <point x="338.9642857142857" y="473.0"/>
      <point x="338.9642857142857" y="543.0" type="curve" smooth="yes"/>
      <point x="338.9642857142857" y="612.0"/>
      <point x="285.5357142857143" y="669.6071428571429"/>
      <point x="207.28571428571428" y="669.6071428571429" type="curve" smooth="yes"/>
      <point x="128.03571428571428" y="669.6071428571429"/>
      <point x="75.0" y="612.0"/>
      <point x="75.0" y="543.0" type="curve" smooth="yes"/>
      <point x="75.0" y="473.0"/>
      <point x="127.42857142857143" y="416.39285714285717"/>
    </contour>
    <contour>
      <point x="212.07142857142858" y="443.2142857142857" type="curve" smooth="yes"/>
      <point x="177.07142857142856" y="443.2142857142857"/>
      <point x="161.57142857142856" y="494.92857142857144"/>
      <point x="161.57142857142856" y="554.0" type="curve" smooth="yes"/>
      <point x="161.57142857142856" y="600.3214285714286"/>
      <point x="173.5" y="642.7857142857143"/>
      <point x="202.28571428571428" y="642.7857142857143" type="curve" smooth="yes"/>
      <point x="236.67857142857142" y="642.7857142857143"/>
      <point x="252.39285714285714" y="590.2857142857143"/>
      <point x="252.39285714285714" y="532.0" type="curve" smooth="yes"/>
      <point x="252.39285714285714" y="485.10714285714283"/>
      <point x="240.25" y="443.2142857142857"/>
    </contour>
    <contour>
      <point x="85.0" y="290.7857142857143" type="line"/>
      <point x="333.2142857142857" y="290.7857142857143" type="line"/>
      <point x="333.2142857142857" y="343.82142857142856" type="line"/>
      <point x="85.0" y="343.82142857142856" type="line"/>
    </contour>
  </outline>
</glyph>
<glyph name="questiondown" format="2">
  <advance width="479.0"/>
  <unicode hex="00BF"/>
  <outline>
    <contour>
      <point x="232.39285714285714" y="-208.92857142857142" type="curve" smooth="yes"/>
      <point x="296.9642857142857" y="-208.92857142857142"/>
      <point x="339.89285714285717" y="-188.39285714285714"/>
      <point x="387.7142857142857" y="-152.96428571428572" type="curve" smooth="yes"/>
      <point x="426.89285714285717" y="-123.75"/>
      <point x="449.5357142857143" y="-90.21428571428571"/>
      <point x="449.5357142857143" y="-49.964285714285715" type="curve" smooth="yes"/>
      <point x="449.5357142857143" y="-16.17857142857143"/>
      <point x="438.75" y="-11.785714285714286"/>
      <point x="416.3928571428571" y="-11.785714285714286" type="curve" smooth="yes"/>
      <point x="342.60714285714283" y="-11.785714285714286" type="line"/>
      <point x="332.7857142857143" y="-23.607142857142858" type="line"/>
      <point x="332.7857142857143" y="-58.14285714285714" type="line" smooth="yes"/>
      <point x="332.7857142857143" y="-129.75"/>
      <point x="298.35714285714283" y="-166.35714285714286"/>
      <point x="248.42857142857142" y="-166.35714285714286" type="curve" smooth="yes"/>
      <point x="195.35714285714286" y="-166.35714285714286"/>
      <point x="156.5" y="-127.57142857142857"/>
      <point x="156.5" y="-51.785714285714285" type="curve" smooth="yes"/>
      <point x="156.5" y="19.071428571428573"/>
      <point x="209.03571428571428" y="66.5"/>
      <point x="315.92857142857144" y="83.28571428571429" type="curve"/>
      <point x="283.85714285714283" y="242.85714285714286" type="line"/>
      <point x="252.32142857142856" y="242.85714285714286" type="line"/>
      <point x="233.28571428571428" y="128.21428571428572" type="line"/>
      <point x="264.0" y="171.25" type="line"/>
      <point x="113.60714285714286" y="144.5"/>
      <point x="35.35714285714286" y="67.60714285714286"/>
      <point x="35.35714285714286" y="-31.92857142857143" type="curve" smooth="yes"/>
      <point x="35.35714285714286" y="-136.82142857142858"/>
      <point x="110.96428571428572" y="-208.92857142857142"/>
    </contour>
    <contour>
      <point x="269.60714285714283" y="317.3571428571429" type="curve" smooth="yes"/>
      <point x="309.8928571428571" y="317.3571428571429"/>
      <point x="343.9642857142857" y="351.42857142857144"/>
      <point x="343.9642857142857" y="391.7142857142857" type="curve" smooth="yes"/>
      <point x="343.9642857142857" y="431.60714285714283"/>
      <point x="309.8928571428571" y="466.07142857142856"/>
      <point x="269.60714285714283" y="466.07142857142856" type="curve" smooth="yes"/>
      <point x="229.71428571428572" y="466.07142857142856"/>
      <point x="195.25" y="431.60714285714283"/>
      <point x="195.25" y="391.7142857142857" type="curve" smooth="yes"/>
      <point x="195.25" y="351.42857142857144"/>
      <point x="229.71428571428572" y="317.3571428571429"/>
    </contour>
  </outline>
</glyph>
<glyph name="AE" format="2">
  <advance width="1028.75"/>
  <unicode hex="00C6"/>
  <anchor x="562.3214285714286" y="710.0" name="top"/>
  <outline>
    <contour>
      <point x="464.0" y="660.0" type="line"/>
      <point x="66.85714285714286" y="28.0" type="line"/>
      <point x="133.71428571428572" y="79.85714285714286" type="line"/>
      <point x="17.071428571428573" y="16.0" type="line"/>
      <point x="17.071428571428573" y="0.0" type="line"/>
      <point x="233.28571428571428" y="0.0" type="line"/>
      <point x="233.28571428571428" y="16.0" type="line"/>
      <point x="131.67857142857142" y="60.82142857142857" type="line"/>
      <point x="140.28571428571428" y="28.0" type="line"/>
      <point x="496.07142857142856" y="600.5714285714286" type="line"/>
      <point x="476.82142857142856" y="600.5714285714286" type="line"/>
      <point x="476.82142857142856" y="57.214285714285715" type="line"/>
      <point x="391.35714285714283" y="16.0" type="line"/>
      <point x="391.35714285714283" y="0.0" type="line"/>
      <point x="627.5357142857142" y="0.0" type="line"/>
      <point x="627.5357142857142" y="660.0" type="line"/>
    </contour>
    <contour>
      <point x="236.75" y="230.14285714285714" type="line"/>
      <point x="529.25" y="230.14285714285714" type="line"/>
      <point x="529.25" y="285.14285714285717" type="line"/>
      <point x="236.75" y="285.14285714285717" type="line"/>
    </contour>
    <contour>
      <point x="936.8214285714286" y="660.0" type="line"/>
      <point x="544.7857142857142" y="660.0" type="line"/>
      <point x="544.7857142857142" y="605.0" type="line"/>
      <point x="846.6785714285714" y="605.0" type="line"/>
      <point x="920.8214285714286" y="486.7857142857143" type="line"/>
      <point x="936.8214285714286" y="486.7857142857143" type="line"/>
    </contour>
    <contour>
      <point x="552.7857142857142" y="313.0" type="line"/>
      <point x="781.75" y="313.0" type="line"/>
      <point x="837.8214285714286" y="228.96428571428572" type="line"/>
      <point x="853.8214285714286" y="228.96428571428572" type="line"/>
      <point x="853.8214285714286" y="454.0357142857143" type="line"/>
      <point x="837.8214285714286" y="454.0357142857143" type="line"/>
      <point x="781.75" y="368.0" type="line"/>
      <point x="552.7857142857142" y="368.0" type="line"/>
    </contour>
    <contour>
      <point x="964.8214285714286" y="0.0" type="line"/>
      <point x="964.8214285714286" y="204.46428571428572" type="line"/>
      <point x="948.8214285714286" y="204.46428571428572" type="line"/>
      <point x="870.4285714285714" y="55.0" type="line"/>
      <point x="572.7857142857142" y="55.0" type="line"/>
      <point x="572.7857142857142" y="0.0" type="line"/>
    </contour>
  </outline>
</glyph>
<glyph name="Ccedilla" format="2">
  <advance width="710.8214285714286"/>
  <unicode hex="00C7"/>
  <outline>
    <contour>
      <point x="398.7857142857143" y="-10.0" type="curve" smooth="yes"/>
      <point x="495.42857142857144" y="-10.0"/>
      <point x="572.5" y="10.0"/>
      <point x="626.6428571428571" y="42.035714285714285" type="curve"/>
      <point x="641.2857142857143" y="210.75" type="line"/>
      <point x="623.6785714285714" y="210.75" type="line"/>
      <point x="518.75" y="55.32142857142857" type="line"/>
      <point x="555.5357142857143" y="91.42857142857143" type="line"/>
      <point x="513.75" y="62.64285714285714"/>
      <point x="471.42857142857144" y="43.42857142857143"/>
      <point x="411.35714285714283" y="43.42857142857143" type="curve" smooth="yes"/>
      <point x="294.7142857142857" y="43.42857142857143"/>
      <point x="206.10714285714283" y="150.78571428571428"/>
      <point x="206.10714285714283" y="326.2142857142857" type="curve" smooth="yes"/>
      <point x="206.10714285714283" y="503.39285714285717"/>
      <point x="298.1428571428571" y="620.0"/>
      <point x="419.67857142857144" y="620.0" type="curve" smooth="yes"/>
      <point x="468.82142857142856" y="620.0"/>
      <point x="495.92857142857144" y="607.2857142857143"/>
      <point x="540.1071428571429" y="576.4642857142857" type="curve"/>
      <point x="508.3571428571429" y="608.7142857142857" type="line"/>
      <point x="614.7142857142857" y="435.4642857142857" type="line"/>
      <point x="632.7142857142857" y="435.4642857142857" type="line"/>
      <point x="621.6428571428571" y="622.0" type="line"/>
      <point x="564.8214285714286" y="649.6071428571429"/>
      <point x="519.8571428571429" y="670.0"/>
      <point x="415.0" y="670.0" type="curve" smooth="yes"/>
      <point x="224.35714285714286" y="670.0"/>
      <point x="48.75" y="514.9642857142857"/>
      <point x="48.75" y="316.25" type="curve" smooth="yes"/>
      <point x="48.75" y="130.25"/>
      <point x="188.92857142857144" y="-10.0"/>
    </contour>
    <contour>
      <point x="375.10714285714283" y="-208.78571428571428" type="curve" smooth="yes"/>
      <point x="354.7857142857143" y="-208.78571428571428"/>
      <point x="334.35714285714283" y="-205.39285714285714"/>
      <point x="318.17857142857144" y="-197.39285714285714" type="curve"/>
      <point x="314.57142857142856" y="-197.39285714285714" type="line"/>
      <point x="314.57142857142856" y="-216.07142857142858" type="line"/>
      <point x="334.39285714285717" y="-232.21428571428572"/>
      <point x="360.57142857142856" y="-240.0"/>
      <point x="395.75" y="-240.0" type="curve" smooth="yes"/>
      <point x="459.9642857142857" y="-240.0"/>
      <point x="500.64285714285717" y="-201.17857142857142"/>
      <point x="500.64285714285717" y="-147.71428571428572" type="curve" smooth="yes"/>
      <point x="500.64285714285717" y="-90.10714285714286"/>
      <point x="468.6428571428571" y="-60.42857142857143"/>
      <point x="372.17857142857144" y="-35.64285714285714" type="curve"/>
      <point x="387.60714285714283" y="-64.14285714285714" type="line"/>
      <point x="428.0" y="24.25" type="line"/>
      <point x="389.9642857142857" y="24.25" type="line"/>
      <point x="331.75" y="-103.0" type="line"/>
      <point x="410.75" y="-124.35714285714286"/>
      <point x="430.32142857142856" y="-142.0"/>
      <point x="430.32142857142856" y="-170.39285714285714" type="curve" smooth="yes"/>
      <point x="430.32142857142856" y="-194.42857142857142"/>
      <point x="411.4642857142857" y="-208.78571428571428"/>
    </contour>
  </outline>
</glyph>
<glyph name="multiply" format="2">
  <advance width="560.7142857142857"/>
  <unicode hex="00D7"/>
  <outline>
    <contour>
      <point x="134.17857142857144" y="85.57142857142857" type="line"/>
      <point x="466.7857142857143" y="418.39285714285717" type="line"/>
      <point x="426.5357142857143" y="459.64285714285717" type="line"/>
      <point x="93.92857142857143" y="126.82142857142857" type="line"/>
    </contour>
    <contour>
      <point x="426.5357142857143" y="85.57142857142857" type="line"/>
      <point x="466.7857142857143" y="126.82142857142857" type="line"/>
      <point x="134.17857142857144" y="459.64285714285717" type="line"/>
      <point x="93.92857142857143" y="418.39285714285717" type="line"/>
    </contour>
  </outline>
</glyph>
<glyph name="Thorn" format="2">
  <advance width="683.5357142857142"/>
  <unicode hex="00DE"/>
  <outline>
    <contour>
      <point x="43.75" y="0.0" type="line"/>
      <point x="365.3928571428571" y="0.0" type="line"/>
      <point x="365.3928571428571" y="16.0" type="line"/>
      <point x="279.92857142857144" y="57.214285714285715" type="line"/>
      <point x="279.92857142857144" y="602.7857142857143" type="line"/>
      <point x="365.3928571428571" y="644.0" type="line"/>
      <point x="365.3928571428571" y="660.0" type="line"/>
      <point x="43.75" y="660.0" type="line"/>
      <point x="43.75" y="644.0" type="line"/>
      <point x="129.21428571428572" y="602.7857142857143" type="line"/>
      <point x="129.21428571428572" y="57.214285714285715" type="line"/>
      <point x="43.75" y="16.0" type="line"/>
    </contour>
    <contour>
      <point x="365.96428571428567" y="165.53571428571428" type="line" smooth="yes"/>
      <point x="528.9642857142857" y="165.53571428571428"/>
      <point x="650.9642857142857" y="241.07142857142858"/>
      <point x="650.9642857142857" y="353.7142857142857" type="curve" smooth="yes"/>
      <point x="650.9642857142857" y="477.7142857142857"/>
      <point x="546.9642857142857" y="531.5"/>
      <point x="389.9642857142857" y="531.5" type="curve" smooth="yes"/>
      <point x="258.07142857142856" y="531.5" type="line"/>
      <point x="258.07142857142856" y="476.5" type="line"/>
      <point x="321.5" y="476.5" type="line" smooth="yes"/>
      <point x="434.5" y="476.5"/>
      <point x="497.5" y="437.5"/>
      <point x="497.5" y="344.5" type="curve" smooth="yes"/>
      <point x="497.5" y="269.5"/>
      <point x="433.5" y="214.46428571428572"/>
      <point x="328.5" y="214.46428571428572" type="curve" smooth="yes"/>
      <point x="254.92857142857142" y="214.46428571428572" type="line"/>
      <point x="254.92857142857142" y="165.53571428571428" type="line"/>
    </contour>
  </outline>
</glyph>
